<svg class="main-svg" xmlns="http://www.w3.org/2000/svg" xmlns:xlink="http://www.w3.org/1999/xlink" width="1060" height="1400" style="" viewBox="0 0 530 700"><rect x="0" y="0" width="530" height="700" style="fill: rgb(255, 255, 255); fill-opacity: 1;"/><defs id="defs-84dbb8"><g class="clips"><clipPath id="clip84dbb8xyplot" class="plotclip"><rect width="452" height="216.39999999999995"/></clipPath><clipPath id="clip84dbb8x2y2plot" class="plotclip"><rect width="452" height="216.4"/></clipPath><clipPath class="axesclip" id="clip84dbb8x"><rect x="60" y="0" width="452" height="700"/></clipPath><clipPath class="axesclip" id="clip84dbb8y"><rect x="0" y="100" width="530" height="216.39999999999995"/></clipPath><clipPath class="axesclip" id="clip84dbb8xy"><rect x="60" y="100" width="452" height="216.39999999999995"/></clipPath><clipPath class="axesclip" id="clip84dbb8y2"><rect x="0" y="424.59999999999997" width="530" height="216.4"/></clipPath><clipPath class="axesclip" id="clip84dbb8xy2"><rect x="60" y="424.59999999999997" width="452" height="216.4"/></clipPath><clipPath class="axesclip" id="clip84dbb8x2"><rect x="60" y="0" width="452" height="700"/></clipPath><clipPath class="axesclip" id="clip84dbb8x2y"><rect x="60" y="100" width="452" height="216.39999999999995"/></clipPath><clipPath class="axesclip" id="clip84dbb8x2y2"><rect x="60" y="424.59999999999997" width="452" height="216.4"/></clipPath></g><g class="gradients"/><g class="patterns"/></defs><g class="bglayer"/><g class="layer-below"><g class="imagelayer"/><g class="shapelayer"/></g><g class="cartesianlayer"><g class="subplot xy"><g class="layer-subplot"><g class="shapelayer"/><g class="imagelayer"/></g><g class="minor-gridlayer"><g class="x"/><g class="y"/></g><g class="gridlayer"><g class="x"><path class="xgrid crisp" transform="translate(65.37,0)" d="M0,100v216.39999999999995" style="stroke: rgb(235, 240, 248); stroke-opacity: 1; stroke-width: 1px;"/><path class="xgrid crisp" transform="translate(154.26,0)" d="M0,100v216.39999999999995" style="stroke: rgb(235, 240, 248); stroke-opacity: 1; stroke-width: 1px;"/><path class="xgrid crisp" transform="translate(243.15,0)" d="M0,100v216.39999999999995" style="stroke: rgb(235, 240, 248); stroke-opacity: 1; stroke-width: 1px;"/><path class="xgrid crisp" transform="translate(332.05,0)" d="M0,100v216.39999999999995" style="stroke: rgb(235, 240, 248); stroke-opacity: 1; stroke-width: 1px;"/><path class="xgrid crisp" transform="translate(420.94,0)" d="M0,100v216.39999999999995" style="stroke: rgb(235, 240, 248); stroke-opacity: 1; stroke-width: 1px;"/><path class="xgrid crisp" transform="translate(509.83,0)" d="M0,100v216.39999999999995" style="stroke: rgb(235, 240, 248); stroke-opacity: 1; stroke-width: 1px;"/></g><g class="y"><path class="ygrid crisp" transform="translate(0,276.89)" d="M60,0h452" style="stroke: rgb(235, 240, 248); stroke-opacity: 1; stroke-width: 1px;"/><path class="ygrid crisp" transform="translate(0,233.49)" d="M60,0h452" style="stroke: rgb(235, 240, 248); stroke-opacity: 1; stroke-width: 1px;"/><path class="ygrid crisp" transform="translate(0,190.09)" d="M60,0h452" style="stroke: rgb(235, 240, 248); stroke-opacity: 1; stroke-width: 1px;"/><path class="ygrid crisp" transform="translate(0,146.69)" d="M60,0h452" style="stroke: rgb(235, 240, 248); stroke-opacity: 1; stroke-width: 1px;"/><path class="ygrid crisp" transform="translate(0,103.29)" d="M60,0h452" style="stroke: rgb(235, 240, 248); stroke-opacity: 1; stroke-width: 1px;"/></g></g><g class="zerolinelayer"/><g class="layer-between"><g class="shapelayer"/><g class="imagelayer"/></g><path class="xlines-below"/><path class="ylines-below"/><g class="overlines-below"/><g class="xaxislayer-below"/><g class="yaxislayer-below"/><g class="overaxes-below"/><g class="overplot"><g class="xy" transform="translate(60,100)" clip-path="url(#clip84dbb8xyplot)"><g class="scatterlayer mlayer"><g class="trace scatter trace646d48" style="stroke-miterlimit: 2;"><g class="fills"><g><path class="js-fill" d="M46.26,201.99L408.94,25.8L408.94,20.7L309.91,69.29L195.42,125.47L46.26,198.66Z" style="fill: rgb(254, 203, 82); fill-opacity: 0.4; stroke-width: 0;"/></g></g><g class="errorbars"/><g class="lines"><path class="js-line" d="M46.26,198.66L195.42,125.47L309.91,69.29L408.94,20.7" style="vector-effect: none; fill: none; stroke: rgb(254, 203, 82); stroke-opacity: 1; stroke-width: 0.1px; opacity: 1;"/></g><g class="points"/><g class="text"/></g><g class="trace scatter trace4e1b06" style="stroke-miterlimit: 2;"><g class="fills"/><g class="errorbars"/><g class="lines"><path class="js-line" d="M46.26,201.99L408.94,25.8" style="vector-effect: none; fill: none; stroke: rgb(254, 203, 82); stroke-opacity: 1; stroke-width: 0.1px; opacity: 1;"/></g><g class="points"/><g class="text"/></g><g class="trace scatter tracebc6d83" style="stroke-miterlimit: 2; opacity: 1;"><g class="fills"/><g class="errorbars"/><g class="lines"/><g class="points"><path class="point" transform="translate(51.6,201.83)" d="M3,0A3,3 0 1,1 0,-3A3,3 0 0,1 3,0Z" style="opacity: 1; stroke-width: 0px; fill: rgb(182, 182, 182); fill-opacity: 0.5;"/><path class="point" transform="translate(45.73,156.87)" d="M3,0A3,3 0 1,1 0,-3A3,3 0 0,1 3,0Z" style="opacity: 1; stroke-width: 0px; fill: rgb(182, 182, 182); fill-opacity: 0.5;"/><path class="point" transform="translate(26.35,173.5)" d="M3,0A3,3 0 1,1 0,-3A3,3 0 0,1 3,0Z" style="opacity: 1; stroke-width: 0px; fill: rgb(182, 182, 182); fill-opacity: 0.5;"/><path class="point" transform="translate(421.38,14.57)" d="M3,0A3,3 0 1,1 0,-3A3,3 0 0,1 3,0Z" style="opacity: 1; stroke-width: 0px; fill: rgb(182, 182, 182); fill-opacity: 0.5;"/><path class="point" transform="translate(425.65,16.12)" d="M3,0A3,3 0 1,1 0,-3A3,3 0 0,1 3,0Z" style="opacity: 1; stroke-width: 0px; fill: rgb(182, 182, 182); fill-opacity: 0.5;"/><path class="point" transform="translate(415.16,23.2)" d="M3,0A3,3 0 1,1 0,-3A3,3 0 0,1 3,0Z" style="opacity: 1; stroke-width: 0px; fill: rgb(182, 182, 182); fill-opacity: 0.5;"/><path class="point" transform="translate(394.89,18.91)" d="M3,0A3,3 0 1,1 0,-3A3,3 0 0,1 3,0Z" style="opacity: 1; stroke-width: 0px; fill: rgb(182, 182, 182); fill-opacity: 0.5;"/><path class="point" transform="translate(49.46,189.4)" d="M3,0A3,3 0 1,1 0,-3A3,3 0 0,1 3,0Z" style="opacity: 1; stroke-width: 0px; fill: rgb(182, 182, 182); fill-opacity: 0.5;"/><path class="point" transform="translate(218.71,112.34)" d="M3,0A3,3 0 1,1 0,-3A3,3 0 0,1 3,0Z" style="opacity: 1; stroke-width: 0px; fill: rgb(182, 182, 182); fill-opacity: 0.5;"/><path class="point" transform="translate(220.67,118.82)" d="M3,0A3,3 0 1,1 0,-3A3,3 0 0,1 3,0Z" style="opacity: 1; stroke-width: 0px; fill: rgb(182, 182, 182); fill-opacity: 0.5;"/><path class="point" transform="translate(214.09,119.43)" d="M3,0A3,3 0 1,1 0,-3A3,3 0 0,1 3,0Z" style="opacity: 1; stroke-width: 0px; fill: rgb(182, 182, 182); fill-opacity: 0.5;"/><path class="point" transform="translate(223.33,115.82)" d="M3,0A3,3 0 1,1 0,-3A3,3 0 0,1 3,0Z" style="opacity: 1; stroke-width: 0px; fill: rgb(182, 182, 182); fill-opacity: 0.5;"/><path class="point" transform="translate(216.04,120.45)" d="M3,0A3,3 0 1,1 0,-3A3,3 0 0,1 3,0Z" style="opacity: 1; stroke-width: 0px; fill: rgb(182, 182, 182); fill-opacity: 0.5;"/><path class="point" transform="translate(220.49,118.02)" d="M3,0A3,3 0 1,1 0,-3A3,3 0 0,1 3,0Z" style="opacity: 1; stroke-width: 0px; fill: rgb(182, 182, 182); fill-opacity: 0.5;"/><path class="point" transform="translate(221.02,117.65)" d="M3,0A3,3 0 1,1 0,-3A3,3 0 0,1 3,0Z" style="opacity: 1; stroke-width: 0px; fill: rgb(182, 182, 182); fill-opacity: 0.5;"/></g><g class="text"/></g><g class="trace scatter trace6d19cc" style="stroke-miterlimit: 2; opacity: 1;"><g class="fills"/><g class="errorbars"/><g class="lines"><path class="js-line" d="M46.26,200.32L408.94,23.25" style="vector-effect: none; fill: none; stroke: rgb(51, 51, 51); stroke-opacity: 1; stroke-width: 2px; opacity: 1;"/></g><g class="points"/><g class="text"/></g><g class="trace scatter traced68a13" style="stroke-miterlimit: 2; opacity: 1;"><g class="fills"/><g class="errorbars"/><g class="lines"/><g class="points"><path class="point" transform="translate(46.26,198.69)" d="M4,0A4,4 0 1,1 0,-4A4,4 0 0,1 4,0Z" style="opacity: 1; stroke: rgb(99, 110, 250); stroke-opacity: 1; stroke-width: 1px; fill: none;"/><path class="point" transform="translate(47.86,198.1)" d="M4,0A4,4 0 1,1 0,-4A4,4 0 0,1 4,0Z" style="opacity: 1; stroke: rgb(99, 110, 250); stroke-opacity: 1; stroke-width: 1px; fill: none;"/><path class="point" transform="translate(126.26,160.33)" d="M4,0A4,4 0 1,1 0,-4A4,4 0 0,1 4,0Z" style="opacity: 1; stroke: rgb(99, 110, 250); stroke-opacity: 1; stroke-width: 1px; fill: none;"/><path class="point" transform="translate(145.82,149.22)" d="M4,0A4,4 0 1,1 0,-4A4,4 0 0,1 4,0Z" style="opacity: 1; stroke: rgb(99, 110, 250); stroke-opacity: 1; stroke-width: 1px; fill: none;"/><path class="point" transform="translate(149.55,147.88)" d="M4,0A4,4 0 1,1 0,-4A4,4 0 0,1 4,0Z" style="opacity: 1; stroke: rgb(99, 110, 250); stroke-opacity: 1; stroke-width: 1px; fill: none;"/><path class="point" transform="translate(151.86,146.07)" d="M4,0A4,4 0 1,1 0,-4A4,4 0 0,1 4,0Z" style="opacity: 1; stroke: rgb(99, 110, 250); stroke-opacity: 1; stroke-width: 1px; fill: none;"/><path class="point" transform="translate(152.04,144.77)" d="M4,0A4,4 0 1,1 0,-4A4,4 0 0,1 4,0Z" style="opacity: 1; stroke: rgb(99, 110, 250); stroke-opacity: 1; stroke-width: 1px; fill: none;"/><path class="point" transform="translate(157.02,143.48)" d="M4,0A4,4 0 1,1 0,-4A4,4 0 0,1 4,0Z" style="opacity: 1; stroke: rgb(99, 110, 250); stroke-opacity: 1; stroke-width: 1px; fill: none;"/><path class="point" transform="translate(162.35,142.29)" d="M4,0A4,4 0 1,1 0,-4A4,4 0 0,1 4,0Z" style="opacity: 1; stroke: rgb(99, 110, 250); stroke-opacity: 1; stroke-width: 1px; fill: none;"/><path class="point" transform="translate(186.71,130.58)" d="M4,0A4,4 0 1,1 0,-4A4,4 0 0,1 4,0Z" style="opacity: 1; stroke: rgb(99, 110, 250); stroke-opacity: 1; stroke-width: 1px; fill: none;"/><path class="point" transform="translate(190.98,128.37)" d="M4,0A4,4 0 1,1 0,-4A4,4 0 0,1 4,0Z" style="opacity: 1; stroke: rgb(99, 110, 250); stroke-opacity: 1; stroke-width: 1px; fill: none;"/><path class="point" transform="translate(195.42,123.5)" d="M4,0A4,4 0 1,1 0,-4A4,4 0 0,1 4,0Z" style="opacity: 1; stroke: rgb(99, 110, 250); stroke-opacity: 1; stroke-width: 1px; fill: none;"/><path class="point" transform="translate(309.91,72.57)" d="M4,0A4,4 0 1,1 0,-4A4,4 0 0,1 4,0Z" style="opacity: 1; stroke: rgb(99, 110, 250); stroke-opacity: 1; stroke-width: 1px; fill: none;"/><path class="point" transform="translate(382.63,34.6)" d="M4,0A4,4 0 1,1 0,-4A4,4 0 0,1 4,0Z" style="opacity: 1; stroke: rgb(99, 110, 250); stroke-opacity: 1; stroke-width: 1px; fill: none;"/><path class="point" transform="translate(408.94,21.73)" d="M4,0A4,4 0 1,1 0,-4A4,4 0 0,1 4,0Z" style="opacity: 1; stroke: rgb(99, 110, 250); stroke-opacity: 1; stroke-width: 1px; fill: none;"/></g><g class="text"/></g></g></g></g><path class="xlines-above crisp" d="M0,0" style="fill: none;"/><path class="ylines-above crisp" d="M0,0" style="fill: none;"/><g class="overlines-above"/><g class="xaxislayer-above"><g class="xtick"><text text-anchor="middle" x="0" y="333.4" transform="translate(65.37,0)" style="font-family: 'Open Sans', verdana, arial, sans-serif; font-size: 16px; fill: rgb(42, 63, 95); fill-opacity: 1; white-space: pre; opacity: 1;">30</text></g><g class="xtick"><text text-anchor="middle" x="0" y="333.4" style="font-family: 'Open Sans', verdana, arial, sans-serif; font-size: 16px; fill: rgb(42, 63, 95); fill-opacity: 1; white-space: pre; opacity: 1;" transform="translate(154.26,0)">35</text></g><g class="xtick"><text text-anchor="middle" x="0" y="333.4" style="font-family: 'Open Sans', verdana, arial, sans-serif; font-size: 16px; fill: rgb(42, 63, 95); fill-opacity: 1; white-space: pre; opacity: 1;" transform="translate(243.15,0)">40</text></g><g class="xtick"><text text-anchor="middle" x="0" y="333.4" style="font-family: 'Open Sans', verdana, arial, sans-serif; font-size: 16px; fill: rgb(42, 63, 95); fill-opacity: 1; white-space: pre; opacity: 1;" transform="translate(332.05,0)">45</text></g><g class="xtick"><text text-anchor="middle" x="0" y="333.4" style="font-family: 'Open Sans', verdana, arial, sans-serif; font-size: 16px; fill: rgb(42, 63, 95); fill-opacity: 1; white-space: pre; opacity: 1;" transform="translate(420.94,0)">50</text></g><g class="xtick"><text text-anchor="middle" x="0" y="333.4" style="font-family: 'Open Sans', verdana, arial, sans-serif; font-size: 16px; fill: rgb(42, 63, 95); fill-opacity: 1; white-space: pre; opacity: 1;" transform="translate(509.83,0)">55</text></g></g><g class="yaxislayer-above"><g class="ytick"><text text-anchor="end" x="59" y="5.6" transform="translate(0,276.89)" style="font-family: 'Open Sans', verdana, arial, sans-serif; font-size: 16px; fill: rgb(42, 63, 95); fill-opacity: 1; white-space: pre; opacity: 1;">35</text></g><g class="ytick"><text text-anchor="end" x="59" y="5.6" style="font-family: 'Open Sans', verdana, arial, sans-serif; font-size: 16px; fill: rgb(42, 63, 95); fill-opacity: 1; white-space: pre; opacity: 1;" transform="translate(0,233.49)">40</text></g><g class="ytick"><text text-anchor="end" x="59" y="5.6" style="font-family: 'Open Sans', verdana, arial, sans-serif; font-size: 16px; fill: rgb(42, 63, 95); fill-opacity: 1; white-space: pre; opacity: 1;" transform="translate(0,190.09)">45</text></g><g class="ytick"><text text-anchor="end" x="59" y="5.6" style="font-family: 'Open Sans', verdana, arial, sans-serif; font-size: 16px; fill: rgb(42, 63, 95); fill-opacity: 1; white-space: pre; opacity: 1;" transform="translate(0,146.69)">50</text></g><g class="ytick"><text text-anchor="end" x="59" y="5.6" style="font-family: 'Open Sans', verdana, arial, sans-serif; font-size: 16px; fill: rgb(42, 63, 95); fill-opacity: 1; white-space: pre; opacity: 1;" transform="translate(0,103.29)">55</text></g></g><g class="overaxes-above"/></g><g class="subplot x2y2"><g class="layer-subplot"><g class="shapelayer"/><g class="imagelayer"/></g><g class="minor-gridlayer"><g class="x2"/><g class="y2"/></g><g class="gridlayer"><g class="x2"><path class="x2grid crisp" transform="translate(92.94,0)" d="M0,424.59999999999997v216.4" style="stroke: rgb(235, 240, 248); stroke-opacity: 1; stroke-width: 1px;"/><path class="x2grid crisp" transform="translate(191.79,0)" d="M0,424.59999999999997v216.4" style="stroke: rgb(235, 240, 248); stroke-opacity: 1; stroke-width: 1px;"/><path class="x2grid crisp" transform="translate(290.65,0)" d="M0,424.59999999999997v216.4" style="stroke: rgb(235, 240, 248); stroke-opacity: 1; stroke-width: 1px;"/><path class="x2grid crisp" transform="translate(389.5,0)" d="M0,424.59999999999997v216.4" style="stroke: rgb(235, 240, 248); stroke-opacity: 1; stroke-width: 1px;"/><path class="x2grid crisp" transform="translate(488.35,0)" d="M0,424.59999999999997v216.4" style="stroke: rgb(235, 240, 248); stroke-opacity: 1; stroke-width: 1px;"/></g><g class="y2"><path class="y2grid crisp" transform="translate(0,611.29)" d="M60,0h452" style="stroke: rgb(235, 240, 248); stroke-opacity: 1; stroke-width: 1px;"/><path class="y2grid crisp" transform="translate(0,570.05)" d="M60,0h452" style="stroke: rgb(235, 240, 248); stroke-opacity: 1; stroke-width: 1px;"/><path class="y2grid crisp" transform="translate(0,528.8199999999999)" d="M60,0h452" style="stroke: rgb(235, 240, 248); stroke-opacity: 1; stroke-width: 1px;"/><path class="y2grid crisp" transform="translate(0,487.58)" d="M60,0h452" style="stroke: rgb(235, 240, 248); stroke-opacity: 1; stroke-width: 1px;"/><path class="y2grid crisp" transform="translate(0,446.34)" d="M60,0h452" style="stroke: rgb(235, 240, 248); stroke-opacity: 1; stroke-width: 1px;"/></g></g><g class="zerolinelayer"/><g class="layer-between"><g class="shapelayer"/><g class="imagelayer"/></g><path class="xlines-below"/><path class="ylines-below"/><g class="overlines-below"/><g class="xaxislayer-below"/><g class="yaxislayer-below"/><g class="overaxes-below"/><g class="overplot"><g class="x2y2" transform="translate(60,424.59999999999997)" clip-path="url(#clip84dbb8x2y2plot)"><g class="scatterlayer mlayer"><g class="trace scatter traceb1bd38" style="stroke-miterlimit: 2;"><g class="fills"><g><path class="js-fill" d="M27.6,190.59L424.4,25.9L424.4,20.89L27.6,187.23Z" style="fill: rgb(254, 203, 82); fill-opacity: 0.4; stroke-width: 0;"/></g></g><g class="errorbars"/><g class="lines"><path class="js-line" d="M27.6,187.23L424.4,20.89" style="vector-effect: none; fill: none; stroke: rgb(254, 203, 82); stroke-opacity: 1; stroke-width: 0.1px; opacity: 1;"/></g><g class="points"/><g class="text"/></g><g class="trace scatter trace1f14b0" style="stroke-miterlimit: 2;"><g class="fills"/><g class="errorbars"/><g class="lines"><path class="js-line" d="M27.6,190.59L424.4,25.9" style="vector-effect: none; fill: none; stroke: rgb(254, 203, 82); stroke-opacity: 1; stroke-width: 0.1px; opacity: 1;"/></g><g class="points"/><g class="text"/></g><g class="trace scatter trace456d91" style="stroke-miterlimit: 2; opacity: 1;"><g class="fills"/><g class="errorbars"/><g class="lines"/><g class="points"><path class="point" transform="translate(30.96,177.04)" d="M3,0A3,3 0 1,1 0,-3A3,3 0 0,1 3,0Z" style="opacity: 1; stroke-width: 0px; fill: rgb(182, 182, 182); fill-opacity: 0.5;"/><path class="point" transform="translate(27.8,177.53)" d="M3,0A3,3 0 1,1 0,-3A3,3 0 0,1 3,0Z" style="opacity: 1; stroke-width: 0px; fill: rgb(182, 182, 182); fill-opacity: 0.5;"/><path class="point" transform="translate(33.73,175.88)" d="M3,0A3,3 0 1,1 0,-3A3,3 0 0,1 3,0Z" style="opacity: 1; stroke-width: 0px; fill: rgb(182, 182, 182); fill-opacity: 0.5;"/><path class="point" transform="translate(416.89,22.57)" d="M3,0A3,3 0 1,1 0,-3A3,3 0 0,1 3,0Z" style="opacity: 1; stroke-width: 0px; fill: rgb(182, 182, 182); fill-opacity: 0.5;"/><path class="point" transform="translate(392.96,20.1)" d="M3,0A3,3 0 1,1 0,-3A3,3 0 0,1 3,0Z" style="opacity: 1; stroke-width: 0px; fill: rgb(182, 182, 182); fill-opacity: 0.5;"/><path class="point" transform="translate(391.38,15.97)" d="M3,0A3,3 0 1,1 0,-3A3,3 0 0,1 3,0Z" style="opacity: 1; stroke-width: 0px; fill: rgb(182, 182, 182); fill-opacity: 0.5;"/><path class="point" transform="translate(413.33,14.57)" d="M3,0A3,3 0 1,1 0,-3A3,3 0 0,1 3,0Z" style="opacity: 1; stroke-width: 0px; fill: rgb(182, 182, 182); fill-opacity: 0.5;"/><path class="point" transform="translate(28.19,178.85)" d="M3,0A3,3 0 1,1 0,-3A3,3 0 0,1 3,0Z" style="opacity: 1; stroke-width: 0px; fill: rgb(182, 182, 182); fill-opacity: 0.5;"/><path class="point" transform="translate(206.13,108.26)" d="M3,0A3,3 0 1,1 0,-3A3,3 0 0,1 3,0Z" style="opacity: 1; stroke-width: 0px; fill: rgb(182, 182, 182); fill-opacity: 0.5;"/><path class="point" transform="translate(188.53,115.6)" d="M3,0A3,3 0 1,1 0,-3A3,3 0 0,1 3,0Z" style="opacity: 1; stroke-width: 0px; fill: rgb(182, 182, 182); fill-opacity: 0.5;"/><path class="point" transform="translate(194.27,115.02)" d="M3,0A3,3 0 1,1 0,-3A3,3 0 0,1 3,0Z" style="opacity: 1; stroke-width: 0px; fill: rgb(182, 182, 182); fill-opacity: 0.5;"/><path class="point" transform="translate(220.56,102.9)" d="M3,0A3,3 0 1,1 0,-3A3,3 0 0,1 3,0Z" style="opacity: 1; stroke-width: 0px; fill: rgb(182, 182, 182); fill-opacity: 0.5;"/><path class="point" transform="translate(195.65,112.13)" d="M3,0A3,3 0 1,1 0,-3A3,3 0 0,1 3,0Z" style="opacity: 1; stroke-width: 0px; fill: rgb(182, 182, 182); fill-opacity: 0.5;"/><path class="point" transform="translate(209.1,109.33)" d="M3,0A3,3 0 1,1 0,-3A3,3 0 0,1 3,0Z" style="opacity: 1; stroke-width: 0px; fill: rgb(182, 182, 182); fill-opacity: 0.5;"/><path class="point" transform="translate(209.1,109.25)" d="M3,0A3,3 0 1,1 0,-3A3,3 0 0,1 3,0Z" style="opacity: 1; stroke-width: 0px; fill: rgb(182, 182, 182); fill-opacity: 0.5;"/></g><g class="text"/></g><g class="trace scatter traceeeae5a" style="stroke-miterlimit: 2; opacity: 1;"><g class="fills"/><g class="errorbars"/><g class="lines"><path class="js-line" d="M27.6,188.91L424.4,23.39" style="vector-effect: none; fill: none; stroke: rgb(51, 51, 51); stroke-opacity: 1; stroke-width: 2px; opacity: 1;"/></g><g class="points"/><g class="text"/></g><g class="trace scatter trace97f8ef" style="stroke-miterlimit: 2; opacity: 1;"><g class="fills"/><g class="errorbars"/><g class="lines"/><g class="points"><path class="point" transform="translate(27.6,198.7)" d="M4,0A4,4 0 1,1 0,-4A4,4 0 0,1 4,0Z" style="opacity: 1; stroke: rgb(99, 110, 250); stroke-opacity: 1; stroke-width: 1px; fill: none;"/><path class="point" transform="translate(32.54,200.58)" d="M4,0A4,4 0 1,1 0,-4A4,4 0 0,1 4,0Z" style="opacity: 1; stroke: rgb(99, 110, 250); stroke-opacity: 1; stroke-width: 1px; fill: none;"/><path class="point" transform="translate(161.25,164.31)" d="M4,0A4,4 0 1,1 0,-4A4,4 0 0,1 4,0Z" style="opacity: 1; stroke: rgb(99, 110, 250); stroke-opacity: 1; stroke-width: 1px; fill: none;"/><path class="point" transform="translate(163.23,151.27)" d="M4,0A4,4 0 1,1 0,-4A4,4 0 0,1 4,0Z" style="opacity: 1; stroke: rgb(99, 110, 250); stroke-opacity: 1; stroke-width: 1px; fill: none;"/><path class="point" transform="translate(164.81,149.33)" d="M4,0A4,4 0 1,1 0,-4A4,4 0 0,1 4,0Z" style="opacity: 1; stroke: rgb(99, 110, 250); stroke-opacity: 1; stroke-width: 1px; fill: none;"/><path class="point" transform="translate(165.6,154.21)" d="M4,0A4,4 0 1,1 0,-4A4,4 0 0,1 4,0Z" style="opacity: 1; stroke: rgb(99, 110, 250); stroke-opacity: 1; stroke-width: 1px; fill: none;"/><path class="point" transform="translate(165.6,152.71)" d="M4,0A4,4 0 1,1 0,-4A4,4 0 0,1 4,0Z" style="opacity: 1; stroke: rgb(99, 110, 250); stroke-opacity: 1; stroke-width: 1px; fill: none;"/><path class="point" transform="translate(169.75,148.01)" d="M4,0A4,4 0 1,1 0,-4A4,4 0 0,1 4,0Z" style="opacity: 1; stroke: rgb(99, 110, 250); stroke-opacity: 1; stroke-width: 1px; fill: none;"/><path class="point" transform="translate(171.14,147.3)" d="M4,0A4,4 0 1,1 0,-4A4,4 0 0,1 4,0Z" style="opacity: 1; stroke: rgb(99, 110, 250); stroke-opacity: 1; stroke-width: 1px; fill: none;"/><path class="point" transform="translate(186.16,134.26)" d="M4,0A4,4 0 1,1 0,-4A4,4 0 0,1 4,0Z" style="opacity: 1; stroke: rgb(99, 110, 250); stroke-opacity: 1; stroke-width: 1px; fill: none;"/><path class="point" transform="translate(188.73,134.82)" d="M4,0A4,4 0 1,1 0,-4A4,4 0 0,1 4,0Z" style="opacity: 1; stroke: rgb(99, 110, 250); stroke-opacity: 1; stroke-width: 1px; fill: none;"/><path class="point" transform="translate(196.05,126.1)" d="M4,0A4,4 0 1,1 0,-4A4,4 0 0,1 4,0Z" style="opacity: 1; stroke: rgb(99, 110, 250); stroke-opacity: 1; stroke-width: 1px; fill: none;"/><path class="point" transform="translate(279.88,83.05)" d="M4,0A4,4 0 1,1 0,-4A4,4 0 0,1 4,0Z" style="opacity: 1; stroke: rgb(99, 110, 250); stroke-opacity: 1; stroke-width: 1px; fill: none;"/><path class="point" transform="translate(403.05,47.08)" d="M4,0A4,4 0 1,1 0,-4A4,4 0 0,1 4,0Z" style="opacity: 1; stroke: rgb(99, 110, 250); stroke-opacity: 1; stroke-width: 1px; fill: none;"/><path class="point" transform="translate(424.4,33.58)" d="M4,0A4,4 0 1,1 0,-4A4,4 0 0,1 4,0Z" style="opacity: 1; stroke: rgb(99, 110, 250); stroke-opacity: 1; stroke-width: 1px; fill: none;"/></g><g class="text"/></g></g></g></g><path class="xlines-above crisp" d="M0,0" style="fill: none;"/><path class="ylines-above crisp" d="M0,0" style="fill: none;"/><g class="overlines-above"/><g class="xaxislayer-above"><g class="x2tick"><text text-anchor="middle" x="0" y="658" transform="translate(92.94,0)" style="font-family: 'Open Sans', verdana, arial, sans-serif; font-size: 16px; fill: rgb(42, 63, 95); fill-opacity: 1; white-space: pre; opacity: 1;">35</text></g><g class="x2tick"><text text-anchor="middle" x="0" y="658" style="font-family: 'Open Sans', verdana, arial, sans-serif; font-size: 16px; fill: rgb(42, 63, 95); fill-opacity: 1; white-space: pre; opacity: 1;" transform="translate(191.79,0)">40</text></g><g class="x2tick"><text text-anchor="middle" x="0" y="658" style="font-family: 'Open Sans', verdana, arial, sans-serif; font-size: 16px; fill: rgb(42, 63, 95); fill-opacity: 1; white-space: pre; opacity: 1;" transform="translate(290.65,0)">45</text></g><g class="x2tick"><text text-anchor="middle" x="0" y="658" style="font-family: 'Open Sans', verdana, arial, sans-serif; font-size: 16px; fill: rgb(42, 63, 95); fill-opacity: 1; white-space: pre; opacity: 1;" transform="translate(389.5,0)">50</text></g><g class="x2tick"><text text-anchor="middle" x="0" y="658" style="font-family: 'Open Sans', verdana, arial, sans-serif; font-size: 16px; fill: rgb(42, 63, 95); fill-opacity: 1; white-space: pre; opacity: 1;" transform="translate(488.35,0)">55</text></g></g><g class="yaxislayer-above"><g class="y2tick"><text text-anchor="end" x="59" y="5.6" transform="translate(0,611.29)" style="font-family: 'Open Sans', verdana, arial, sans-serif; font-size: 16px; fill: rgb(42, 63, 95); fill-opacity: 1; white-space: pre; opacity: 1;">35</text></g><g class="y2tick"><text text-anchor="end" x="59" y="5.6" style="font-family: 'Open Sans', verdana, arial, sans-serif; font-size: 16px; fill: rgb(42, 63, 95); fill-opacity: 1; white-space: pre; opacity: 1;" transform="translate(0,570.05)">40</text></g><g class="y2tick"><text text-anchor="end" x="59" y="5.6" style="font-family: 'Open Sans', verdana, arial, sans-serif; font-size: 16px; fill: rgb(42, 63, 95); fill-opacity: 1; white-space: pre; opacity: 1;" transform="translate(0,528.8199999999999)">45</text></g><g class="y2tick"><text text-anchor="end" x="59" y="5.6" style="font-family: 'Open Sans', verdana, arial, sans-serif; font-size: 16px; fill: rgb(42, 63, 95); fill-opacity: 1; white-space: pre; opacity: 1;" transform="translate(0,487.58)">50</text></g><g class="y2tick"><text text-anchor="end" x="59" y="5.6" style="font-family: 'Open Sans', verdana, arial, sans-serif; font-size: 16px; fill: rgb(42, 63, 95); fill-opacity: 1; white-space: pre; opacity: 1;" transform="translate(0,446.34)">55</text></g></g><g class="overaxes-above"/></g></g><g class="polarlayer"/><g class="smithlayer"/><g class="ternarylayer"/><g class="geolayer"/><g class="funnelarealayer"/><g class="pielayer"/><g class="iciclelayer"/><g class="treemaplayer"/><g class="sunburstlayer"/><g class="glimages"/><defs id="topdefs-84dbb8"><g class="clips"/><clipPath id="legend84dbb8"><rect width="412" height="29" x="0" y="0"/></clipPath></defs><g class="layer-above"><g class="imagelayer"/><g class="shapelayer"/></g><g class="infolayer"><g class="legend" pointer-events="all" transform="translate(80,38.539999999999964)"><rect class="bg" shape-rendering="crispEdges" width="412" height="29" x="0" y="0" style="stroke: rgb(68, 68, 68); stroke-opacity: 1; fill: rgb(255, 255, 255); fill-opacity: 1; stroke-width: 0px;"/><g class="scrollbox" transform="" clip-path="url(#legend84dbb8)"><g class="groups" transform=""><g class="traces" transform="translate(0,14.5)" style="opacity: 1;"><text class="legendtext" text-anchor="start" x="40" y="4.680000000000001" style="font-family: 'Open Sans', verdana, arial, sans-serif; font-size: 12px; fill: rgb(42, 63, 95); fill-opacity: 1; white-space: pre;">Sensor unc.</text><g class="layers"><g class="legendfill"><path class="js-fill" d="M5,-2h30v6h-30z" style="stroke-width: 0; fill: rgb(254, 203, 82); fill-opacity: 0.4;"/></g><g class="legendlines"><path class="js-line" d="M5,-2h30" style="fill: none; stroke: rgb(254, 203, 82); stroke-opacity: 1; stroke-width: 0.1px;"/></g><g class="legendsymbols"><g class="legendpoints"/></g></g><rect class="legendtoggle" x="0" y="-9.5" width="113.078125" height="19" style="fill: rgb(0, 0, 0); fill-opacity: 0;"/></g></g><g class="groups" transform="translate(115.578125,0)"><g class="traces" transform="translate(0,14.5)" style="opacity: 1;"><text class="legendtext" text-anchor="start" x="40" y="4.680000000000001" style="font-family: 'Open Sans', verdana, arial, sans-serif; font-size: 12px; fill: rgb(42, 63, 95); fill-opacity: 1; white-space: pre;">Cal.</text><g class="layers" style="opacity: 1;"><g class="legendfill"/><g class="legendlines"/><g class="legendsymbols"><g class="legendpoints"><path class="scatterpts" transform="translate(20,0)" d="M3,0A3,3 0 1,1 0,-3A3,3 0 0,1 3,0Z" style="opacity: 1; stroke-width: 0px; fill: rgb(182, 182, 182); fill-opacity: 0.5;"/></g></g></g><rect class="legendtoggle" x="0" y="-9.5" width="65.390625" height="19" style="fill: rgb(0, 0, 0); fill-opacity: 0;"/></g></g><g class="groups" transform="translate(183.46875,0)"><g class="traces" transform="translate(0,14.5)" style="opacity: 1;"><text class="legendtext" text-anchor="start" x="40" y="4.680000000000001" style="font-family: 'Open Sans', verdana, arial, sans-serif; font-size: 12px; fill: rgb(42, 63, 95); fill-opacity: 1; white-space: pre;">Perfect fit</text><g class="layers" style="opacity: 1;"><g class="legendfill"/><g class="legendlines"><path class="js-line" d="M5,0h30" style="fill: none; stroke: rgb(51, 51, 51); stroke-opacity: 1; stroke-width: 2px;"/></g><g class="legendsymbols"><g class="legendpoints"/></g></g><rect class="legendtoggle" x="0" y="-9.5" width="100.921875" height="19" style="fill: rgb(0, 0, 0); fill-opacity: 0;"/></g></g><g class="groups" transform="translate(286.890625,0)"><g class="traces" transform="translate(0,14.5)" style="opacity: 1;"><text class="legendtext" text-anchor="start" x="40" y="4.680000000000001" style="font-family: 'Open Sans', verdana, arial, sans-serif; font-size: 12px; fill: rgb(42, 63, 95); fill-opacity: 1; white-space: pre;">Model results</text><g class="layers" style="opacity: 1;"><g class="legendfill"/><g class="legendlines"/><g class="legendsymbols"><g class="legendpoints"><path class="scatterpts" transform="translate(20,0)" d="M4,0A4,4 0 1,1 0,-4A4,4 0 0,1 4,0Z" style="opacity: 1; stroke: rgb(99, 110, 250); stroke-opacity: 1; stroke-width: 1px; fill: none;"/></g></g></g><rect class="legendtoggle" x="0" y="-9.5" width="122.546875" height="19" style="fill: rgb(0, 0, 0); fill-opacity: 0;"/></g></g></g><rect class="scrollbar" rx="20" ry="3" width="0" height="0" x="0" y="0" style="fill: rgb(128, 139, 164); fill-opacity: 1;"/></g><g class="g-gtitle"><text class="gtitle" x="26.5" y="7" text-anchor="start" dy="0.7em" style="opacity: 1; font-family: 'Open Sans', verdana, arial, sans-serif; font-size: 22px; fill: rgb(42, 63, 95); fill-opacity: 1; white-space: pre;"><tspan style="font-weight:bold">Condenser</tspan> model validation</text></g><g class="g-xtitle"><text class="xtitle" x="286" y="365.20625" text-anchor="middle" style="opacity: 1; font-family: 'Open Sans', verdana, arial, sans-serif; font-size: 19px; fill: rgb(42, 63, 95); fill-opacity: 1; white-space: pre;">Experimental values [℃]</text></g><g class="g-x2title"><text class="x2title" x="286" y="689.8" text-anchor="middle" style="opacity: 1; font-family: 'Open Sans', verdana, arial, sans-serif; font-size: 19px; fill: rgb(42, 63, 95); fill-opacity: 1; white-space: pre;">Experimental values [℃]</text></g><g class="g-ytitle" transform="translate(0.521484375,0)"><text class="ytitle" transform="rotate(-90,17.490625,208.2)" x="17.490625" y="208.2" text-anchor="middle" style="opacity: 1; font-family: 'Open Sans', verdana, arial, sans-serif; font-size: 19px; fill: rgb(42, 63, 95); fill-opacity: 1; white-space: pre;">Predicted values [℃]</text></g><g class="g-y2title" transform="translate(0.5126953125,0)"><text class="y2title" transform="rotate(-90,17.490625,532.8)" x="17.490625" y="532.8" text-anchor="middle" style="opacity: 1; font-family: 'Open Sans', verdana, arial, sans-serif; font-size: 19px; fill: rgb(42, 63, 95); fill-opacity: 1; white-space: pre;">Predicted values [℃]</text></g><g class="annotation" data-index="0" style="opacity: 1;"><g class="annotation-text-g" transform="rotate(0,286,88.49999999999999)"><g class="cursor-pointer" transform="translate(107,77)"><rect class="bg" x="0.5" y="0.5" width="358" height="22" style="stroke-width: 1px; stroke: rgb(0, 0, 0); stroke-opacity: 0; fill: rgb(0, 0, 0); fill-opacity: 0;"/><text class="annotation-text" text-anchor="middle" x="179.6875" y="17" style="font-family: 'Open Sans', verdana, arial, sans-serif; font-size: 16px; fill: rgb(42, 63, 95); fill-opacity: 1; white-space: pre;"><tspan style="font-weight:bold">Outlet temp.</tspan> | R²=0.99 [-] | MAE=0.23 [℃]</text></g></g></g><g class="annotation" data-index="1" style="opacity: 1;"><g class="annotation-text-g" transform="rotate(0,286,413.09999999999997)"><g class="cursor-pointer" transform="translate(82,402)"><rect class="bg" x="0.5" y="0.5" width="408" height="22" style="stroke-width: 1px; stroke: rgb(0, 0, 0); stroke-opacity: 0; fill: rgb(0, 0, 0); fill-opacity: 0;"/><text class="annotation-text" text-anchor="middle" x="204.6875" y="17" style="font-family: 'Open Sans', verdana, arial, sans-serif; font-size: 16px; fill: rgb(42, 63, 95); fill-opacity: 1; white-space: pre;"><tspan style="font-weight:bold">Condensate temp.</tspan> | R²=0.85 [-] | MAE=1.86 [℃]</text></g></g></g></g></svg>