<svg class="main-svg" xmlns="http://www.w3.org/2000/svg" xmlns:xlink="http://www.w3.org/1999/xlink" width="700" height="1600" style="" viewBox="0 0 350 800"><rect x="0" y="0" width="350" height="800" style="fill: rgb(255, 255, 255); fill-opacity: 1;"/><defs id="defs-a9fb03"><g class="clips"><clipPath id="clipa9fb03xyplot" class="plotclip"><rect width="280" height="259.675"/></clipPath><clipPath id="clipa9fb03x2y2plot" class="plotclip"><rect width="280" height="259.675"/></clipPath><clipPath class="axesclip" id="clipa9fb03x"><rect x="60" y="0" width="280" height="800"/></clipPath><clipPath class="axesclip" id="clipa9fb03y"><rect x="0" y="130" width="350" height="259.675"/></clipPath><clipPath class="axesclip" id="clipa9fb03xy"><rect x="60" y="130" width="280" height="259.675"/></clipPath><clipPath class="axesclip" id="clipa9fb03y2"><rect x="0" y="481.325" width="350" height="259.675"/></clipPath><clipPath class="axesclip" id="clipa9fb03xy2"><rect x="60" y="481.325" width="280" height="259.675"/></clipPath><clipPath class="axesclip" id="clipa9fb03x2"><rect x="60" y="0" width="280" height="800"/></clipPath><clipPath class="axesclip" id="clipa9fb03x2y"><rect x="60" y="130" width="280" height="259.675"/></clipPath><clipPath class="axesclip" id="clipa9fb03x2y2"><rect x="60" y="481.325" width="280" height="259.675"/></clipPath></g><g class="gradients"/><g class="patterns"/></defs><g class="bglayer"/><g class="layer-below"><g class="imagelayer"/><g class="shapelayer"/></g><g class="cartesianlayer"><g class="subplot xy"><g class="layer-subplot"><g class="shapelayer"/><g class="imagelayer"/></g><g class="minor-gridlayer"><g class="x"/><g class="y"/></g><g class="gridlayer"><g class="x"><path class="xgrid crisp" transform="translate(64.9,0)" d="M0,130v259.675" style="stroke: rgb(235, 240, 248); stroke-opacity: 1; stroke-width: 1px;"/><path class="xgrid crisp" transform="translate(173.76,0)" d="M0,130v259.675" style="stroke: rgb(235, 240, 248); stroke-opacity: 1; stroke-width: 1px;"/><path class="xgrid crisp" transform="translate(282.62,0)" d="M0,130v259.675" style="stroke: rgb(235, 240, 248); stroke-opacity: 1; stroke-width: 1px;"/></g><g class="y"><path class="ygrid crisp" transform="translate(0,342.81)" d="M60,0h280" style="stroke: rgb(235, 240, 248); stroke-opacity: 1; stroke-width: 1px;"/><path class="ygrid crisp" transform="translate(0,290.38)" d="M60,0h280" style="stroke: rgb(235, 240, 248); stroke-opacity: 1; stroke-width: 1px;"/><path class="ygrid crisp" transform="translate(0,237.95999999999998)" d="M60,0h280" style="stroke: rgb(235, 240, 248); stroke-opacity: 1; stroke-width: 1px;"/><path class="ygrid crisp" transform="translate(0,185.53)" d="M60,0h280" style="stroke: rgb(235, 240, 248); stroke-opacity: 1; stroke-width: 1px;"/><path class="ygrid crisp" transform="translate(0,133.1)" d="M60,0h280" style="stroke: rgb(235, 240, 248); stroke-opacity: 1; stroke-width: 1px;"/></g></g><g class="zerolinelayer"/><g class="layer-between"><g class="shapelayer"/><g class="imagelayer"/></g><path class="xlines-below"/><path class="ylines-below"/><g class="overlines-below"/><g class="xaxislayer-below"/><g class="yaxislayer-below"/><g class="overaxes-below"/><g class="overplot"><g class="xy" transform="translate(60,130)" clip-path="url(#clipa9fb03xyplot)"><g class="scatterlayer mlayer"><g class="trace scatter trace523d38" style="stroke-miterlimit: 2;"><g class="fills"><g><path class="js-fill" d="M29.94,243.13L252.02,30.3L252.02,24.14L191.38,82.84L121.28,150.7L29.94,239.11Z" style="fill: rgb(254, 203, 82); fill-opacity: 0.4; stroke-width: 0;"/></g></g><g class="errorbars"/><g class="lines"><path class="js-line" d="M29.94,239.11L121.28,150.7L191.38,82.84L252.02,24.14" style="vector-effect: none; fill: none; stroke: rgb(254, 203, 82); stroke-opacity: 1; stroke-width: 0.1px; opacity: 1;"/></g><g class="points"/><g class="text"/></g><g class="trace scatter trace7001d2" style="stroke-miterlimit: 2;"><g class="fills"/><g class="errorbars"/><g class="lines"><path class="js-line" d="M29.94,243.13L252.02,30.3" style="vector-effect: none; fill: none; stroke: rgb(254, 203, 82); stroke-opacity: 1; stroke-width: 0.1px; opacity: 1;"/></g><g class="points"/><g class="text"/></g><g class="trace scatter trace2a5f40" style="stroke-miterlimit: 2; opacity: 1;"><g class="fills"/><g class="errorbars"/><g class="lines"/><g class="points"><path class="point" transform="translate(33.21,242.94)" d="M3,0A3,3 0 1,1 0,-3A3,3 0 0,1 3,0Z" style="opacity: 1; stroke-width: 0px; fill: rgb(182, 182, 182); fill-opacity: 0.3;"/><path class="point" transform="translate(29.62,188.63)" d="M3,0A3,3 0 1,1 0,-3A3,3 0 0,1 3,0Z" style="opacity: 1; stroke-width: 0px; fill: rgb(182, 182, 182); fill-opacity: 0.3;"/><path class="point" transform="translate(17.75,208.71)" d="M3,0A3,3 0 1,1 0,-3A3,3 0 0,1 3,0Z" style="opacity: 1; stroke-width: 0px; fill: rgb(182, 182, 182); fill-opacity: 0.3;"/><path class="point" transform="translate(259.64,16.73)" d="M3,0A3,3 0 1,1 0,-3A3,3 0 0,1 3,0Z" style="opacity: 1; stroke-width: 0px; fill: rgb(182, 182, 182); fill-opacity: 0.3;"/><path class="point" transform="translate(262.25,18.61)" d="M3,0A3,3 0 1,1 0,-3A3,3 0 0,1 3,0Z" style="opacity: 1; stroke-width: 0px; fill: rgb(182, 182, 182); fill-opacity: 0.3;"/><path class="point" transform="translate(255.83,27.15)" d="M3,0A3,3 0 1,1 0,-3A3,3 0 0,1 3,0Z" style="opacity: 1; stroke-width: 0px; fill: rgb(182, 182, 182); fill-opacity: 0.3;"/><path class="point" transform="translate(243.42,21.98)" d="M3,0A3,3 0 1,1 0,-3A3,3 0 0,1 3,0Z" style="opacity: 1; stroke-width: 0px; fill: rgb(182, 182, 182); fill-opacity: 0.3;"/><path class="point" transform="translate(31.9,227.93)" d="M3,0A3,3 0 1,1 0,-3A3,3 0 0,1 3,0Z" style="opacity: 1; stroke-width: 0px; fill: rgb(182, 182, 182); fill-opacity: 0.3;"/><path class="point" transform="translate(135.54,134.84)" d="M3,0A3,3 0 1,1 0,-3A3,3 0 0,1 3,0Z" style="opacity: 1; stroke-width: 0px; fill: rgb(182, 182, 182); fill-opacity: 0.3;"/><path class="point" transform="translate(136.73,142.66)" d="M3,0A3,3 0 1,1 0,-3A3,3 0 0,1 3,0Z" style="opacity: 1; stroke-width: 0px; fill: rgb(182, 182, 182); fill-opacity: 0.3;"/><path class="point" transform="translate(132.71,143.4)" d="M3,0A3,3 0 1,1 0,-3A3,3 0 0,1 3,0Z" style="opacity: 1; stroke-width: 0px; fill: rgb(182, 182, 182); fill-opacity: 0.3;"/><path class="point" transform="translate(138.37,139.04)" d="M3,0A3,3 0 1,1 0,-3A3,3 0 0,1 3,0Z" style="opacity: 1; stroke-width: 0px; fill: rgb(182, 182, 182); fill-opacity: 0.3;"/><path class="point" transform="translate(133.9,144.63)" d="M3,0A3,3 0 1,1 0,-3A3,3 0 0,1 3,0Z" style="opacity: 1; stroke-width: 0px; fill: rgb(182, 182, 182); fill-opacity: 0.3;"/><path class="point" transform="translate(136.63,141.7)" d="M3,0A3,3 0 1,1 0,-3A3,3 0 0,1 3,0Z" style="opacity: 1; stroke-width: 0px; fill: rgb(182, 182, 182); fill-opacity: 0.3;"/><path class="point" transform="translate(136.95,141.25)" d="M3,0A3,3 0 1,1 0,-3A3,3 0 0,1 3,0Z" style="opacity: 1; stroke-width: 0px; fill: rgb(182, 182, 182); fill-opacity: 0.3;"/></g><g class="text"/></g><g class="trace scatter trace607462" style="stroke-miterlimit: 2; opacity: 1;"><g class="fills"/><g class="errorbars"/><g class="lines"><path class="js-line" d="M29.94,241.12L252.02,27.22" style="vector-effect: none; fill: none; stroke: rgb(51, 51, 51); stroke-opacity: 1; stroke-width: 2px; opacity: 1;"/></g><g class="points"/><g class="text"/></g><g class="trace scatter tracebb03fe" style="stroke-miterlimit: 2; opacity: 1;"><g class="fills"/><g class="errorbars"/><g class="lines"/><g class="points"><path class="point" transform="translate(29.94,239.15)" d="M4,0A4,4 0 1,1 0,-4A4,4 0 0,1 4,0Z" style="opacity: 1; stroke: rgb(99, 110, 250); stroke-opacity: 1; stroke-width: 1px; fill: none;"/><path class="point" transform="translate(30.92,238.44)" d="M4,0A4,4 0 1,1 0,-4A4,4 0 0,1 4,0Z" style="opacity: 1; stroke: rgb(99, 110, 250); stroke-opacity: 1; stroke-width: 1px; fill: none;"/><path class="point" transform="translate(78.93,192.81)" d="M4,0A4,4 0 1,1 0,-4A4,4 0 0,1 4,0Z" style="opacity: 1; stroke: rgb(99, 110, 250); stroke-opacity: 1; stroke-width: 1px; fill: none;"/><path class="point" transform="translate(90.9,179.39)" d="M4,0A4,4 0 1,1 0,-4A4,4 0 0,1 4,0Z" style="opacity: 1; stroke: rgb(99, 110, 250); stroke-opacity: 1; stroke-width: 1px; fill: none;"/><path class="point" transform="translate(93.19,177.77)" d="M4,0A4,4 0 1,1 0,-4A4,4 0 0,1 4,0Z" style="opacity: 1; stroke: rgb(99, 110, 250); stroke-opacity: 1; stroke-width: 1px; fill: none;"/><path class="point" transform="translate(94.61,175.59)" d="M4,0A4,4 0 1,1 0,-4A4,4 0 0,1 4,0Z" style="opacity: 1; stroke: rgb(99, 110, 250); stroke-opacity: 1; stroke-width: 1px; fill: none;"/><path class="point" transform="translate(94.71,174.01)" d="M4,0A4,4 0 1,1 0,-4A4,4 0 0,1 4,0Z" style="opacity: 1; stroke: rgb(99, 110, 250); stroke-opacity: 1; stroke-width: 1px; fill: none;"/><path class="point" transform="translate(97.76,172.46)" d="M4,0A4,4 0 1,1 0,-4A4,4 0 0,1 4,0Z" style="opacity: 1; stroke: rgb(99, 110, 250); stroke-opacity: 1; stroke-width: 1px; fill: none;"/><path class="point" transform="translate(101.03,171.02)" d="M4,0A4,4 0 1,1 0,-4A4,4 0 0,1 4,0Z" style="opacity: 1; stroke: rgb(99, 110, 250); stroke-opacity: 1; stroke-width: 1px; fill: none;"/><path class="point" transform="translate(115.94,156.88)" d="M4,0A4,4 0 1,1 0,-4A4,4 0 0,1 4,0Z" style="opacity: 1; stroke: rgb(99, 110, 250); stroke-opacity: 1; stroke-width: 1px; fill: none;"/><path class="point" transform="translate(118.55,154.2)" d="M4,0A4,4 0 1,1 0,-4A4,4 0 0,1 4,0Z" style="opacity: 1; stroke: rgb(99, 110, 250); stroke-opacity: 1; stroke-width: 1px; fill: none;"/><path class="point" transform="translate(121.28,148.33)" d="M4,0A4,4 0 1,1 0,-4A4,4 0 0,1 4,0Z" style="opacity: 1; stroke: rgb(99, 110, 250); stroke-opacity: 1; stroke-width: 1px; fill: none;"/><path class="point" transform="translate(191.38,86.8)" d="M4,0A4,4 0 1,1 0,-4A4,4 0 0,1 4,0Z" style="opacity: 1; stroke: rgb(99, 110, 250); stroke-opacity: 1; stroke-width: 1px; fill: none;"/><path class="point" transform="translate(235.91,40.93)" d="M4,0A4,4 0 1,1 0,-4A4,4 0 0,1 4,0Z" style="opacity: 1; stroke: rgb(99, 110, 250); stroke-opacity: 1; stroke-width: 1px; fill: none;"/><path class="point" transform="translate(252.02,25.38)" d="M4,0A4,4 0 1,1 0,-4A4,4 0 0,1 4,0Z" style="opacity: 1; stroke: rgb(99, 110, 250); stroke-opacity: 1; stroke-width: 1px; fill: none;"/></g><g class="text"/></g></g></g></g><g class="zerolinelayer-above"/><path class="xlines-above crisp" d="M0,0" style="fill: none;"/><path class="ylines-above crisp" d="M0,0" style="fill: none;"/><g class="overlines-above"/><g class="xaxislayer-above"><g class="xtick"><text text-anchor="middle" x="0" y="406.675" transform="translate(64.9,0)" style="font-family: 'Open Sans', verdana, arial, sans-serif; font-size: 16px; fill: rgb(42, 63, 95); fill-opacity: 1; white-space: pre;">30</text></g><g class="xtick"><text text-anchor="middle" x="0" y="406.675" style="font-family: 'Open Sans', verdana, arial, sans-serif; font-size: 16px; fill: rgb(42, 63, 95); fill-opacity: 1; white-space: pre;" transform="translate(173.76,0)">40</text></g><g class="xtick"><text text-anchor="middle" x="0" y="406.675" style="font-family: 'Open Sans', verdana, arial, sans-serif; font-size: 16px; fill: rgb(42, 63, 95); fill-opacity: 1; white-space: pre;" transform="translate(282.62,0)">50</text></g></g><g class="yaxislayer-above"><g class="ytick"><text text-anchor="end" x="59" y="5.6" transform="translate(0,342.81)" style="font-family: 'Open Sans', verdana, arial, sans-serif; font-size: 16px; fill: rgb(42, 63, 95); fill-opacity: 1; white-space: pre;">35</text></g><g class="ytick"><text text-anchor="end" x="59" y="5.6" style="font-family: 'Open Sans', verdana, arial, sans-serif; font-size: 16px; fill: rgb(42, 63, 95); fill-opacity: 1; white-space: pre;" transform="translate(0,290.38)">40</text></g><g class="ytick"><text text-anchor="end" x="59" y="5.6" style="font-family: 'Open Sans', verdana, arial, sans-serif; font-size: 16px; fill: rgb(42, 63, 95); fill-opacity: 1; white-space: pre;" transform="translate(0,237.95999999999998)">45</text></g><g class="ytick"><text text-anchor="end" x="59" y="5.6" style="font-family: 'Open Sans', verdana, arial, sans-serif; font-size: 16px; fill: rgb(42, 63, 95); fill-opacity: 1; white-space: pre;" transform="translate(0,185.53)">50</text></g><g class="ytick"><text text-anchor="end" x="59" y="5.6" style="font-family: 'Open Sans', verdana, arial, sans-serif; font-size: 16px; fill: rgb(42, 63, 95); fill-opacity: 1; white-space: pre;" transform="translate(0,133.1)">55</text></g></g><g class="overaxes-above"/></g><g class="subplot x2y2"><g class="layer-subplot"><g class="shapelayer"/><g class="imagelayer"/></g><g class="minor-gridlayer"><g class="x2"/><g class="y2"/></g><g class="gridlayer"><g class="x2"><path class="x2grid crisp" transform="translate(82.26,0)" d="M0,481.325v259.675" style="stroke: rgb(235, 240, 248); stroke-opacity: 1; stroke-width: 1px;"/><path class="x2grid crisp" transform="translate(142.54000000000002,0)" d="M0,481.325v259.675" style="stroke: rgb(235, 240, 248); stroke-opacity: 1; stroke-width: 1px;"/><path class="x2grid crisp" transform="translate(202.83,0)" d="M0,481.325v259.675" style="stroke: rgb(235, 240, 248); stroke-opacity: 1; stroke-width: 1px;"/><path class="x2grid crisp" transform="translate(263.12,0)" d="M0,481.325v259.675" style="stroke: rgb(235, 240, 248); stroke-opacity: 1; stroke-width: 1px;"/><path class="x2grid crisp" transform="translate(323.41,0)" d="M0,481.325v259.675" style="stroke: rgb(235, 240, 248); stroke-opacity: 1; stroke-width: 1px;"/></g><g class="y2"><path class="y2grid crisp" transform="translate(0,706.2149999999999)" d="M60,0h280" style="stroke: rgb(235, 240, 248); stroke-opacity: 1; stroke-width: 1px;"/><path class="y2grid crisp" transform="translate(0,656.345)" d="M60,0h280" style="stroke: rgb(235, 240, 248); stroke-opacity: 1; stroke-width: 1px;"/><path class="y2grid crisp" transform="translate(0,606.475)" d="M60,0h280" style="stroke: rgb(235, 240, 248); stroke-opacity: 1; stroke-width: 1px;"/><path class="y2grid crisp" transform="translate(0,556.605)" d="M60,0h280" style="stroke: rgb(235, 240, 248); stroke-opacity: 1; stroke-width: 1px;"/><path class="y2grid crisp" transform="translate(0,506.735)" d="M60,0h280" style="stroke: rgb(235, 240, 248); stroke-opacity: 1; stroke-width: 1px;"/></g></g><g class="zerolinelayer"/><g class="layer-between"><g class="shapelayer"/><g class="imagelayer"/></g><path class="xlines-below"/><path class="ylines-below"/><g class="overlines-below"/><g class="xaxislayer-below"/><g class="yaxislayer-below"/><g class="overaxes-below"/><g class="overplot"><g class="x2y2" transform="translate(60,481.325)" clip-path="url(#clipa9fb03x2y2plot)"><g class="scatterlayer mlayer"><g class="trace scatter trace9ded0e" style="stroke-miterlimit: 2;"><g class="fills"><g><path class="js-fill" d="M19,229.61L261,30.44L261,24.37L19,225.55Z" style="fill: rgb(254, 203, 82); fill-opacity: 0.4; stroke-width: 0;"/></g></g><g class="errorbars"/><g class="lines"><path class="js-line" d="M19,225.55L261,24.37" style="vector-effect: none; fill: none; stroke: rgb(254, 203, 82); stroke-opacity: 1; stroke-width: 0.1px; opacity: 1;"/></g><g class="points"/><g class="text"/></g><g class="trace scatter tracea40d29" style="stroke-miterlimit: 2;"><g class="fills"/><g class="errorbars"/><g class="lines"><path class="js-line" d="M19,229.61L261,30.44" style="vector-effect: none; fill: none; stroke: rgb(254, 203, 82); stroke-opacity: 1; stroke-width: 0.1px; opacity: 1;"/></g><g class="points"/><g class="text"/></g><g class="trace scatter trace5ae615" style="stroke-miterlimit: 2; opacity: 1;"><g class="fills"/><g class="errorbars"/><g class="lines"/><g class="points"><path class="point" transform="translate(21.05,213.22)" d="M3,0A3,3 0 1,1 0,-3A3,3 0 0,1 3,0Z" style="opacity: 1; stroke-width: 0px; fill: rgb(182, 182, 182); fill-opacity: 0.3;"/><path class="point" transform="translate(19.12,213.82)" d="M3,0A3,3 0 1,1 0,-3A3,3 0 0,1 3,0Z" style="opacity: 1; stroke-width: 0px; fill: rgb(182, 182, 182); fill-opacity: 0.3;"/><path class="point" transform="translate(22.74,211.82)" d="M3,0A3,3 0 1,1 0,-3A3,3 0 0,1 3,0Z" style="opacity: 1; stroke-width: 0px; fill: rgb(182, 182, 182); fill-opacity: 0.3;"/><path class="point" transform="translate(256.42,26.41)" d="M3,0A3,3 0 1,1 0,-3A3,3 0 0,1 3,0Z" style="opacity: 1; stroke-width: 0px; fill: rgb(182, 182, 182); fill-opacity: 0.3;"/><path class="point" transform="translate(241.83,23.42)" d="M3,0A3,3 0 1,1 0,-3A3,3 0 0,1 3,0Z" style="opacity: 1; stroke-width: 0px; fill: rgb(182, 182, 182); fill-opacity: 0.3;"/><path class="point" transform="translate(240.86,18.43)" d="M3,0A3,3 0 1,1 0,-3A3,3 0 0,1 3,0Z" style="opacity: 1; stroke-width: 0px; fill: rgb(182, 182, 182); fill-opacity: 0.3;"/><path class="point" transform="translate(254.25,16.73)" d="M3,0A3,3 0 1,1 0,-3A3,3 0 0,1 3,0Z" style="opacity: 1; stroke-width: 0px; fill: rgb(182, 182, 182); fill-opacity: 0.3;"/><path class="point" transform="translate(19.36,215.41)" d="M3,0A3,3 0 1,1 0,-3A3,3 0 0,1 3,0Z" style="opacity: 1; stroke-width: 0px; fill: rgb(182, 182, 182); fill-opacity: 0.3;"/><path class="point" transform="translate(127.88,130.04)" d="M3,0A3,3 0 1,1 0,-3A3,3 0 0,1 3,0Z" style="opacity: 1; stroke-width: 0px; fill: rgb(182, 182, 182); fill-opacity: 0.3;"/><path class="point" transform="translate(117.15,138.91)" d="M3,0A3,3 0 1,1 0,-3A3,3 0 0,1 3,0Z" style="opacity: 1; stroke-width: 0px; fill: rgb(182, 182, 182); fill-opacity: 0.3;"/><path class="point" transform="translate(120.65,138.21)" d="M3,0A3,3 0 1,1 0,-3A3,3 0 0,1 3,0Z" style="opacity: 1; stroke-width: 0px; fill: rgb(182, 182, 182); fill-opacity: 0.3;"/><path class="point" transform="translate(136.68,123.55)" d="M3,0A3,3 0 1,1 0,-3A3,3 0 0,1 3,0Z" style="opacity: 1; stroke-width: 0px; fill: rgb(182, 182, 182); fill-opacity: 0.3;"/><path class="point" transform="translate(121.49,134.72)" d="M3,0A3,3 0 1,1 0,-3A3,3 0 0,1 3,0Z" style="opacity: 1; stroke-width: 0px; fill: rgb(182, 182, 182); fill-opacity: 0.3;"/><path class="point" transform="translate(129.69,131.33)" d="M3,0A3,3 0 1,1 0,-3A3,3 0 0,1 3,0Z" style="opacity: 1; stroke-width: 0px; fill: rgb(182, 182, 182); fill-opacity: 0.3;"/><path class="point" transform="translate(129.69,131.23)" d="M3,0A3,3 0 1,1 0,-3A3,3 0 0,1 3,0Z" style="opacity: 1; stroke-width: 0px; fill: rgb(182, 182, 182); fill-opacity: 0.3;"/></g><g class="text"/></g><g class="trace scatter trace09bb56" style="stroke-miterlimit: 2; opacity: 1;"><g class="fills"/><g class="errorbars"/><g class="lines"><path class="js-line" d="M19,227.58L261,27.41" style="vector-effect: none; fill: none; stroke: rgb(51, 51, 51); stroke-opacity: 1; stroke-width: 2px; opacity: 1;"/></g><g class="points"/><g class="text"/></g><g class="trace scatter trace82bcf5" style="stroke-miterlimit: 2; opacity: 1;"><g class="fills"/><g class="errorbars"/><g class="lines"/><g class="points"><path class="point" transform="translate(19,239.42)" d="M4,0A4,4 0 1,1 0,-4A4,4 0 0,1 4,0Z" style="opacity: 1; stroke: rgb(99, 110, 250); stroke-opacity: 1; stroke-width: 1px; fill: none;"/><path class="point" transform="translate(22.01,241.69)" d="M4,0A4,4 0 1,1 0,-4A4,4 0 0,1 4,0Z" style="opacity: 1; stroke: rgb(99, 110, 250); stroke-opacity: 1; stroke-width: 1px; fill: none;"/><path class="point" transform="translate(100.51,197.82)" d="M4,0A4,4 0 1,1 0,-4A4,4 0 0,1 4,0Z" style="opacity: 1; stroke: rgb(99, 110, 250); stroke-opacity: 1; stroke-width: 1px; fill: none;"/><path class="point" transform="translate(101.72,182.06)" d="M4,0A4,4 0 1,1 0,-4A4,4 0 0,1 4,0Z" style="opacity: 1; stroke: rgb(99, 110, 250); stroke-opacity: 1; stroke-width: 1px; fill: none;"/><path class="point" transform="translate(102.68,179.71)" d="M4,0A4,4 0 1,1 0,-4A4,4 0 0,1 4,0Z" style="opacity: 1; stroke: rgb(99, 110, 250); stroke-opacity: 1; stroke-width: 1px; fill: none;"/><path class="point" transform="translate(103.16,185.61)" d="M4,0A4,4 0 1,1 0,-4A4,4 0 0,1 4,0Z" style="opacity: 1; stroke: rgb(99, 110, 250); stroke-opacity: 1; stroke-width: 1px; fill: none;"/><path class="point" transform="translate(103.16,183.8)" d="M4,0A4,4 0 1,1 0,-4A4,4 0 0,1 4,0Z" style="opacity: 1; stroke: rgb(99, 110, 250); stroke-opacity: 1; stroke-width: 1px; fill: none;"/><path class="point" transform="translate(105.7,178.11)" d="M4,0A4,4 0 1,1 0,-4A4,4 0 0,1 4,0Z" style="opacity: 1; stroke: rgb(99, 110, 250); stroke-opacity: 1; stroke-width: 1px; fill: none;"/><path class="point" transform="translate(106.54,177.26)" d="M4,0A4,4 0 1,1 0,-4A4,4 0 0,1 4,0Z" style="opacity: 1; stroke: rgb(99, 110, 250); stroke-opacity: 1; stroke-width: 1px; fill: none;"/><path class="point" transform="translate(115.7,161.48)" d="M4,0A4,4 0 1,1 0,-4A4,4 0 0,1 4,0Z" style="opacity: 1; stroke: rgb(99, 110, 250); stroke-opacity: 1; stroke-width: 1px; fill: none;"/><path class="point" transform="translate(117.27,162.16)" d="M4,0A4,4 0 1,1 0,-4A4,4 0 0,1 4,0Z" style="opacity: 1; stroke: rgb(99, 110, 250); stroke-opacity: 1; stroke-width: 1px; fill: none;"/><path class="point" transform="translate(121.73,151.62)" d="M4,0A4,4 0 1,1 0,-4A4,4 0 0,1 4,0Z" style="opacity: 1; stroke: rgb(99, 110, 250); stroke-opacity: 1; stroke-width: 1px; fill: none;"/><path class="point" transform="translate(172.86,99.55)" d="M4,0A4,4 0 1,1 0,-4A4,4 0 0,1 4,0Z" style="opacity: 1; stroke: rgb(99, 110, 250); stroke-opacity: 1; stroke-width: 1px; fill: none;"/><path class="point" transform="translate(247.98,56.05)" d="M4,0A4,4 0 1,1 0,-4A4,4 0 0,1 4,0Z" style="opacity: 1; stroke: rgb(99, 110, 250); stroke-opacity: 1; stroke-width: 1px; fill: none;"/><path class="point" transform="translate(261,39.72)" d="M4,0A4,4 0 1,1 0,-4A4,4 0 0,1 4,0Z" style="opacity: 1; stroke: rgb(99, 110, 250); stroke-opacity: 1; stroke-width: 1px; fill: none;"/></g><g class="text"/></g></g></g></g><g class="zerolinelayer-above"/><path class="xlines-above crisp" d="M0,0" style="fill: none;"/><path class="ylines-above crisp" d="M0,0" style="fill: none;"/><g class="overlines-above"/><g class="xaxislayer-above"><g class="x2tick"><text text-anchor="middle" x="0" y="758" transform="translate(82.26,0)" style="font-family: 'Open Sans', verdana, arial, sans-serif; font-size: 16px; fill: rgb(42, 63, 95); fill-opacity: 1; white-space: pre;">35</text></g><g class="x2tick"><text text-anchor="middle" x="0" y="758" style="font-family: 'Open Sans', verdana, arial, sans-serif; font-size: 16px; fill: rgb(42, 63, 95); fill-opacity: 1; white-space: pre;" transform="translate(142.54000000000002,0)">40</text></g><g class="x2tick"><text text-anchor="middle" x="0" y="758" style="font-family: 'Open Sans', verdana, arial, sans-serif; font-size: 16px; fill: rgb(42, 63, 95); fill-opacity: 1; white-space: pre;" transform="translate(202.83,0)">45</text></g><g class="x2tick"><text text-anchor="middle" x="0" y="758" style="font-family: 'Open Sans', verdana, arial, sans-serif; font-size: 16px; fill: rgb(42, 63, 95); fill-opacity: 1; white-space: pre;" transform="translate(263.12,0)">50</text></g><g class="x2tick"><text text-anchor="middle" x="0" y="758" style="font-family: 'Open Sans', verdana, arial, sans-serif; font-size: 16px; fill: rgb(42, 63, 95); fill-opacity: 1; white-space: pre;" transform="translate(323.41,0)">55</text></g></g><g class="yaxislayer-above"><g class="y2tick"><text text-anchor="end" x="59" y="5.6" transform="translate(0,706.2149999999999)" style="font-family: 'Open Sans', verdana, arial, sans-serif; font-size: 16px; fill: rgb(42, 63, 95); fill-opacity: 1; white-space: pre;">35</text></g><g class="y2tick"><text text-anchor="end" x="59" y="5.6" style="font-family: 'Open Sans', verdana, arial, sans-serif; font-size: 16px; fill: rgb(42, 63, 95); fill-opacity: 1; white-space: pre;" transform="translate(0,656.345)">40</text></g><g class="y2tick"><text text-anchor="end" x="59" y="5.6" style="font-family: 'Open Sans', verdana, arial, sans-serif; font-size: 16px; fill: rgb(42, 63, 95); fill-opacity: 1; white-space: pre;" transform="translate(0,606.475)">45</text></g><g class="y2tick"><text text-anchor="end" x="59" y="5.6" style="font-family: 'Open Sans', verdana, arial, sans-serif; font-size: 16px; fill: rgb(42, 63, 95); fill-opacity: 1; white-space: pre;" transform="translate(0,556.605)">50</text></g><g class="y2tick"><text text-anchor="end" x="59" y="5.6" style="font-family: 'Open Sans', verdana, arial, sans-serif; font-size: 16px; fill: rgb(42, 63, 95); fill-opacity: 1; white-space: pre;" transform="translate(0,506.735)">55</text></g></g><g class="overaxes-above"/></g></g><g class="polarlayer"/><g class="smithlayer"/><g class="ternarylayer"/><g class="geolayer"/><g class="funnelarealayer"/><g class="pielayer"/><g class="iciclelayer"/><g class="treemaplayer"/><g class="sunburstlayer"/><g class="glimages"/><defs id="topdefs-a9fb03"><g class="clips"/><clipPath id="legenda9fb03"><rect width="229" height="58" x="0" y="0"/></clipPath></defs><g class="layer-above"><g class="imagelayer"/><g class="shapelayer"/></g><g class="infolayer"><g class="legend" pointer-events="all" transform="translate(85.5,35.339999999999975)"><rect class="bg" shape-rendering="crispEdges" style="stroke: rgb(68, 68, 68); stroke-opacity: 1; fill: rgb(255, 255, 255); fill-opacity: 1; stroke-width: 0px;" width="229" height="58" x="0" y="0"/><g class="scrollbox" transform="" clip-path="url(#legenda9fb03)"><g class="groups" transform=""><g class="traces" transform="translate(0,14.5)" style="opacity: 1;"><text class="legendtext" text-anchor="start" x="40" y="4.680000000000001" style="font-family: 'Open Sans', verdana, arial, sans-serif; font-size: 12px; fill: rgb(42, 63, 95); fill-opacity: 1; white-space: pre;">Sensor uncertainty</text><g class="layers"><g class="legendfill"><path class="js-fill" d="M5,-2h30v6h-30z" style="stroke-width: 0; fill: rgb(254, 203, 82); fill-opacity: 0.4;"/></g><g class="legendlines"><path class="js-line" d="M5,-2h30" style="fill: none; stroke: rgb(254, 203, 82); stroke-opacity: 1; stroke-width: 0.1px;"/></g><g class="legendsymbols"><g class="legendpoints"/></g></g><rect class="legendtoggle" x="0" y="-9.5" width="156.390625" height="19" style="fill: rgb(0, 0, 0); fill-opacity: 0;"/></g></g><g class="groups" transform="translate(158.890625,0)"><g class="traces" transform="translate(0,14.5)" style="opacity: 1;"><text class="legendtext" text-anchor="start" x="40" y="4.680000000000001" style="font-family: 'Open Sans', verdana, arial, sans-serif; font-size: 12px; fill: rgb(42, 63, 95); fill-opacity: 1; white-space: pre;">Cal.</text><g class="layers" style="opacity: 1;"><g class="legendfill"/><g class="legendlines"/><g class="legendsymbols"><g class="legendpoints"><path class="scatterpts" transform="translate(20,0)" d="M3,0A3,3 0 1,1 0,-3A3,3 0 0,1 3,0Z" style="opacity: 1; stroke-width: 0px; fill: rgb(182, 182, 182); fill-opacity: 0.3;"/></g></g></g><rect class="legendtoggle" x="0" y="-9.5" width="65.390625" height="19" style="fill: rgb(0, 0, 0); fill-opacity: 0;"/></g></g><g class="groups" transform="translate(0,29)"><g class="traces" transform="translate(0,14.5)" style="opacity: 1;"><text class="legendtext" text-anchor="start" x="40" y="4.680000000000001" style="font-family: 'Open Sans', verdana, arial, sans-serif; font-size: 12px; fill: rgb(42, 63, 95); fill-opacity: 1; white-space: pre;">Perfect fit</text><g class="layers" style="opacity: 1;"><g class="legendfill"/><g class="legendlines"><path class="js-line" d="M5,0h30" style="fill: none; stroke: rgb(51, 51, 51); stroke-opacity: 1; stroke-width: 2px;"/></g><g class="legendsymbols"><g class="legendpoints"/></g></g><rect class="legendtoggle" x="0" y="-9.5" width="100.908203125" height="19" style="fill: rgb(0, 0, 0); fill-opacity: 0;"/></g></g><g class="groups" transform="translate(103.408203125,29)"><g class="traces" transform="translate(0,14.5)" style="opacity: 1;"><text class="legendtext" text-anchor="start" x="40" y="4.680000000000001" style="font-family: 'Open Sans', verdana, arial, sans-serif; font-size: 12px; fill: rgb(42, 63, 95); fill-opacity: 1; white-space: pre;">Model results</text><g class="layers" style="opacity: 1;"><g class="legendfill"/><g class="legendlines"/><g class="legendsymbols"><g class="legendpoints"><path class="scatterpts" transform="translate(20,0)" d="M4,0A4,4 0 1,1 0,-4A4,4 0 0,1 4,0Z" style="opacity: 1; stroke: rgb(99, 110, 250); stroke-opacity: 1; stroke-width: 1px; fill: none;"/></g></g></g><rect class="legendtoggle" x="0" y="-9.5" width="122.546875" height="19" style="fill: rgb(0, 0, 0); fill-opacity: 0;"/></g></g></g><rect class="scrollbar" rx="20" ry="3" width="0" height="0" style="fill: rgb(128, 139, 164); fill-opacity: 1;" x="0" y="0"/></g><g class="g-gtitle"><text class="gtitle" x="17.5" y="8" text-anchor="start" dy="0.7em" style="opacity: 1; font-family: 'Open Sans', verdana, arial, sans-serif; font-size: 22px; fill: rgb(42, 63, 95); fill-opacity: 1; white-space: pre;"><tspan style="font-weight:bold">Condenser</tspan> model validation</text></g><g class="g-xtitle"><text class="xtitle" x="200" y="438.4748046875" text-anchor="middle" style="opacity: 1; font-family: 'Open Sans', verdana, arial, sans-serif; font-size: 19px; fill: rgb(42, 63, 95); fill-opacity: 1; white-space: pre;">Experimental values [℃]</text></g><g class="g-x2title"><text class="x2title" x="200" y="789.8" text-anchor="middle" style="opacity: 1; font-family: 'Open Sans', verdana, arial, sans-serif; font-size: 19px; fill: rgb(42, 63, 95); fill-opacity: 1; white-space: pre;">Experimental values [℃]</text></g><g class="g-ytitle" transform="translate(0.509765625,0)"><text class="ytitle" transform="rotate(-90,17.490625,259.8375)" x="17.490625" y="259.8375" text-anchor="middle" style="opacity: 1; font-family: 'Open Sans', verdana, arial, sans-serif; font-size: 19px; fill: rgb(42, 63, 95); fill-opacity: 1; white-space: pre;">Predicted values [℃]</text></g><g class="g-y2title" transform="translate(0.509765625,0)"><text class="y2title" transform="rotate(-90,17.490625,611.1625)" x="17.490625" y="611.1625" text-anchor="middle" style="opacity: 1; font-family: 'Open Sans', verdana, arial, sans-serif; font-size: 19px; fill: rgb(42, 63, 95); fill-opacity: 1; white-space: pre;">Predicted values [℃]</text></g><g class="annotation" data-index="0" style="opacity: 1;"><g class="annotation-text-g" transform="rotate(0,200,117.49999999999999)"><g class="cursor-pointer" transform="translate(57,105)"><rect class="bg" x="0.5" y="0.5" width="286" height="24" style="stroke-width: 1px; stroke: rgb(0, 0, 0); stroke-opacity: 0; fill: rgb(0, 0, 0); fill-opacity: 0;"/><text class="annotation-text" text-anchor="middle" x="143.640625" y="17" style="font-family: 'Open Sans', verdana, arial, sans-serif; font-size: 16px; fill: rgb(42, 63, 95); fill-opacity: 1; white-space: pre;"><tspan style="font-weight:bold">T​<tspan style="font-size:70%" dy="0.3em">c,out</tspan><tspan dy="-0.21em">​</tspan></tspan> | R²=0.99 [-] | MAE=0.23 [℃]</text></g></g></g><g class="annotation" data-index="1" style="opacity: 1;"><g class="annotation-text-g" transform="rotate(0,200,468.825)"><g class="cursor-pointer" transform="translate(57,456)"><rect class="bg" x="0.5" y="0.5" width="285" height="24" style="stroke-width: 1px; stroke: rgb(0, 0, 0); stroke-opacity: 0; fill: rgb(0, 0, 0); fill-opacity: 0;"/><text class="annotation-text" text-anchor="middle" x="142.84375" y="17" style="font-family: 'Open Sans', verdana, arial, sans-serif; font-size: 16px; fill: rgb(42, 63, 95); fill-opacity: 1; white-space: pre;"><tspan style="font-weight:bold">T​<tspan style="font-size:70%" dy="0.3em">cond</tspan><tspan dy="-0.21em">​</tspan></tspan> | R²=0.85 [-] | MAE=1.86 [℃]</text></g></g></g></g></svg>