<svg class="main-svg" xmlns="http://www.w3.org/2000/svg" xmlns:xlink="http://www.w3.org/1999/xlink" width="960" height="750" style="" viewBox="0 0 480 375"><rect x="0" y="0" width="480" height="375" style="fill: rgb(255, 255, 255); fill-opacity: 1;"/><defs id="defs-ddeba0"><g class="clips"><clipPath id="clipddeba0xyplot" class="plotclip"><rect width="410" height="216"/></clipPath><clipPath class="axesclip" id="clipddeba0x"><rect x="60" y="0" width="410" height="375"/></clipPath><clipPath class="axesclip" id="clipddeba0y"><rect x="0" y="100" width="480" height="216"/></clipPath><clipPath class="axesclip" id="clipddeba0xy"><rect x="60" y="100" width="410" height="216"/></clipPath></g><g class="gradients"/><g class="patterns"/></defs><g class="bglayer"/><g class="layer-below"><g class="imagelayer"/><g class="shapelayer"/></g><g class="cartesianlayer"><g class="subplot xy"><g class="layer-subplot"><g class="shapelayer"/><g class="imagelayer"/></g><g class="minor-gridlayer"><g class="x"/><g class="y"/></g><g class="gridlayer"><g class="x"><path class="xgrid crisp" transform="translate(119.39,0)" d="M0,100v216" style="stroke: rgb(235, 240, 248); stroke-opacity: 1; stroke-width: 1px;"/><path class="xgrid crisp" transform="translate(195.97,0)" d="M0,100v216" style="stroke: rgb(235, 240, 248); stroke-opacity: 1; stroke-width: 1px;"/><path class="xgrid crisp" transform="translate(272.56,0)" d="M0,100v216" style="stroke: rgb(235, 240, 248); stroke-opacity: 1; stroke-width: 1px;"/><path class="xgrid crisp" transform="translate(349.14,0)" d="M0,100v216" style="stroke: rgb(235, 240, 248); stroke-opacity: 1; stroke-width: 1px;"/><path class="xgrid crisp" transform="translate(425.73,0)" d="M0,100v216" style="stroke: rgb(235, 240, 248); stroke-opacity: 1; stroke-width: 1px;"/></g><g class="y"><path class="ygrid crisp" transform="translate(0,286.8)" d="M60,0h410" style="stroke: rgb(235, 240, 248); stroke-opacity: 1; stroke-width: 1px;"/><path class="ygrid crisp" transform="translate(0,251.82)" d="M60,0h410" style="stroke: rgb(235, 240, 248); stroke-opacity: 1; stroke-width: 1px;"/><path class="ygrid crisp" transform="translate(0,216.84)" d="M60,0h410" style="stroke: rgb(235, 240, 248); stroke-opacity: 1; stroke-width: 1px;"/><path class="ygrid crisp" transform="translate(0,181.87)" d="M60,0h410" style="stroke: rgb(235, 240, 248); stroke-opacity: 1; stroke-width: 1px;"/><path class="ygrid crisp" transform="translate(0,146.89)" d="M60,0h410" style="stroke: rgb(235, 240, 248); stroke-opacity: 1; stroke-width: 1px;"/><path class="ygrid crisp" transform="translate(0,111.91)" d="M60,0h410" style="stroke: rgb(235, 240, 248); stroke-opacity: 1; stroke-width: 1px;"/></g></g><g class="zerolinelayer"/><g class="layer-between"><g class="shapelayer"/><g class="imagelayer"/></g><path class="xlines-below"/><path class="ylines-below"/><g class="overlines-below"/><g class="xaxislayer-below"/><g class="yaxislayer-below"/><g class="overaxes-below"/><g class="overplot"><g class="xy" transform="translate(60,100)" clip-path="url(#clipddeba0xyplot)"><g class="scatterlayer mlayer"><g class="trace scatter trace035165" style="stroke-miterlimit: 2;"><g class="fills"><g><path class="js-fill" d="M25.5,202.27L384.5,38.32L384.5,38.32L25.5,202.27Z" style="fill: rgb(254, 203, 82); fill-opacity: 0.4; stroke-width: 0;"/></g></g><g class="errorbars"/><g class="lines"><path class="js-line" d="M25.5,202.27L384.5,38.32" style="vector-effect: none; fill: none; stroke: rgb(254, 203, 82); stroke-opacity: 1; stroke-width: 0.1px; opacity: 1;"/></g><g class="points"/><g class="text"/></g><g class="trace scatter trace94e5b1" style="stroke-miterlimit: 2;"><g class="fills"/><g class="errorbars"/><g class="lines"><path class="js-line" d="M25.5,202.27L384.5,38.32" style="vector-effect: none; fill: none; stroke: rgb(254, 203, 82); stroke-opacity: 1; stroke-width: 0.1px; opacity: 1;"/></g><g class="points"/><g class="text"/></g><g class="trace scatter tracee30c1f" style="stroke-miterlimit: 2; opacity: 1;"><g class="fills"/><g class="errorbars"/><g class="lines"><path class="js-line" d="M25.5,201.3L384.5,29.15" style="vector-effect: none; fill: none; stroke: rgb(182, 182, 182); stroke-opacity: 1; stroke-dasharray: 9px, 9px; stroke-width: 1px; opacity: 1;"/></g><g class="points"/><g class="text"><g class="textpoint" transform="translate(0,-2.5)"><text x="384.5" y="29.15" text-anchor="middle" style="font-family: 'Open Sans', verdana, arial, sans-serif; font-size: 10px; fill: rgb(182, 182, 182); fill-opacity: 1; white-space: pre;">5%</text></g></g></g><g class="trace scatter trace075283" style="stroke-miterlimit: 2; opacity: 1;"><g class="fills"/><g class="errorbars"/><g class="lines"><path class="js-line" d="M25.5,203.25L384.5,47.49" style="vector-effect: none; fill: none; stroke: rgb(182, 182, 182); stroke-opacity: 1; stroke-dasharray: 9px, 9px; stroke-width: 1px; opacity: 1;"/></g><g class="points"/><g class="text"/></g><g class="trace scatter trace28f960" style="stroke-miterlimit: 2; opacity: 1;"><g class="fills"/><g class="errorbars"/><g class="lines"><path class="js-line" d="M25.5,199.35L384.5,10.8" style="vector-effect: none; fill: none; stroke: rgb(182, 182, 182); stroke-opacity: 1; stroke-dasharray: 9px, 9px; stroke-width: 1px; opacity: 1;"/></g><g class="points"/><g class="text"><g class="textpoint" transform="translate(0,-2.5)"><text x="384.5" y="10.8" text-anchor="middle" style="font-family: 'Open Sans', verdana, arial, sans-serif; font-size: 10px; fill: rgb(182, 182, 182); fill-opacity: 1; white-space: pre;">15%</text></g></g></g><g class="trace scatter trace62f577" style="stroke-miterlimit: 2; opacity: 1;"><g class="fills"/><g class="errorbars"/><g class="lines"><path class="js-line" d="M25.5,205.2L384.5,65.84" style="vector-effect: none; fill: none; stroke: rgb(182, 182, 182); stroke-opacity: 1; stroke-dasharray: 9px, 9px; stroke-width: 1px; opacity: 1;"/></g><g class="points"/><g class="text"/></g><g class="trace scatter traced27289" style="stroke-miterlimit: 2; opacity: 1;"><g class="fills"/><g class="errorbars"/><g class="lines"><path class="js-line" d="M25.5,202.27L384.5,38.32" style="vector-effect: none; fill: none; stroke: rgb(51, 51, 51); stroke-opacity: 1; stroke-width: 2px; opacity: 1;"/></g><g class="points"/><g class="text"/></g><g class="trace scatter trace206182" style="stroke-miterlimit: 2; opacity: 1;"><g class="fills"/><g class="errorbars"/><g class="lines"/><g class="points"><path class="point" transform="translate(25.5,199.94)" d="M4,0A4,4 0 1,1 0,-4A4,4 0 0,1 4,0Z" style="opacity: 1; stroke: rgb(99, 110, 250); stroke-opacity: 1; stroke-width: 1px; fill: none;"/><path class="point" transform="translate(42.87,199.72)" d="M4,0A4,4 0 1,1 0,-4A4,4 0 0,1 4,0Z" style="opacity: 1; stroke: rgb(99, 110, 250); stroke-opacity: 1; stroke-width: 1px; fill: none;"/><path class="point" transform="translate(43.8,200.04)" d="M4,0A4,4 0 1,1 0,-4A4,4 0 0,1 4,0Z" style="opacity: 1; stroke: rgb(99, 110, 250); stroke-opacity: 1; stroke-width: 1px; fill: none;"/><path class="point" transform="translate(46.42,190.19)" d="M4,0A4,4 0 1,1 0,-4A4,4 0 0,1 4,0Z" style="opacity: 1; stroke: rgb(99, 110, 250); stroke-opacity: 1; stroke-width: 1px; fill: none;"/><path class="point" transform="translate(50.81,193.8)" d="M4,0A4,4 0 1,1 0,-4A4,4 0 0,1 4,0Z" style="opacity: 1; stroke: rgb(99, 110, 250); stroke-opacity: 1; stroke-width: 1px; fill: none;"/><path class="point" transform="translate(51.19,199.74)" d="M4,0A4,4 0 1,1 0,-4A4,4 0 0,1 4,0Z" style="opacity: 1; stroke: rgb(99, 110, 250); stroke-opacity: 1; stroke-width: 1px; fill: none;"/><path class="point" transform="translate(70.41,178.87)" d="M4,0A4,4 0 1,1 0,-4A4,4 0 0,1 4,0Z" style="opacity: 1; stroke: rgb(99, 110, 250); stroke-opacity: 1; stroke-width: 1px; fill: none;"/><path class="point" transform="translate(78.65,176.02)" d="M4,0A4,4 0 1,1 0,-4A4,4 0 0,1 4,0Z" style="opacity: 1; stroke: rgb(99, 110, 250); stroke-opacity: 1; stroke-width: 1px; fill: none;"/><path class="point" transform="translate(83.83,170.34)" d="M4,0A4,4 0 1,1 0,-4A4,4 0 0,1 4,0Z" style="opacity: 1; stroke: rgb(99, 110, 250); stroke-opacity: 1; stroke-width: 1px; fill: none;"/><path class="point" transform="translate(116.8,169.95)" d="M4,0A4,4 0 1,1 0,-4A4,4 0 0,1 4,0Z" style="opacity: 1; stroke: rgb(99, 110, 250); stroke-opacity: 1; stroke-width: 1px; fill: none;"/><path class="point" transform="translate(122.32,143.21)" d="M4,0A4,4 0 1,1 0,-4A4,4 0 0,1 4,0Z" style="opacity: 1; stroke: rgb(99, 110, 250); stroke-opacity: 1; stroke-width: 1px; fill: none;"/><path class="point" transform="translate(129.72,148.12)" d="M4,0A4,4 0 1,1 0,-4A4,4 0 0,1 4,0Z" style="opacity: 1; stroke: rgb(99, 110, 250); stroke-opacity: 1; stroke-width: 1px; fill: none;"/><path class="point" transform="translate(131.16,169.25)" d="M4,0A4,4 0 1,1 0,-4A4,4 0 0,1 4,0Z" style="opacity: 1; stroke: rgb(99, 110, 250); stroke-opacity: 1; stroke-width: 1px; fill: none;"/><path class="point" transform="translate(135.55,138.96)" d="M4,0A4,4 0 1,1 0,-4A4,4 0 0,1 4,0Z" style="opacity: 1; stroke: rgb(99, 110, 250); stroke-opacity: 1; stroke-width: 1px; fill: none;"/><path class="point" transform="translate(154.33,135.93)" d="M4,0A4,4 0 1,1 0,-4A4,4 0 0,1 4,0Z" style="opacity: 1; stroke: rgb(99, 110, 250); stroke-opacity: 1; stroke-width: 1px; fill: none;"/><path class="point" transform="translate(172.1,137.97)" d="M4,0A4,4 0 1,1 0,-4A4,4 0 0,1 4,0Z" style="opacity: 1; stroke: rgb(99, 110, 250); stroke-opacity: 1; stroke-width: 1px; fill: none;"/><path class="point" transform="translate(176.84,117.3)" d="M4,0A4,4 0 1,1 0,-4A4,4 0 0,1 4,0Z" style="opacity: 1; stroke: rgb(99, 110, 250); stroke-opacity: 1; stroke-width: 1px; fill: none;"/><path class="point" transform="translate(182.59,143.74)" d="M4,0A4,4 0 1,1 0,-4A4,4 0 0,1 4,0Z" style="opacity: 1; stroke: rgb(99, 110, 250); stroke-opacity: 1; stroke-width: 1px; fill: none;"/><path class="point" transform="translate(228.48,106.09)" d="M4,0A4,4 0 1,1 0,-4A4,4 0 0,1 4,0Z" style="opacity: 1; stroke: rgb(99, 110, 250); stroke-opacity: 1; stroke-width: 1px; fill: none;"/><path class="point" transform="translate(288.08,54.54)" d="M4,0A4,4 0 1,1 0,-4A4,4 0 0,1 4,0Z" style="opacity: 1; stroke: rgb(99, 110, 250); stroke-opacity: 1; stroke-width: 1px; fill: none;"/><path class="point" transform="translate(333,64.49)" d="M4,0A4,4 0 1,1 0,-4A4,4 0 0,1 4,0Z" style="opacity: 1; stroke: rgb(99, 110, 250); stroke-opacity: 1; stroke-width: 1px; fill: none;"/><path class="point" transform="translate(370.2,78.24)" d="M4,0A4,4 0 1,1 0,-4A4,4 0 0,1 4,0Z" style="opacity: 1; stroke: rgb(99, 110, 250); stroke-opacity: 1; stroke-width: 1px; fill: none;"/><path class="point" transform="translate(384.5,52.5)" d="M4,0A4,4 0 1,1 0,-4A4,4 0 0,1 4,0Z" style="opacity: 1; stroke: rgb(99, 110, 250); stroke-opacity: 1; stroke-width: 1px; fill: none;"/></g><g class="text"/></g></g></g></g><path class="xlines-above crisp" d="M0,0" style="fill: none;"/><path class="ylines-above crisp" d="M0,0" style="fill: none;"/><g class="overlines-above"/><g class="xaxislayer-above"><g class="xtick"><text text-anchor="middle" x="0" y="333" transform="translate(119.39,0)" style="font-family: 'Open Sans', verdana, arial, sans-serif; font-size: 16px; fill: rgb(42, 63, 95); fill-opacity: 1; white-space: pre; opacity: 1;">2</text></g><g class="xtick"><text text-anchor="middle" x="0" y="333" style="font-family: 'Open Sans', verdana, arial, sans-serif; font-size: 16px; fill: rgb(42, 63, 95); fill-opacity: 1; white-space: pre; opacity: 1;" transform="translate(195.97,0)">4</text></g><g class="xtick"><text text-anchor="middle" x="0" y="333" style="font-family: 'Open Sans', verdana, arial, sans-serif; font-size: 16px; fill: rgb(42, 63, 95); fill-opacity: 1; white-space: pre; opacity: 1;" transform="translate(272.56,0)">6</text></g><g class="xtick"><text text-anchor="middle" x="0" y="333" style="font-family: 'Open Sans', verdana, arial, sans-serif; font-size: 16px; fill: rgb(42, 63, 95); fill-opacity: 1; white-space: pre; opacity: 1;" transform="translate(349.14,0)">8</text></g><g class="xtick"><text text-anchor="middle" x="0" y="333" style="font-family: 'Open Sans', verdana, arial, sans-serif; font-size: 16px; fill: rgb(42, 63, 95); fill-opacity: 1; white-space: pre; opacity: 1;" transform="translate(425.73,0)">10</text></g></g><g class="yaxislayer-above"><g class="ytick"><text text-anchor="end" x="59" y="5.6" transform="translate(0,286.8)" style="font-family: 'Open Sans', verdana, arial, sans-serif; font-size: 16px; fill: rgb(42, 63, 95); fill-opacity: 1; white-space: pre; opacity: 1;">2</text></g><g class="ytick"><text text-anchor="end" x="59" y="5.6" style="font-family: 'Open Sans', verdana, arial, sans-serif; font-size: 16px; fill: rgb(42, 63, 95); fill-opacity: 1; white-space: pre; opacity: 1;" transform="translate(0,251.82)">4</text></g><g class="ytick"><text text-anchor="end" x="59" y="5.6" style="font-family: 'Open Sans', verdana, arial, sans-serif; font-size: 16px; fill: rgb(42, 63, 95); fill-opacity: 1; white-space: pre; opacity: 1;" transform="translate(0,216.84)">6</text></g><g class="ytick"><text text-anchor="end" x="59" y="5.6" style="font-family: 'Open Sans', verdana, arial, sans-serif; font-size: 16px; fill: rgb(42, 63, 95); fill-opacity: 1; white-space: pre; opacity: 1;" transform="translate(0,181.87)">8</text></g><g class="ytick"><text text-anchor="end" x="59" y="5.6" style="font-family: 'Open Sans', verdana, arial, sans-serif; font-size: 16px; fill: rgb(42, 63, 95); fill-opacity: 1; white-space: pre; opacity: 1;" transform="translate(0,146.89)">10</text></g><g class="ytick"><text text-anchor="end" x="59" y="5.6" style="font-family: 'Open Sans', verdana, arial, sans-serif; font-size: 16px; fill: rgb(42, 63, 95); fill-opacity: 1; white-space: pre; opacity: 1;" transform="translate(0,111.91)">12</text></g></g><g class="overaxes-above"/></g></g><g class="polarlayer"/><g class="smithlayer"/><g class="ternarylayer"/><g class="geolayer"/><g class="funnelarealayer"/><g class="pielayer"/><g class="iciclelayer"/><g class="treemaplayer"/><g class="sunburstlayer"/><g class="glimages"/><defs id="topdefs-ddeba0"><g class="clips"/><clipPath id="legendddeba0"><rect width="293" height="29" x="0" y="0"/></clipPath></defs><g class="layer-above"><g class="imagelayer"/><g class="shapelayer"/></g><g class="infolayer"><g class="legend" pointer-events="all" transform="translate(118.5,38.60000000000002)"><rect class="bg" shape-rendering="crispEdges" width="293" height="29" x="0" y="0" style="stroke: rgb(68, 68, 68); stroke-opacity: 1; fill: rgb(255, 255, 255); fill-opacity: 1; stroke-width: 0px;"/><g class="scrollbox" transform="" clip-path="url(#legendddeba0)"><g class="groups" transform=""><g class="traces" transform="translate(0,14.5)" style="opacity: 1;"><text class="legendtext" text-anchor="start" x="40" y="4.680000000000001" style="font-family: 'Open Sans', verdana, arial, sans-serif; font-size: 12px; fill: rgb(42, 63, 95); fill-opacity: 1; white-space: pre;">Perfect fit</text><g class="layers" style="opacity: 1;"><g class="legendfill"/><g class="legendlines"><path class="js-line" d="M5,0h30" style="fill: none; stroke: rgb(51, 51, 51); stroke-opacity: 1; stroke-width: 2px;"/></g><g class="legendsymbols"><g class="legendpoints"/></g></g><rect class="legendtoggle" x="0" y="-9.5" width="100.921875" height="19" style="fill: rgb(0, 0, 0); fill-opacity: 0;"/></g></g><g class="groups" transform="translate(103.421875,0)"><g class="traces" transform="translate(0,14.5)" style="opacity: 1;"><text class="legendtext" text-anchor="start" x="40" y="4.680000000000001" style="font-family: 'Open Sans', verdana, arial, sans-serif; font-size: 12px; fill: rgb(42, 63, 95); fill-opacity: 1; white-space: pre;">Air side <tspan style="font-style:italic">Nusselt</tspan> number</text><g class="layers" style="opacity: 1;"><g class="legendfill"/><g class="legendlines"/><g class="legendsymbols"><g class="legendpoints"><path class="scatterpts" transform="translate(20,0)" d="M4,0A4,4 0 1,1 0,-4A4,4 0 0,1 4,0Z" style="opacity: 1; stroke: rgb(99, 110, 250); stroke-opacity: 1; stroke-width: 1px; fill: none;"/></g></g></g><rect class="legendtoggle" x="0" y="-9.5" width="186.421875" height="19" style="fill: rgb(0, 0, 0); fill-opacity: 0;"/></g></g></g><rect class="scrollbar" rx="20" ry="3" width="0" height="0" x="0" y="0" style="fill: rgb(128, 139, 164); fill-opacity: 1;"/></g><g class="g-gtitle"><text class="gtitle" x="24" y="7.5" text-anchor="start" dy="0.7em" style="opacity: 1; font-family: 'Open Sans', verdana, arial, sans-serif; font-size: 22px; fill: rgb(42, 63, 95); fill-opacity: 1; white-space: pre;"><tspan style=" fill:#83b366; font-weight:bold;">DC</tspan> <tspan style="font-style:italic">Nusselt</tspan> number validation</text></g><g class="g-xtitle"><text class="xtitle" x="265" y="364.8" text-anchor="middle" style="opacity: 1; font-family: 'Open Sans', verdana, arial, sans-serif; font-size: 19px; fill: rgb(42, 63, 95); fill-opacity: 1; white-space: pre;">Experimental values [-]</text></g><g class="g-ytitle" transform="translate(0.509765625,0)"><text class="ytitle" transform="rotate(-90,17.490625,208)" x="17.490625" y="208" text-anchor="middle" style="opacity: 1; font-family: 'Open Sans', verdana, arial, sans-serif; font-size: 19px; fill: rgb(42, 63, 95); fill-opacity: 1; white-space: pre;">Predicted values [-]</text></g><g class="annotation" data-index="0" style="opacity: 1;"><g class="annotation-text-g" transform="rotate(0,265,88.49999999999999)"><g class="cursor-pointer" transform="translate(78,77)"><rect class="bg" x="0.5" y="0.5" width="374" height="22" style="stroke-width: 1px; stroke: rgb(0, 0, 0); stroke-opacity: 0; fill: rgb(0, 0, 0); fill-opacity: 0;"/><text class="annotation-text" text-anchor="middle" x="187.65625" y="17" style="font-family: 'Open Sans', verdana, arial, sans-serif; font-size: 16px; fill: rgb(42, 63, 95); fill-opacity: 1; white-space: pre;"><tspan style="font-weight:bold"><tspan style="font-style:italic">Nusselt</tspan> number</tspan> | R²=0.93 [-] | MAE=0.54 [-]</text></g></g></g></g></svg>