<svg class="main-svg" xmlns="http://www.w3.org/2000/svg" xmlns:xlink="http://www.w3.org/1999/xlink" width="1040" height="1500" style="" viewBox="0 0 520 750"><rect x="0" y="0" width="520" height="750" style="fill: rgb(255, 255, 255); fill-opacity: 1;"/><defs id="defs-65ca74"><g class="clips"><clipPath id="clip65ca74xyplot" class="plotclip"><rect width="427" height="251.17500000000004"/></clipPath><clipPath id="clip65ca74x2y2plot" class="plotclip"><rect width="427" height="251.17499999999998"/></clipPath><clipPath class="axesclip" id="clip65ca74x"><rect x="70" y="0" width="427" height="750"/></clipPath><clipPath class="axesclip" id="clip65ca74y"><rect x="0" y="100" width="520" height="251.17500000000004"/></clipPath><clipPath class="axesclip" id="clip65ca74xy"><rect x="70" y="100" width="427" height="251.17500000000004"/></clipPath><clipPath class="axesclip" id="clip65ca74y2"><rect x="0" y="439.825" width="520" height="251.17499999999998"/></clipPath><clipPath class="axesclip" id="clip65ca74xy2"><rect x="70" y="439.825" width="427" height="251.17499999999998"/></clipPath><clipPath class="axesclip" id="clip65ca74x2"><rect x="70" y="0" width="427" height="750"/></clipPath><clipPath class="axesclip" id="clip65ca74x2y"><rect x="70" y="100" width="427" height="251.17500000000004"/></clipPath><clipPath class="axesclip" id="clip65ca74x2y2"><rect x="70" y="439.825" width="427" height="251.17499999999998"/></clipPath></g><g class="gradients"/><g class="patterns"/></defs><g class="bglayer"/><g class="layer-below"><g class="imagelayer"/><g class="shapelayer"/></g><g class="cartesianlayer"><g class="subplot xy"><g class="layer-subplot"><g class="shapelayer"/><g class="imagelayer"/></g><g class="minor-gridlayer"><g class="x"/><g class="y"/></g><g class="gridlayer"><g class="x"><path class="xgrid crisp" transform="translate(94.75,0)" d="M0,100v251.17500000000004" style="stroke: rgb(235, 240, 248); stroke-opacity: 1; stroke-width: 1px;"/><path class="xgrid crisp" transform="translate(201.69,0)" d="M0,100v251.17500000000004" style="stroke: rgb(235, 240, 248); stroke-opacity: 1; stroke-width: 1px;"/><path class="xgrid crisp" transform="translate(308.63,0)" d="M0,100v251.17500000000004" style="stroke: rgb(235, 240, 248); stroke-opacity: 1; stroke-width: 1px;"/><path class="xgrid crisp" transform="translate(415.57,0)" d="M0,100v251.17500000000004" style="stroke: rgb(235, 240, 248); stroke-opacity: 1; stroke-width: 1px;"/></g><g class="y"><path class="ygrid crisp" transform="translate(0,334.62)" d="M70,0h427" style="stroke: rgb(235, 240, 248); stroke-opacity: 1; stroke-width: 1px;"/><path class="ygrid crisp" transform="translate(0,273.15)" d="M70,0h427" style="stroke: rgb(235, 240, 248); stroke-opacity: 1; stroke-width: 1px;"/><path class="ygrid crisp" transform="translate(0,211.68)" d="M70,0h427" style="stroke: rgb(235, 240, 248); stroke-opacity: 1; stroke-width: 1px;"/><path class="ygrid crisp" transform="translate(0,150.21)" d="M70,0h427" style="stroke: rgb(235, 240, 248); stroke-opacity: 1; stroke-width: 1px;"/></g></g><g class="zerolinelayer"/><g class="layer-between"><g class="shapelayer"/><g class="imagelayer"/></g><path class="xlines-below"/><path class="ylines-below"/><g class="overlines-below"/><g class="xaxislayer-below"/><g class="yaxislayer-below"/><g class="overaxes-below"/><g class="overplot"><g class="xy" transform="translate(70,100)" clip-path="url(#clip65ca74xyplot)"><g class="scatterlayer mlayer"><g class="trace scatter trace5ebcaf" style="stroke-miterlimit: 2;"><g class="fills"><g><path class="js-fill" d="M26.35,238.62L400.65,24.55L400.65,12.56L26.35,228.77Z" style="fill: rgb(254, 203, 82); fill-opacity: 0.4; stroke-width: 0;"/></g></g><g class="errorbars"/><g class="lines"><path class="js-line" d="M26.35,228.77L400.65,12.56" style="vector-effect: none; fill: none; stroke: rgb(254, 203, 82); stroke-opacity: 1; stroke-width: 0.1px; opacity: 1;"/></g><g class="points"/><g class="text"/></g><g class="trace scatter traceff1e51" style="stroke-miterlimit: 2;"><g class="fills"/><g class="errorbars"/><g class="lines"><path class="js-line" d="M26.35,238.62L400.65,24.55" style="vector-effect: none; fill: none; stroke: rgb(254, 203, 82); stroke-opacity: 1; stroke-width: 0.1px; opacity: 1;"/></g><g class="points"/><g class="text"/></g><g class="trace scatter tracecb9ee2" style="stroke-miterlimit: 2; opacity: 1;"><g class="fills"/><g class="errorbars"/><g class="lines"><path class="js-line" d="M26.35,233.69L400.65,18.56" style="vector-effect: none; fill: none; stroke: rgb(51, 51, 51); stroke-opacity: 1; stroke-width: 2px; opacity: 1;"/></g><g class="points"/><g class="text"/></g><g class="trace scatter trace6b0411" style="stroke-miterlimit: 2; opacity: 1;"><g class="fills"/><g class="errorbars"/><g class="lines"/><g class="points"><path class="point" transform="translate(26.35,231.67)" d="M4,0A4,4 0 1,1 0,-4A4,4 0 0,1 4,0Z" style="opacity: 1; stroke: rgb(99, 110, 250); stroke-opacity: 1; stroke-width: 1px; fill: none;"/><path class="point" transform="translate(77.15,198.98)" d="M4,0A4,4 0 1,1 0,-4A4,4 0 0,1 4,0Z" style="opacity: 1; stroke: rgb(99, 110, 250); stroke-opacity: 1; stroke-width: 1px; fill: none;"/><path class="point" transform="translate(131.15,175.96)" d="M4,0A4,4 0 1,1 0,-4A4,4 0 0,1 4,0Z" style="opacity: 1; stroke: rgb(99, 110, 250); stroke-opacity: 1; stroke-width: 1px; fill: none;"/><path class="point" transform="translate(131.69,186.35)" d="M4,0A4,4 0 1,1 0,-4A4,4 0 0,1 4,0Z" style="opacity: 1; stroke: rgb(99, 110, 250); stroke-opacity: 1; stroke-width: 1px; fill: none;"/><path class="point" transform="translate(158.42,164.16)" d="M4,0A4,4 0 1,1 0,-4A4,4 0 0,1 4,0Z" style="opacity: 1; stroke: rgb(99, 110, 250); stroke-opacity: 1; stroke-width: 1px; fill: none;"/><path class="point" transform="translate(161.63,154.69)" d="M4,0A4,4 0 1,1 0,-4A4,4 0 0,1 4,0Z" style="opacity: 1; stroke: rgb(99, 110, 250); stroke-opacity: 1; stroke-width: 1px; fill: none;"/><path class="point" transform="translate(251.46,119.79)" d="M4,0A4,4 0 1,1 0,-4A4,4 0 0,1 4,0Z" style="opacity: 1; stroke: rgb(99, 110, 250); stroke-opacity: 1; stroke-width: 1px; fill: none;"/><path class="point" transform="translate(281.94,137.48)" d="M4,0A4,4 0 1,1 0,-4A4,4 0 0,1 4,0Z" style="opacity: 1; stroke: rgb(99, 110, 250); stroke-opacity: 1; stroke-width: 1px; fill: none;"/><path class="point" transform="translate(286.22,98.04)" d="M4,0A4,4 0 1,1 0,-4A4,4 0 0,1 4,0Z" style="opacity: 1; stroke: rgb(99, 110, 250); stroke-opacity: 1; stroke-width: 1px; fill: none;"/><path class="point" transform="translate(288.36,87.4)" d="M4,0A4,4 0 1,1 0,-4A4,4 0 0,1 4,0Z" style="opacity: 1; stroke: rgb(99, 110, 250); stroke-opacity: 1; stroke-width: 1px; fill: none;"/><path class="point" transform="translate(320.44,70.62)" d="M4,0A4,4 0 1,1 0,-4A4,4 0 0,1 4,0Z" style="opacity: 1; stroke: rgb(99, 110, 250); stroke-opacity: 1; stroke-width: 1px; fill: none;"/><path class="point" transform="translate(335.41,57.68)" d="M4,0A4,4 0 1,1 0,-4A4,4 0 0,1 4,0Z" style="opacity: 1; stroke: rgb(99, 110, 250); stroke-opacity: 1; stroke-width: 1px; fill: none;"/><path class="point" transform="translate(341.83,54.67)" d="M4,0A4,4 0 1,1 0,-4A4,4 0 0,1 4,0Z" style="opacity: 1; stroke: rgb(99, 110, 250); stroke-opacity: 1; stroke-width: 1px; fill: none;"/><path class="point" transform="translate(397.44,32.49)" d="M4,0A4,4 0 1,1 0,-4A4,4 0 0,1 4,0Z" style="opacity: 1; stroke: rgb(99, 110, 250); stroke-opacity: 1; stroke-width: 1px; fill: none;"/><path class="point" transform="translate(399.05,39.42)" d="M4,0A4,4 0 1,1 0,-4A4,4 0 0,1 4,0Z" style="opacity: 1; stroke: rgb(99, 110, 250); stroke-opacity: 1; stroke-width: 1px; fill: none;"/><path class="point" transform="translate(399.58,30.03)" d="M4,0A4,4 0 1,1 0,-4A4,4 0 0,1 4,0Z" style="opacity: 1; stroke: rgb(99, 110, 250); stroke-opacity: 1; stroke-width: 1px; fill: none;"/><path class="point" transform="translate(400.65,27.48)" d="M4,0A4,4 0 1,1 0,-4A4,4 0 0,1 4,0Z" style="opacity: 1; stroke: rgb(99, 110, 250); stroke-opacity: 1; stroke-width: 1px; fill: none;"/></g><g class="text"/></g></g></g></g><path class="xlines-above crisp" d="M0,0" style="fill: none;"/><path class="ylines-above crisp" d="M0,0" style="fill: none;"/><g class="overlines-above"/><g class="xaxislayer-above"><g class="xtick"><text text-anchor="middle" x="0" y="368.17500000000007" transform="translate(94.75,0)" style="font-family: 'Open Sans', verdana, arial, sans-serif; font-size: 16px; fill: rgb(42, 63, 95); fill-opacity: 1; white-space: pre; opacity: 1;">26</text></g><g class="xtick"><text text-anchor="middle" x="0" y="368.17500000000007" style="font-family: 'Open Sans', verdana, arial, sans-serif; font-size: 16px; fill: rgb(42, 63, 95); fill-opacity: 1; white-space: pre; opacity: 1;" transform="translate(201.69,0)">28</text></g><g class="xtick"><text text-anchor="middle" x="0" y="368.17500000000007" style="font-family: 'Open Sans', verdana, arial, sans-serif; font-size: 16px; fill: rgb(42, 63, 95); fill-opacity: 1; white-space: pre; opacity: 1;" transform="translate(308.63,0)">30</text></g><g class="xtick"><text text-anchor="middle" x="0" y="368.17500000000007" style="font-family: 'Open Sans', verdana, arial, sans-serif; font-size: 16px; fill: rgb(42, 63, 95); fill-opacity: 1; white-space: pre; opacity: 1;" transform="translate(415.57,0)">32</text></g></g><g class="yaxislayer-above"><g class="ytick"><text text-anchor="end" x="69" y="5.6" transform="translate(0,334.62)" style="font-family: 'Open Sans', verdana, arial, sans-serif; font-size: 16px; fill: rgb(42, 63, 95); fill-opacity: 1; white-space: pre; opacity: 1;">26</text></g><g class="ytick"><text text-anchor="end" x="69" y="5.6" style="font-family: 'Open Sans', verdana, arial, sans-serif; font-size: 16px; fill: rgb(42, 63, 95); fill-opacity: 1; white-space: pre; opacity: 1;" transform="translate(0,273.15)">28</text></g><g class="ytick"><text text-anchor="end" x="69" y="5.6" style="font-family: 'Open Sans', verdana, arial, sans-serif; font-size: 16px; fill: rgb(42, 63, 95); fill-opacity: 1; white-space: pre; opacity: 1;" transform="translate(0,211.68)">30</text></g><g class="ytick"><text text-anchor="end" x="69" y="5.6" style="font-family: 'Open Sans', verdana, arial, sans-serif; font-size: 16px; fill: rgb(42, 63, 95); fill-opacity: 1; white-space: pre; opacity: 1;" transform="translate(0,150.21)">32</text></g></g><g class="overaxes-above"/></g><g class="subplot x2y2"><g class="layer-subplot"><g class="shapelayer"/><g class="imagelayer"/></g><g class="minor-gridlayer"><g class="x2"/><g class="y2"/></g><g class="gridlayer"><g class="x2"><path class="x2grid crisp" transform="translate(91.42,0)" d="M0,439.825v251.17499999999998" style="stroke: rgb(235, 240, 248); stroke-opacity: 1; stroke-width: 1px;"/><path class="x2grid crisp" transform="translate(192.12,0)" d="M0,439.825v251.17499999999998" style="stroke: rgb(235, 240, 248); stroke-opacity: 1; stroke-width: 1px;"/><path class="x2grid crisp" transform="translate(292.83000000000004,0)" d="M0,439.825v251.17499999999998" style="stroke: rgb(235, 240, 248); stroke-opacity: 1; stroke-width: 1px;"/><path class="x2grid crisp" transform="translate(393.53,0)" d="M0,439.825v251.17499999999998" style="stroke: rgb(235, 240, 248); stroke-opacity: 1; stroke-width: 1px;"/><path class="x2grid crisp" transform="translate(494.24,0)" d="M0,439.825v251.17499999999998" style="stroke: rgb(235, 240, 248); stroke-opacity: 1; stroke-width: 1px;"/></g><g class="y2"><path class="y2grid crisp" transform="translate(0,671.925)" d="M70,0h427" style="stroke: rgb(235, 240, 248); stroke-opacity: 1; stroke-width: 1px;"/><path class="y2grid crisp" transform="translate(0,614.1949999999999)" d="M70,0h427" style="stroke: rgb(235, 240, 248); stroke-opacity: 1; stroke-width: 1px;"/><path class="y2grid crisp" transform="translate(0,556.475)" d="M70,0h427" style="stroke: rgb(235, 240, 248); stroke-opacity: 1; stroke-width: 1px;"/><path class="y2grid crisp" transform="translate(0,498.755)" d="M70,0h427" style="stroke: rgb(235, 240, 248); stroke-opacity: 1; stroke-width: 1px;"/><path class="y2grid crisp" transform="translate(0,441.025)" d="M70,0h427" style="stroke: rgb(235, 240, 248); stroke-opacity: 1; stroke-width: 1px;"/></g></g><g class="zerolinelayer"/><g class="layer-between"><g class="shapelayer"/><g class="imagelayer"/></g><path class="xlines-below"/><path class="ylines-below"/><g class="overlines-below"/><g class="xaxislayer-below"/><g class="yaxislayer-below"/><g class="overaxes-below"/><g class="overplot"><g class="x2y2" transform="translate(70,439.825)" clip-path="url(#clip65ca74x2y2plot)"><g class="scatterlayer mlayer"><g class="trace scatter trace6f9d76" style="stroke-miterlimit: 2;"><g class="fills"><g><path class="js-fill" d="M26.35,230.04L400.65,16.89L400.65,12.56L26.35,228.5Z" style="fill: rgb(254, 203, 82); fill-opacity: 0.4; stroke-width: 0;"/></g></g><g class="errorbars"/><g class="lines"><path class="js-line" d="M26.35,228.5L400.65,12.56" style="vector-effect: none; fill: none; stroke: rgb(254, 203, 82); stroke-opacity: 1; stroke-width: 0.1px; opacity: 1;"/></g><g class="points"/><g class="text"/></g><g class="trace scatter trace152382" style="stroke-miterlimit: 2;"><g class="fills"/><g class="errorbars"/><g class="lines"><path class="js-line" d="M26.35,230.04L400.65,16.89" style="vector-effect: none; fill: none; stroke: rgb(254, 203, 82); stroke-opacity: 1; stroke-width: 0.1px; opacity: 1;"/></g><g class="points"/><g class="text"/></g><g class="trace scatter trace5f50b2" style="stroke-miterlimit: 2; opacity: 1;"><g class="fills"/><g class="errorbars"/><g class="lines"><path class="js-line" d="M26.35,229.27L400.65,14.72" style="vector-effect: none; fill: none; stroke: rgb(51, 51, 51); stroke-opacity: 1; stroke-width: 2px; opacity: 1;"/></g><g class="points"/><g class="text"/></g><g class="trace scatter trace6b5316" style="stroke-miterlimit: 2; opacity: 1;"><g class="fills"/><g class="errorbars"/><g class="lines"/><g class="points"><path class="point" transform="translate(26.35,233.62)" d="M4,0A4,4 0 1,1 0,-4A4,4 0 0,1 4,0Z" style="opacity: 1; stroke: rgb(99, 110, 250); stroke-opacity: 1; stroke-width: 1px; fill: none;"/><path class="point" transform="translate(69.49,169.79)" d="M4,0A4,4 0 1,1 0,-4A4,4 0 0,1 4,0Z" style="opacity: 1; stroke: rgb(99, 110, 250); stroke-opacity: 1; stroke-width: 1px; fill: none;"/><path class="point" transform="translate(77.17,196.89)" d="M4,0A4,4 0 1,1 0,-4A4,4 0 0,1 4,0Z" style="opacity: 1; stroke: rgb(99, 110, 250); stroke-opacity: 1; stroke-width: 1px; fill: none;"/><path class="point" transform="translate(91.06,191.86)" d="M4,0A4,4 0 1,1 0,-4A4,4 0 0,1 4,0Z" style="opacity: 1; stroke: rgb(99, 110, 250); stroke-opacity: 1; stroke-width: 1px; fill: none;"/><path class="point" transform="translate(104.86,181.59)" d="M4,0A4,4 0 1,1 0,-4A4,4 0 0,1 4,0Z" style="opacity: 1; stroke: rgb(99, 110, 250); stroke-opacity: 1; stroke-width: 1px; fill: none;"/><path class="point" transform="translate(106.23,189.9)" d="M4,0A4,4 0 1,1 0,-4A4,4 0 0,1 4,0Z" style="opacity: 1; stroke: rgb(99, 110, 250); stroke-opacity: 1; stroke-width: 1px; fill: none;"/><path class="point" transform="translate(109.45,193.62)" d="M4,0A4,4 0 1,1 0,-4A4,4 0 0,1 4,0Z" style="opacity: 1; stroke: rgb(99, 110, 250); stroke-opacity: 1; stroke-width: 1px; fill: none;"/><path class="point" transform="translate(123.49,168.2)" d="M4,0A4,4 0 1,1 0,-4A4,4 0 0,1 4,0Z" style="opacity: 1; stroke: rgb(99, 110, 250); stroke-opacity: 1; stroke-width: 1px; fill: none;"/><path class="point" transform="translate(195.13,146.53)" d="M4,0A4,4 0 1,1 0,-4A4,4 0 0,1 4,0Z" style="opacity: 1; stroke: rgb(99, 110, 250); stroke-opacity: 1; stroke-width: 1px; fill: none;"/><path class="point" transform="translate(216.44,114.94)" d="M4,0A4,4 0 1,1 0,-4A4,4 0 0,1 4,0Z" style="opacity: 1; stroke: rgb(99, 110, 250); stroke-opacity: 1; stroke-width: 1px; fill: none;"/><path class="point" transform="translate(255.45,103.92)" d="M4,0A4,4 0 1,1 0,-4A4,4 0 0,1 4,0Z" style="opacity: 1; stroke: rgb(99, 110, 250); stroke-opacity: 1; stroke-width: 1px; fill: none;"/><path class="point" transform="translate(265.04,70.35)" d="M4,0A4,4 0 1,1 0,-4A4,4 0 0,1 4,0Z" style="opacity: 1; stroke: rgb(99, 110, 250); stroke-opacity: 1; stroke-width: 1px; fill: none;"/><path class="point" transform="translate(266.17,107.61)" d="M4,0A4,4 0 1,1 0,-4A4,4 0 0,1 4,0Z" style="opacity: 1; stroke: rgb(99, 110, 250); stroke-opacity: 1; stroke-width: 1px; fill: none;"/><path class="point" transform="translate(277.23,86.9)" d="M4,0A4,4 0 1,1 0,-4A4,4 0 0,1 4,0Z" style="opacity: 1; stroke: rgb(99, 110, 250); stroke-opacity: 1; stroke-width: 1px; fill: none;"/><path class="point" transform="translate(310.38,64.48)" d="M4,0A4,4 0 1,1 0,-4A4,4 0 0,1 4,0Z" style="opacity: 1; stroke: rgb(99, 110, 250); stroke-opacity: 1; stroke-width: 1px; fill: none;"/><path class="point" transform="translate(321.4,74.62)" d="M4,0A4,4 0 1,1 0,-4A4,4 0 0,1 4,0Z" style="opacity: 1; stroke: rgb(99, 110, 250); stroke-opacity: 1; stroke-width: 1px; fill: none;"/><path class="point" transform="translate(400.65,20.27)" d="M4,0A4,4 0 1,1 0,-4A4,4 0 0,1 4,0Z" style="opacity: 1; stroke: rgb(99, 110, 250); stroke-opacity: 1; stroke-width: 1px; fill: none;"/></g><g class="text"/></g></g></g></g><path class="xlines-above crisp" d="M0,0" style="fill: none;"/><path class="ylines-above crisp" d="M0,0" style="fill: none;"/><g class="overlines-above"/><g class="xaxislayer-above"><g class="x2tick"><text text-anchor="middle" x="0" y="708" transform="translate(91.42,0)" style="font-family: 'Open Sans', verdana, arial, sans-serif; font-size: 16px; fill: rgb(42, 63, 95); fill-opacity: 1; white-space: pre; opacity: 1;">100</text></g><g class="x2tick"><text text-anchor="middle" x="0" y="708" style="font-family: 'Open Sans', verdana, arial, sans-serif; font-size: 16px; fill: rgb(42, 63, 95); fill-opacity: 1; white-space: pre; opacity: 1;" transform="translate(192.12,0)">150</text></g><g class="x2tick"><text text-anchor="middle" x="0" y="708" style="font-family: 'Open Sans', verdana, arial, sans-serif; font-size: 16px; fill: rgb(42, 63, 95); fill-opacity: 1; white-space: pre; opacity: 1;" transform="translate(292.83000000000004,0)">200</text></g><g class="x2tick"><text text-anchor="middle" x="0" y="708" style="font-family: 'Open Sans', verdana, arial, sans-serif; font-size: 16px; fill: rgb(42, 63, 95); fill-opacity: 1; white-space: pre; opacity: 1;" transform="translate(393.53,0)">250</text></g><g class="x2tick"><text text-anchor="middle" x="0" y="708" style="font-family: 'Open Sans', verdana, arial, sans-serif; font-size: 16px; fill: rgb(42, 63, 95); fill-opacity: 1; white-space: pre; opacity: 1;" transform="translate(494.24,0)">300</text></g></g><g class="yaxislayer-above"><g class="y2tick"><text text-anchor="end" x="69" y="5.6" transform="translate(0,671.925)" style="font-family: 'Open Sans', verdana, arial, sans-serif; font-size: 16px; fill: rgb(42, 63, 95); fill-opacity: 1; white-space: pre; opacity: 1;">100</text></g><g class="y2tick"><text text-anchor="end" x="69" y="5.6" style="font-family: 'Open Sans', verdana, arial, sans-serif; font-size: 16px; fill: rgb(42, 63, 95); fill-opacity: 1; white-space: pre; opacity: 1;" transform="translate(0,614.1949999999999)">150</text></g><g class="y2tick"><text text-anchor="end" x="69" y="5.6" style="font-family: 'Open Sans', verdana, arial, sans-serif; font-size: 16px; fill: rgb(42, 63, 95); fill-opacity: 1; white-space: pre; opacity: 1;" transform="translate(0,556.475)">200</text></g><g class="y2tick"><text text-anchor="end" x="69" y="5.6" style="font-family: 'Open Sans', verdana, arial, sans-serif; font-size: 16px; fill: rgb(42, 63, 95); fill-opacity: 1; white-space: pre; opacity: 1;" transform="translate(0,498.755)">250</text></g><g class="y2tick"><text text-anchor="end" x="69" y="5.6" style="font-family: 'Open Sans', verdana, arial, sans-serif; font-size: 16px; fill: rgb(42, 63, 95); fill-opacity: 1; white-space: pre; opacity: 1;" transform="translate(0,441.025)">300</text></g></g><g class="overaxes-above"/></g></g><g class="polarlayer"/><g class="smithlayer"/><g class="ternarylayer"/><g class="geolayer"/><g class="funnelarealayer"/><g class="pielayer"/><g class="iciclelayer"/><g class="treemaplayer"/><g class="sunburstlayer"/><g class="glimages"/><defs id="topdefs-65ca74"><g class="clips"/><clipPath id="legend65ca74"><rect width="345" height="29" x="0" y="0"/></clipPath></defs><g class="layer-above"><g class="imagelayer"/><g class="shapelayer"/></g><g class="infolayer"><g class="legend" pointer-events="all" transform="translate(111,41.449999999999974)"><rect class="bg" shape-rendering="crispEdges" width="345" height="29" x="0" y="0" style="stroke: rgb(68, 68, 68); stroke-opacity: 1; fill: rgb(255, 255, 255); fill-opacity: 1; stroke-width: 0px;"/><g class="scrollbox" transform="" clip-path="url(#legend65ca74)"><g class="groups" transform=""><g class="traces" transform="translate(0,14.5)" style="opacity: 1;"><text class="legendtext" text-anchor="start" x="40" y="4.680000000000001" style="font-family: 'Open Sans', verdana, arial, sans-serif; font-size: 12px; fill: rgb(42, 63, 95); fill-opacity: 1; white-space: pre;">Sensor unc.</text><g class="layers"><g class="legendfill"><path class="js-fill" d="M5,-2h30v6h-30z" style="stroke-width: 0; fill: rgb(254, 203, 82); fill-opacity: 0.4;"/></g><g class="legendlines"><path class="js-line" d="M5,-2h30" style="fill: none; stroke: rgb(254, 203, 82); stroke-opacity: 1; stroke-width: 0.1px;"/></g><g class="legendsymbols"><g class="legendpoints"/></g></g><rect class="legendtoggle" x="0" y="-9.5" width="113.078125" height="19" style="fill: rgb(0, 0, 0); fill-opacity: 0;"/></g></g><g class="groups" transform="translate(115.578125,0)"><g class="traces" transform="translate(0,14.5)" style="opacity: 1;"><text class="legendtext" text-anchor="start" x="40" y="4.680000000000001" style="font-family: 'Open Sans', verdana, arial, sans-serif; font-size: 12px; fill: rgb(42, 63, 95); fill-opacity: 1; white-space: pre;">Perfect fit</text><g class="layers" style="opacity: 1;"><g class="legendfill"/><g class="legendlines"><path class="js-line" d="M5,0h30" style="fill: none; stroke: rgb(51, 51, 51); stroke-opacity: 1; stroke-width: 2px;"/></g><g class="legendsymbols"><g class="legendpoints"/></g></g><rect class="legendtoggle" x="0" y="-9.5" width="100.921875" height="19" style="fill: rgb(0, 0, 0); fill-opacity: 0;"/></g></g><g class="groups" transform="translate(219,0)"><g class="traces" transform="translate(0,14.5)" style="opacity: 1;"><text class="legendtext" text-anchor="start" x="40" y="4.680000000000001" style="font-family: 'Open Sans', verdana, arial, sans-serif; font-size: 12px; fill: rgb(42, 63, 95); fill-opacity: 1; white-space: pre;">Model results</text><g class="layers" style="opacity: 1;"><g class="legendfill"/><g class="legendlines"/><g class="legendsymbols"><g class="legendpoints"><path class="scatterpts" transform="translate(20,0)" d="M4,0A4,4 0 1,1 0,-4A4,4 0 0,1 4,0Z" style="opacity: 1; stroke: rgb(99, 110, 250); stroke-opacity: 1; stroke-width: 1px; fill: none;"/></g></g></g><rect class="legendtoggle" x="0" y="-9.5" width="122.546875" height="19" style="fill: rgb(0, 0, 0); fill-opacity: 0;"/></g></g></g><rect class="scrollbar" rx="20" ry="3" width="0" height="0" x="0" y="0" style="fill: rgb(128, 139, 164); fill-opacity: 1;"/></g><g class="g-gtitle"><text class="gtitle" x="26" y="15" text-anchor="start" dy="0.7em" style="opacity: 1; font-family: 'Open Sans', verdana, arial, sans-serif; font-size: 22px; fill: rgb(42, 63, 95); fill-opacity: 1; white-space: pre;"><tspan style=" fill:#9573a6; font-weight:bold;">WCT</tspan> physical model validation</text></g><g class="g-xtitle"><text class="xtitle" x="283.5" y="399.9875" text-anchor="middle" style="opacity: 1; font-family: 'Open Sans', verdana, arial, sans-serif; font-size: 19px; fill: rgb(42, 63, 95); fill-opacity: 1; white-space: pre;">Experimental values [℃]</text></g><g class="g-x2title"><text class="x2title" x="283.5" y="739.8" text-anchor="middle" style="opacity: 1; font-family: 'Open Sans', verdana, arial, sans-serif; font-size: 19px; fill: rgb(42, 63, 95); fill-opacity: 1; white-space: pre;">Experimental values [l/h]</text></g><g class="g-ytitle"><text class="ytitle" transform="rotate(-90,27.490625,225.58750000000003)" x="27.490625" y="225.58750000000003" text-anchor="middle" style="opacity: 1; font-family: 'Open Sans', verdana, arial, sans-serif; font-size: 19px; fill: rgb(42, 63, 95); fill-opacity: 1; white-space: pre;">Predicted values [℃]</text></g><g class="g-y2title" transform="translate(0.703125,0)"><text class="y2title" transform="rotate(-90,17.303125,565.4125)" x="17.303125" y="565.4125" text-anchor="middle" style="opacity: 1; font-family: 'Open Sans', verdana, arial, sans-serif; font-size: 19px; fill: rgb(42, 63, 95); fill-opacity: 1; white-space: pre;">Predicted values [l/h]</text></g><g class="annotation" data-index="0" style="opacity: 1;"><g class="annotation-text-g" transform="rotate(0,283.5,88.49999999999999)"><g class="cursor-pointer" transform="translate(73,77)"><rect class="bg" x="0.5" y="0.5" width="420" height="22" style="stroke-width: 1px; stroke: rgb(0, 0, 0); stroke-opacity: 0; fill: rgb(0, 0, 0); fill-opacity: 0;"/><text class="annotation-text" text-anchor="middle" x="210.3125" y="17" style="font-family: 'Open Sans', verdana, arial, sans-serif; font-size: 16px; fill: rgb(42, 63, 95); fill-opacity: 1; white-space: pre;"><tspan style="font-weight:bold">Outlet temperature</tspan> | R²=0.94 [-] | MAE=0.34 [℃]</text></g></g></g><g class="annotation" data-index="1" style="opacity: 1;"><g class="annotation-text-g" transform="rotate(0,283.5,428.325)"><g class="cursor-pointer" transform="translate(72,417)"><rect class="bg" x="0.5" y="0.5" width="422" height="22" style="stroke-width: 1px; stroke: rgb(0, 0, 0); stroke-opacity: 0; fill: rgb(0, 0, 0); fill-opacity: 0;"/><text class="annotation-text" text-anchor="middle" x="211.375" y="17" style="font-family: 'Open Sans', verdana, arial, sans-serif; font-size: 16px; fill: rgb(42, 63, 95); fill-opacity: 1; white-space: pre;"><tspan style="font-weight:bold">Water consumption</tspan> | R²=0.95 [-] | MAE=7.94 [l/h]</text></g></g></g></g></svg>