<?xml version="1.0" encoding="UTF-8" standalone="no"?>
<svg
   width="100"
   zoomAndPan="magnify"
   viewBox="0 0 75 75.000003"
   height="100.00001"
   preserveAspectRatio="xMidYMid"
   version="1.0"
   id="svg159"
   sodipodi:docname="Logo solhycool web.svg"
   xmlns:inkscape="http://www.inkscape.org/namespaces/inkscape"
   xmlns:sodipodi="http://sodipodi.sourceforge.net/DTD/sodipodi-0.dtd"
   xmlns="http://www.w3.org/2000/svg"
   xmlns:svg="http://www.w3.org/2000/svg">
  <sodipodi:namedview
     id="namedview161"
     pagecolor="#ffffff"
     bordercolor="#000000"
     borderopacity="0.25"
     inkscape:showpageshadow="2"
     inkscape:pageopacity="0.0"
     inkscape:pagecheckerboard="0"
     inkscape:deskcolor="#d1d1d1"
     showgrid="false" />
  <defs
     id="defs43">
    <clipPath
       id="10be5361fc">
      <path
         d="m 20.199219,6.089844 h 3.617187 v 4.101562 h -3.617187 z m 0,0"
         clip-rule="nonzero"
         id="path4" />
    </clipPath>
    <clipPath
       id="37f2f390ac">
      <path
         d="m 21,6 h 6 v 6 h -6 z m 0,0"
         clip-rule="nonzero"
         id="path7" />
    </clipPath>
    <clipPath
       id="ebf62f82f0">
      <path
         d="m 26.625,6.605469 -3.878906,4.546875 -3.207032,-2.734375 3.878907,-4.546875 z m 0,0"
         clip-rule="nonzero"
         id="path10" />
    </clipPath>
    <clipPath
       id="67ef52b836">
      <path
         d="M 21.480469,6.140625 22.75,11.148438 26.625,6.605469 Z m 0,0"
         clip-rule="nonzero"
         id="path13" />
    </clipPath>
    <clipPath
       id="8e7ae28fed">
      <path
         d="M 25.585938,59.332031 H 35.726562 V 69.46875 H 25.585938 Z m 0,0"
         clip-rule="nonzero"
         id="path16" />
    </clipPath>
    <clipPath
       id="4382b567fa">
      <path
         d="m 30.65625,59.332031 c -2.800781,0 -5.070312,2.269531 -5.070312,5.066407 0,2.800781 2.269531,5.070312 5.070312,5.070312 2.800781,0 5.070312,-2.269531 5.070312,-5.070312 0,-2.796876 -2.269531,-5.066407 -5.070312,-5.066407 z m 0,0"
         clip-rule="nonzero"
         id="path19" />
    </clipPath>
    <clipPath
       id="1f2083c24c">
      <path
         d="M 27.359375,59.648438 H 34 V 69 h -6.640625 z m 0,0"
         clip-rule="nonzero"
         id="path22" />
    </clipPath>
    <clipPath
       id="968b1610ad">
      <path
         d="M 42.761719,58.535156 H 53.375 V 69.148438 H 42.761719 Z m 0,0"
         clip-rule="nonzero"
         id="path25" />
    </clipPath>
    <clipPath
       id="1e074f0884">
      <path
         d="m 48.070312,58.535156 c -2.933593,0 -5.308593,2.375 -5.308593,5.308594 0,2.929688 2.375,5.304688 5.308593,5.304688 2.929688,0 5.304688,-2.375 5.304688,-5.304688 0,-2.933594 -2.375,-5.308594 -5.304688,-5.308594 z m 0,0"
         clip-rule="nonzero"
         id="path28" />
    </clipPath>
    <clipPath
       id="be5d4eb6cb">
      <path
         d="m 44.277344,60.046875 h 7.46875 v 7.46875 h -7.46875 z m 0,0"
         clip-rule="nonzero"
         id="path31" />
    </clipPath>
    <clipPath
       id="f2ce5eb4c5">
      <path
         d="M 23.027344,22.527344 H 52.972656 V 52.472656 H 23.027344 Z m 0,0"
         clip-rule="nonzero"
         id="path34" />
    </clipPath>
    <clipPath
       id="91834400e6">
      <path
         d="m 38,22.527344 c -8.269531,0 -14.972656,6.703125 -14.972656,14.972656 0,8.269531 6.703125,14.972656 14.972656,14.972656 8.269531,0 14.972656,-6.703125 14.972656,-14.972656 0,-8.269531 -6.703125,-14.972656 -14.972656,-14.972656 z m 0,0"
         clip-rule="nonzero"
         id="path37" />
    </clipPath>
    <clipPath
       id="0166594e1b">
      <path
         d="M 37.5,0 C 16.789062,0 0,16.789062 0,37.5 0,58.210938 16.789062,75 37.5,75 58.210938,75 75,58.210938 75,37.5 75,16.789062 58.210938,0 37.5,0 Z m 0,0"
         clip-rule="nonzero"
         id="path40" />
    </clipPath>
  </defs>
  <g
     fill="#004aad"
     fill-opacity="1"
     id="g51">
    <g
       transform="translate(14.140405,30.608916)"
       id="g49">
      <g
         id="g47">
        <path
           d="M 2.6875,-4.234375 C 2.238281,-3.472656 1.703125,-2.789062 1.078125,-2.1875 0.460938,-1.59375 -0.132812,-1.179688 -0.71875,-0.953125 l -1.25,-1.734375 C -1.425781,-2.925781 -0.890625,-3.28125 -0.359375,-3.75 0.160156,-4.21875 0.585938,-4.734375 0.921875,-5.296875 1.285156,-5.929688 1.460938,-6.457031 1.453125,-6.875 1.441406,-7.289062 1.28125,-7.59375 0.96875,-7.78125 0.738281,-7.914062 0.492188,-7.9375 0.234375,-7.84375 -0.0234375,-7.75 -0.28125,-7.585938 -0.53125,-7.359375 c -0.257812,0.230469 -0.585938,0.546875 -0.984375,0.953125 -0.601563,0.648438 -1.128906,1.152344 -1.578125,1.515625 -0.445312,0.367187 -0.960938,0.605469 -1.546875,0.71875 C -5.222656,-4.066406 -5.84375,-4.203125 -6.5,-4.578125 -7.0625,-4.910156 -7.484375,-5.363281 -7.765625,-5.9375 c -0.28125,-0.570312 -0.375,-1.242188 -0.28125,-2.015625 0.09375,-0.769531 0.402344,-1.597656 0.921875,-2.484375 0.367188,-0.613281 0.792969,-1.171875 1.28125,-1.671875 0.492188,-0.5 1,-0.894531 1.53125,-1.1875 l 1.3125,1.6875 c -1.03125,0.59375 -1.8125,1.339844 -2.34375,2.234375 -0.363281,0.636719 -0.53125,1.164062 -0.5,1.578125 0.023438,0.417969 0.199219,0.726563 0.53125,0.921875 0.335938,0.1875 0.683594,0.15625 1.046875,-0.09375 0.367187,-0.257812 0.835937,-0.695312 1.40625,-1.3125 0.617187,-0.632812 1.148437,-1.132812 1.59375,-1.5 0.4375,-0.363281 0.949219,-0.597656 1.53125,-0.703125 0.582031,-0.113281 1.191406,0.01172 1.828125,0.375 0.550781,0.335937 0.96875,0.789063 1.25,1.359375 0.28125,0.5625 0.367188,1.234375 0.265625,2.015625 -0.09375,0.773437 -0.402344,1.605469 -0.921875,2.5 z m 0,0"
           id="path45" />
      </g>
    </g>
  </g>
  <g
     fill="#00afef"
     fill-opacity="1"
     id="g59">
    <g
       transform="translate(19.744316,20.740779)"
       id="g57">
      <g
         id="g55">
        <path
           d="m 5.984375,-3.1875 c -1.023437,0.585938 -2.0625,0.890625 -3.125,0.921875 C 1.804688,-2.242188 0.832031,-2.488281 -0.0625,-3 -0.957031,-3.507812 -1.675781,-4.238281 -2.21875,-5.1875 -2.769531,-6.144531 -3.03125,-7.140625 -3,-8.171875 c 0.023438,-1.03125 0.3125,-1.992187 0.875,-2.890625 0.5625,-0.894531 1.355469,-1.632812 2.375,-2.21875 1.007812,-0.570312 2.046875,-0.867188 3.109375,-0.890625 1.0625,-0.01953 2.039063,0.226563 2.9375,0.734375 0.894531,0.5 1.617187,1.230469 2.171875,2.1875 0.539062,0.949219 0.796875,1.945312 0.765625,2.984375 -0.023437,1.03125 -0.320313,1.996094 -0.890625,2.890625 -0.5625,0.886719 -1.351562,1.617188 -2.359375,2.1875 z m -1.09375,-1.90625 c 0.570313,-0.320312 1.015625,-0.75 1.328125,-1.28125 0.320312,-0.53125 0.476562,-1.109375 0.46875,-1.734375 -0.011719,-0.632813 -0.183594,-1.25 -0.515625,-1.84375 -0.34375,-0.601563 -0.78125,-1.066406 -1.3125,-1.390625 C 4.328125,-11.675781 3.75,-11.835938 3.125,-11.828125 c -0.617188,0 -1.210938,0.164063 -1.78125,0.484375 -0.574219,0.324219 -1.023438,0.75 -1.34375,1.28125 -0.3125,0.523438 -0.460938,1.101562 -0.453125,1.734375 0,0.625 0.171875,1.242187 0.515625,1.84375 0.332031,0.59375 0.765625,1.058594 1.296875,1.390625 0.539063,0.324219 1.117187,0.484375 1.734375,0.484375 0.625,0 1.222656,-0.160156 1.796875,-0.484375 z m 0,0"
           id="path53" />
      </g>
    </g>
  </g>
  <g
     fill="#004aad"
     fill-opacity="1"
     id="g67">
    <g
       transform="translate(32.673192,14.258548)"
       id="g65">
      <g
         id="g63">
        <path
           d="M 1.328125,-11.234375 H 3.9375 V -2.125 h 5.625 V 0 H 1.328125 Z m 0,0"
           id="path61" />
      </g>
    </g>
  </g>
  <g
     fill="#004aad"
     fill-opacity="1"
     id="g75">
    <g
       transform="translate(43.526285,14.129174)"
       id="g73">
      <g
         id="g71">
        <path
           d="M 15.625,-4.1875 10.1875,5.640625 7.90625,4.375 10.140625,0.34375 5.6875,-2.125 3.453125,1.90625 1.15625,0.640625 6.59375,-9.1875 l 2.296875,1.265625 -2.140625,3.875 4.453125,2.46875 2.140625,-3.875 z m 0,0"
           id="path69" />
      </g>
    </g>
  </g>
  <g
     fill="#004aad"
     fill-opacity="1"
     id="g83">
    <g
       transform="translate(55.421937,21.320424)"
       id="g81">
      <g
         id="g79">
        <path
           d="M 6.875,3.71875 3.453125,5.765625 2.125,3.53125 5.5625,1.46875 9.53125,-5.96875 10.9375,-3.609375 8.203125,1.53125 h 5.828125 l 1.3125,2.203125 z m 0,0"
           id="path77" />
      </g>
    </g>
  </g>
  <g
     clip-path="url(#10be5361fc)"
     id="g87">
    <path
       fill="#ffffff"
       d="m 20.199219,6.089844 h 3.617187 V 10.1875 h -3.617187 z m 0,0"
       fill-opacity="1"
       fill-rule="nonzero"
       id="path85" />
  </g>
  <g
     clip-path="url(#37f2f390ac)"
     id="g95">
    <g
       clip-path="url(#ebf62f82f0)"
       id="g93">
      <g
         clip-path="url(#67ef52b836)"
         id="g91">
        <path
           fill="#00afef"
           d="m 26.625,6.605469 -3.878906,4.546875 -3.207032,-2.734375 3.878907,-4.546875 z m 0,0"
           fill-opacity="1"
           fill-rule="nonzero"
           id="path89" />
      </g>
    </g>
  </g>
  <g
     clip-path="url(#8e7ae28fed)"
     id="g101">
    <g
       clip-path="url(#4382b567fa)"
       id="g99">
      <path
         fill="#004aad"
         d="M 25.585938,59.332031 H 35.726562 V 69.46875 H 25.585938 Z m 0,0"
         fill-opacity="1"
         fill-rule="nonzero"
         id="path97" />
    </g>
  </g>
  <g
     fill="#004aad"
     fill-opacity="1"
     id="g109">
    <g
       transform="translate(7.536577,55.057018)"
       id="g107">
      <g
         id="g105">
        <path
           d="M 4.9375,5.46875 C 4.0625,4.5625 3.46875,3.550781 3.15625,2.4375 2.851562,1.320312 2.847656,0.222656 3.140625,-0.859375 3.441406,-1.953125 4.035156,-2.914062 4.921875,-3.75 5.796875,-4.59375 6.78125,-5.140625 7.875,-5.390625 8.976562,-5.648438 10.078125,-5.601562 11.171875,-5.25 c 1.101563,0.355469 2.09375,0.992188 2.96875,1.90625 0.738281,0.773438 1.269531,1.601562 1.59375,2.484375 0.332031,0.875 0.445313,1.769531 0.34375,2.6875 L 13.59375,1.671875 C 13.707031,0.410156 13.34375,-0.664062 12.5,-1.5625 11.96875,-2.101562 11.375,-2.472656 10.71875,-2.671875 10.0625,-2.878906 9.398438,-2.894531 8.734375,-2.71875 8.066406,-2.550781 7.460938,-2.203125 6.921875,-1.671875 6.367188,-1.148438 5.992188,-0.5625 5.796875,0.09375 5.597656,0.757812 5.582031,1.421875 5.75,2.078125 5.925781,2.742188 6.28125,3.347656 6.8125,3.890625 7.65625,4.785156 8.71875,5.191406 10,5.109375 l 0.04687,2.5 C 9.128906,7.671875 8.226562,7.519531 7.34375,7.15625 6.46875,6.800781 5.664062,6.238281 4.9375,5.46875 Z m 0,0"
           id="path103" />
      </g>
    </g>
  </g>
  <g
     fill="#004aad"
     fill-opacity="1"
     id="g117">
    <g
       transform="translate(21.881975,67.867482)"
       id="g115">
      <g
         id="g113">
        <path
           d="M 7.125,2.09375 C 5.882812,1.769531 4.835938,1.207031 3.984375,0.40625 c -0.855469,-0.789062 -1.4375,-1.726562 -1.75,-2.8125 -0.3125,-1.082031 -0.3125,-2.207031 0,-3.375 0.300781,-1.164062 0.851563,-2.144531 1.65625,-2.9375 0.800781,-0.789062 1.769531,-1.320312 2.90625,-1.59375 1.132813,-0.28125 2.320313,-0.257812 3.5625,0.0625 1.238281,0.324219 2.28125,0.886719 3.125,1.6875 0.84375,0.792969 1.425781,1.730469 1.75,2.8125 0.320313,1.085938 0.332031,2.210938 0.03125,3.375 -0.3125,1.167969 -0.875,2.148438 -1.6875,2.9375 -0.8125,0.789062 -1.78125,1.320312 -2.90625,1.59375 C 9.546875,2.4375 8.363281,2.414062 7.125,2.09375 Z M 7.75,-0.265625 c 0.695312,0.1875 1.375,0.1953125 2.03125,0.015625 0.65625,-0.175781 1.21875,-0.515625 1.6875,-1.015625 0.476562,-0.5 0.816406,-1.113281 1.015625,-1.84375 0.1875,-0.738281 0.191406,-1.4375 0.01563,-2.09375 C 12.332031,-5.867188 12.003906,-6.4375 11.515625,-6.90625 11.023438,-7.375 10.429688,-7.703125 9.734375,-7.890625 9.023438,-8.078125 8.34375,-8.082031 7.6875,-7.90625 7.039062,-7.726562 6.484375,-7.390625 6.015625,-6.890625 5.546875,-6.398438 5.21875,-5.785156 5.03125,-5.046875 4.832031,-4.316406 4.816406,-3.617188 4.984375,-2.953125 5.148438,-2.285156 5.472656,-1.71875 5.953125,-1.25 6.441406,-0.78125 7.039062,-0.453125 7.75,-0.265625 Z m 0,0"
           id="path111" />
      </g>
    </g>
  </g>
  <g
     fill="#004aad"
     fill-opacity="1"
     id="g125">
    <g
       transform="translate(42.900095,71.38001)"
       id="g123">
      <g
         id="g121">
        <path
           d="m 7.109375,-2.1875 c -1.21875,0.417969 -2.40625,0.53125 -3.5625,0.34375 -1.148437,-0.195312 -2.148437,-0.660156 -3,-1.390625 -0.851563,-0.726563 -1.476563,-1.664063 -1.875,-2.8125 -0.382813,-1.144531 -0.457031,-2.269531 -0.21875,-3.375 0.230469,-1.101563 0.742187,-2.078125 1.53125,-2.921875 C 0.773438,-13.195312 1.78125,-13.832031 3,-14.25 c 1.207031,-0.40625 2.382812,-0.507812 3.53125,-0.3125 1.144531,0.1875 2.148438,0.648438 3.015625,1.375 0.863281,0.730469 1.488281,1.667969 1.875,2.8125 0.394531,1.148438 0.46875,2.273438 0.21875,3.375 -0.242187,1.105469 -0.757813,2.085938 -1.546875,2.9375 -0.78125,0.84375 -1.777344,1.46875 -2.984375,1.875 z M 6.3125,-4.484375 C 7,-4.710938 7.566406,-5.082031 8.015625,-5.59375 c 0.457031,-0.507812 0.75,-1.097656 0.875,-1.765625 0.125,-0.675781 0.0625,-1.375 -0.1875,-2.09375 -0.242187,-0.71875 -0.617187,-1.304687 -1.125,-1.765625 -0.511719,-0.46875 -1.101563,-0.765625 -1.765625,-0.890625 -0.667969,-0.125 -1.34375,-0.07031 -2.03125,0.15625 -0.699219,0.242187 -1.273438,0.617187 -1.71875,1.125 -0.4375,0.5 -0.71875,1.089844 -0.84375,1.765625 -0.117188,0.667969 -0.054688,1.359375 0.1875,2.078125 0.25,0.71875 0.625,1.3125 1.125,1.78125 0.507812,0.460937 1.09375,0.757813 1.75,0.890625 0.65625,0.125 1.332031,0.070312 2.03125,-0.171875 z m 0,0"
           id="path119" />
      </g>
    </g>
  </g>
  <g
     fill="#004aad"
     fill-opacity="1"
     id="g133">
    <g
       transform="translate(61.847606,62.72269)"
       id="g131">
      <g
         id="g129">
        <path
           d="m -8.21875,-9.265625 1.90625,-2.140625 7.453125,6.640625 4.09375,-4.609375 1.734375,1.546875 -6,6.75 z m 0,0"
           id="path127" />
      </g>
    </g>
  </g>
  <g
     clip-path="url(#1f2083c24c)"
     id="g137">
    <path
       fill="#5dadec"
       d="m 33.238281,64.234375 -2.71875,-4.464844 -2.523437,4.433594 c -0.585938,0.941406 -0.636719,2.164063 -0.01953,3.175781 0.875,1.441406 2.765626,1.902344 4.21875,1.035156 1.453126,-0.867187 1.921876,-2.738281 1.042969,-4.179687 z m 0,0"
       fill-opacity="1"
       fill-rule="nonzero"
       id="path135" />
  </g>
  <g
     clip-path="url(#968b1610ad)"
     id="g143">
    <g
       clip-path="url(#1e074f0884)"
       id="g141">
      <path
         fill="#004aad"
         d="M 42.761719,58.535156 H 53.375 V 69.148438 H 42.761719 Z m 0,0"
         fill-opacity="1"
         fill-rule="nonzero"
         id="path139" />
    </g>
  </g>
  <g
     clip-path="url(#be5d4eb6cb)"
     id="g147">
    <path
       fill="#ffffff"
       d="m 45.007812,60.078125 c -0.253906,0.09766 -0.558593,0.570313 -0.660156,1.023437 -0.04297,0.1875 -0.04297,0.519532 0,0.679688 0.05078,0.203125 0.171875,0.425781 0.320313,0.582031 0.5,0.542969 1.777343,1.175781 2.457031,1.21875 l 0.195312,0.01172 -0.01562,0.08203 c -0.0078,0.04297 -0.01172,0.140625 -0.01172,0.21875 l 0.0039,0.140625 -0.09766,0.01563 c -0.05469,0.0078 -0.167969,0.04687 -0.25,0.08984 -0.265625,0.132813 -0.484375,0.316406 -0.933594,0.773437 -0.234375,0.242188 -0.707031,0.71875 -1.046875,1.058594 -0.613281,0.613282 -0.691406,0.707032 -0.691406,0.816406 0,0.222657 0.304687,0.496094 0.75,0.679688 0.21875,0.08984 0.414062,0.128906 0.652344,0.125 0.246093,0 0.382812,-0.03125 0.601562,-0.136719 0.371094,-0.183593 0.738281,-0.648437 1.113281,-1.414062 0.265625,-0.53125 0.417969,-1.019531 0.417969,-1.332031 v -0.121094 l 0.07422,0.01563 c 0.03906,0.0078 0.140625,0.01172 0.222656,0.01172 h 0.148437 l 0.01563,0.09375 c 0.0078,0.05469 0.04687,0.167968 0.08984,0.25 0.132813,0.265624 0.316407,0.484374 0.777344,0.933593 0.238281,0.234375 0.707031,0.703125 1.046875,1.039063 0.609375,0.613281 0.714844,0.699218 0.835938,0.699218 0.199218,0 0.429687,-0.246093 0.628906,-0.660156 0.117187,-0.246094 0.167968,-0.476562 0.167968,-0.742187 0,-0.246094 -0.03125,-0.382813 -0.144531,-0.605469 -0.171875,-0.351562 -0.621093,-0.714844 -1.324219,-1.074219 -0.539062,-0.273437 -0.996093,-0.421875 -1.34375,-0.445312 l -0.195312,-0.01172 0.01563,-0.07031 c 0.0078,-0.03906 0.01172,-0.136719 0.01172,-0.222657 v -0.148437 l 0.08984,-0.01563 c 0.128906,-0.01563 0.378906,-0.140625 0.589843,-0.296875 0.105469,-0.08203 0.34375,-0.308594 0.601563,-0.566406 0.230468,-0.238282 0.703125,-0.714844 1.046875,-1.058594 0.609375,-0.609375 0.6875,-0.703125 0.6875,-0.816406 0,-0.21875 -0.300781,-0.496094 -0.734375,-0.675782 -0.234375,-0.09375 -0.421875,-0.132812 -0.664063,-0.132812 -0.25,0.0039 -0.382812,0.03516 -0.613281,0.144531 -0.335938,0.164063 -0.710938,0.628906 -1.058594,1.308594 -0.300781,0.59375 -0.460937,1.082031 -0.460937,1.417969 v 0.136718 l -0.08203,-0.01563 c -0.04688,-0.0078 -0.148438,-0.01172 -0.226563,-0.01172 l -0.140625,0.0039 -0.01172,-0.09375 C 47.84375,62.851562 47.71875,62.601562 47.5625,62.394531 47.484375,62.285156 47.257812,62.046875 46.996094,61.792969 46.757812,61.558594 46.28125,61.085938 45.9375,60.742188 c -0.375,-0.371094 -0.652344,-0.632813 -0.695312,-0.652344 -0.07813,-0.03906 -0.160157,-0.04297 -0.234376,-0.01172 z m 0.769532,0.949219 c 0.363281,0.363281 0.777344,0.765625 0.921875,0.898437 0.589843,0.546875 0.933593,1.042969 0.855469,1.230469 -0.05469,0.128906 -0.253907,0.164062 -0.566407,0.09766 -0.523437,-0.109375 -1.195312,-0.417968 -1.722656,-0.792968 -0.359375,-0.253907 -0.492187,-0.410157 -0.589844,-0.675782 -0.0625,-0.175781 -0.06641,-0.464844 -0.01563,-0.664062 0.04297,-0.15625 0.144532,-0.378906 0.230469,-0.507813 0.0625,-0.09375 0.195313,-0.242187 0.214844,-0.242187 0.0039,0 0.308593,0.296875 0.671875,0.65625 z m 5.023437,-0.585938 c 0.234375,0.0625 0.554688,0.238282 0.691407,0.382813 l 0.05469,0.05859 -0.65625,0.667969 c -0.363281,0.367188 -0.808594,0.820313 -0.988281,1.003907 -0.449219,0.464843 -0.753906,0.703124 -0.984375,0.769531 -0.207031,0.05859 -0.289063,-0.03125 -0.285157,-0.320313 0,-0.191406 0.03906,-0.367187 0.15625,-0.699218 0.203126,-0.582032 0.679688,-1.382813 0.980469,-1.644532 0.273438,-0.242187 0.640625,-0.320312 1.03125,-0.21875 z m -2.515625,2.992188 c 0.113282,0.0625 0.207032,0.183594 0.234375,0.316406 0.07422,0.316406 -0.226562,0.621094 -0.539062,0.550781 -0.128907,-0.03125 -0.21875,-0.08984 -0.289063,-0.183593 -0.136718,-0.1875 -0.117187,-0.433594 0.05078,-0.597657 0.148437,-0.152343 0.351562,-0.183593 0.542968,-0.08594 z m -0.898437,0.925781 c 0.285156,0.132813 0.03906,1.09375 -0.511719,2 -0.429688,0.703125 -0.71875,0.925781 -1.207031,0.925781 -0.121094,0 -0.242188,-0.01172 -0.324219,-0.03516 -0.246094,-0.06641 -0.5625,-0.242188 -0.699219,-0.382812 l -0.05859,-0.06641 0.640624,-0.644531 c 0.355469,-0.355469 0.746094,-0.753906 0.867188,-0.890625 0.40625,-0.4375 0.816406,-0.78125 1.0625,-0.882813 0.128906,-0.05078 0.160156,-0.05469 0.230469,-0.02344 z m 1.859375,0.09766 c 0.550781,0.140625 1.234375,0.472657 1.71875,0.835938 0.363281,0.277343 0.503906,0.496093 0.546875,0.859375 0.01563,0.152344 -0.03516,0.441406 -0.113281,0.628906 -0.07031,0.164062 -0.21875,0.394531 -0.308594,0.488281 l -0.0625,0.05469 -0.667969,-0.660157 c -0.363281,-0.363281 -0.78125,-0.769531 -0.925781,-0.902343 -0.585938,-0.542969 -0.929688,-1.042969 -0.851563,-1.230469 0.05859,-0.136719 0.308594,-0.167969 0.664063,-0.07422 z m 0,0"
       fill-opacity="1"
       fill-rule="nonzero"
       id="path145" />
  </g>
  <g
     clip-path="url(#f2ce5eb4c5)"
     id="g153">
    <g
       clip-path="url(#91834400e6)"
       id="g151">
      <path
         fill="#e9b529"
         d="M 23.027344,22.527344 H 52.972656 V 52.472656 H 23.027344 Z m 0,0"
         fill-opacity="1"
         fill-rule="nonzero"
         id="path149" />
    </g>
  </g>
  <g
     clip-path="url(#0166594e1b)"
     id="g157">
    <path
       stroke-linecap="butt"
       transform="matrix(0.75,0,0,0.75,1.5e-6,-1e-6)"
       fill="none"
       stroke-linejoin="miter"
       d="M 50.000002,1.33333e-6 C 22.385416,1.33333e-6 -2e-6,22.38542 -2e-6,50.000005 c 0,27.614586 22.385418,50.000005 50.000004,50.000005 27.614586,0 50.000008,-22.385419 50.000008,-50.000005 C 100.00001,22.38542 77.614588,1.33333e-6 50.000002,1.33333e-6 Z m 0,0"
       stroke="#004aad"
       stroke-width="2"
       stroke-opacity="1"
       stroke-miterlimit="4"
       id="path155" />
  </g>
  <path
     style="fill:#ffffff;stroke:#111117;stroke-width:0.00896055;stroke-miterlimit:0.7"
     d="M 35.346895,74.142137 C 20.446105,73.286 7.4137494,63.295512 2.6851604,49.103942 0.70179072,43.151399 0.27486167,36.838154 1.4399271,30.689963 3.2050141,21.375386 8.4664895,13.162092 16.226328,7.608026 27.175826,-0.22902509 41.730087,-1.3904862 53.778156,4.6113099 67.800751,11.596725 75.867088,26.619664 73.915017,42.114694 71.952744,57.690721 60.108247,70.411387 44.71326,73.476584 c -3.244314,0.645955 -6.133856,0.851279 -9.366365,0.665553 z m -2.775211,-4.080582 c 1.318116,-0.2974 2.781658,-1.253027 3.534275,-2.307725 2.205674,-3.090975 1.504728,-7.103227 -1.604215,-9.182615 -1.223634,-0.818416 -2.585873,-1.210834 -4.215006,-1.214208 -1.648557,-0.0035 -2.937224,0.430716 -4.121864,1.388588 -1.023102,0.827256 -1.833839,2.170762 -2.141081,3.548078 -0.184635,0.827692 -0.185044,2.220842 -9e-4,2.978378 0.837579,3.445145 4.762078,5.643873 8.548764,4.789504 z m 16.89068,-0.655735 c 4.369212,-1.147337 6.444288,-5.397072 4.531457,-9.280374 -1.366347,-2.773864 -4.553711,-4.06278 -7.752842,-3.135117 -2.054429,0.595729 -3.639731,1.871931 -4.450995,3.583146 -1.468302,3.097114 -0.132924,6.950971 2.919313,8.425046 0.445729,0.215263 1.092673,0.45341 1.437655,0.529215 0.841954,0.185005 2.359062,0.129217 3.315412,-0.121916 z M 17.607527,61.373888 c 0,-1.241398 -0.0083,-1.302676 -0.170161,-1.251314 -0.29953,0.09507 -1.380451,-0.127697 -1.941264,-0.400068 -0.726055,-0.352626 -1.564282,-1.228734 -1.945339,-2.03325 -0.262968,-0.555201 -0.289115,-0.68781 -0.289115,-1.466306 0,-0.806222 0.01922,-0.894799 0.331205,-1.526051 0.361404,-0.73125 0.937812,-1.376955 1.640121,-1.8373 1.01796,-0.667246 2.365977,-0.757543 3.48583,-0.2335 0.690386,0.323071 1.615125,1.181753 1.923385,1.785995 0.264332,0.518132 0.459961,1.314108 0.459961,1.871487 v 0.46636 l 0.694445,0.05408 c 0.381944,0.02974 0.966621,0.07595 1.299282,0.102677 l 0.604839,0.04859 v -0.591639 c 0,-1.817599 -0.845934,-3.627294 -2.343827,-5.014113 -0.991951,-0.918395 -2.032414,-1.474848 -3.28962,-1.75933 -0.60258,-0.136353 -2.134329,-0.1077 -2.744688,0.05134 -1.799184,0.468817 -3.407588,1.780268 -4.254413,3.46894 -0.488015,0.973162 -0.661365,1.829992 -0.609906,3.014635 0.07211,1.65983 0.754509,3.16868 2.018527,4.463103 1.344725,1.377071 2.811722,2.066049 4.436293,2.083514 l 0.694445,0.0075 z m 48.470572,-3.309373 c 1.530864,-1.724911 2.773426,-3.158687 2.761247,-3.18617 -0.01218,-0.02748 -0.412315,-0.400951 -0.889191,-0.829931 l -0.867048,-0.779962 -2.035582,2.28921 c -1.11957,1.259065 -2.06478,2.277695 -2.100467,2.263622 -0.03569,-0.01407 -1.70581,-1.489802 -3.711386,-3.279398 -2.005576,-1.789596 -3.679632,-3.241208 -3.720124,-3.225806 -0.117429,0.04467 -1.886517,2.044349 -1.886517,2.132416 0,0.0438 2.063353,1.919257 4.585228,4.167684 l 4.58523,4.08805 0.247609,-0.251757 c 0.136185,-0.138466 1.500136,-1.663048 3.031001,-3.387958 z M 41.068623,52.205236 c 6.320813,-1.40886 10.963026,-6.414304 11.803493,-12.727063 0.758598,-5.697839 -1.788473,-11.301805 -6.590755,-14.500716 -1.469104,-0.978604 -3.365008,-1.769735 -5.258631,-2.194345 -0.772012,-0.173111 -1.141894,-0.197271 -3.029899,-0.197916 -2.049792,-7.17e-4 -2.200844,0.01115 -3.224368,0.252971 -6.087654,1.438276 -10.462202,6.016841 -11.568544,12.108069 -0.224411,1.235551 -0.223466,3.852776 0.0019,5.107526 0.569237,3.170054 1.96339,5.824363 4.259347,8.109319 2.019413,2.009737 4.480421,3.356148 7.262547,3.97332 1.410812,0.312967 1.410998,0.312982 3.58279,0.282307 1.549782,-0.02189 2.089939,-0.06364 2.762172,-0.213472 z M 14.010745,29.427205 c 0.648979,-0.372154 1.868701,-1.559566 2.412552,-2.348645 0.946552,-1.373357 1.372019,-2.531935 1.372079,-3.736266 5.7e-5,-1.15314 -0.260826,-1.782003 -1.035489,-2.496063 -0.598376,-0.551563 -1.118225,-0.757434 -1.930138,-0.764376 -1.11203,-0.0095 -1.565184,0.260322 -3.339621,1.98858 -1.7954505,1.748723 -2.0512193,1.90234 -2.650968,1.592199 -1.1134987,-0.575813 -0.1669732,-2.864796 1.750407,-4.23301 0.311491,-0.222275 0.566347,-0.425045 0.566347,-0.450599 0,-0.03862 -1.043104,-1.422566 -1.2601803,-1.671953 -0.1095412,-0.125848 -1.0737832,0.591369 -1.7293844,1.28634 -1.0254181,1.086998 -1.7679,2.401663 -2.0306091,3.595469 -0.063211,0.287247 -0.093809,0.831348 -0.071091,1.264179 0.050991,0.971505 0.3314967,1.579436 1.018467,2.207288 0.6580581,0.601429 1.3086516,0.844415 2.1497548,0.802901 1.053354,-0.05199 1.545723,-0.357854 3.197581,-1.986375 0.867357,-0.855103 1.554303,-1.455508 1.803102,-1.57595 0.371997,-0.18008 0.425394,-0.184762 0.717122,-0.06287 0.69452,0.290189 0.758232,1.034472 0.187576,2.191214 -0.264405,0.53596 -0.518589,0.865566 -1.152707,1.494745 -0.467192,0.463554 -1.023301,0.917607 -1.306334,1.066595 -0.271058,0.142684 -0.508374,0.272152 -0.527371,0.287706 -0.06984,0.05719 1.204952,1.826598 1.314948,1.825146 0.03503,-4.48e-4 0.279803,-0.124778 0.543957,-0.276255 z m 46.76437,-3.410218 1.657578,-0.99611 4.200319,0.06606 c 2.310176,0.03633 4.200319,0.04387 4.200319,0.01675 0,-0.02712 -0.305062,-0.555496 -0.677914,-1.174168 L 69.477501,22.804658 H 66.61599 c -1.573831,0 -2.861511,-0.01981 -2.861511,-0.04402 0,-0.02421 0.584677,-1.143111 1.299283,-2.486446 0.714605,-1.343334 1.299283,-2.496467 1.299283,-2.562517 0,-0.182605 -1.376451,-2.438386 -1.442632,-2.364242 -0.03178,0.03561 -0.915263,1.677654 -1.963275,3.64898 -1.048012,1.971326 -1.946184,3.635828 -1.995936,3.698893 -0.04976,0.06307 -0.840578,0.563391 -1.757391,1.111836 -0.916812,0.548444 -1.678728,1.005956 -1.693149,1.016691 -0.01442,0.01073 0.282178,0.531235 0.659103,1.156665 0.504567,0.837222 0.721251,1.123359 0.821547,1.084872 0.07493,-0.02876 0.882135,-0.500524 1.793803,-1.048385 z M 56.534084,14.796421 c 1.465471,-2.654979 2.631103,-4.8599953 2.590292,-4.900037 -0.1086,-0.1065578 -2.168316,-1.2498 -2.247275,-1.2473475 -0.03689,0.00113 -0.530626,0.84792 -1.097197,1.8817205 -0.566572,1.0338 -1.065702,1.879637 -1.109178,1.879637 -0.08623,0 -3.873857,-2.084307 -4.136124,-2.276082 -0.149942,-0.109641 -0.08738,-0.2516253 0.8905,-2.0208955 0.578474,-1.0466333 1.036152,-1.9185889 1.017063,-1.9376789 -0.08094,-0.080936 -2.330019,-1.2996046 -2.352565,-1.2747413 -0.07514,0.082857 -5.421142,9.7985187 -5.421142,9.8522167 0,0.08902 2.259767,1.329464 2.336048,1.28232 0.03389,-0.02095 0.540294,-0.905158 1.125334,-1.964911 0.585038,-1.059751 1.097828,-1.927322 1.139532,-1.927933 0.110082,-0.0017 4.174895,2.24716 4.233604,2.342154 0.0272,0.044 -0.444167,0.974024 -1.047465,2.066724 -0.603298,1.092699 -1.05985,2.000737 -1.014561,2.017863 0.04529,0.01713 0.566217,0.305984 1.157615,0.641906 0.78366,0.44513 1.101814,0.583859 1.173149,0.511543 0.05383,-0.05457 1.2969,-2.271479 2.76237,-4.926458 z m -32.25093,3.436666 c 2.09033,-0.660197 3.770397,-2.201261 4.44392,-4.076243 0.271818,-0.756701 0.336912,-2.37405 0.127994,-3.180142 -0.33353,-1.2868913 -1.19464,-2.592585 -2.185871,-3.314418 -0.302019,-0.2199359 -0.549126,-0.4095365 -0.549126,-0.421335 0,-0.011798 0.122111,-0.1605287 0.271358,-0.3305119 L 26.662788,6.601377 26.413831,6.5535067 C 25.937,6.4618198 21.552016,6.1062873 21.502966,6.155336 c -0.05223,0.052229 1.083855,4.678652 1.199774,4.885788 0.04784,0.08547 0.290174,-0.142802 0.824086,-0.776234 0.41598,-0.493519 0.80068,-0.898159 0.85489,-0.8991992 0.169764,-0.00322 0.796466,0.4968884 1.095129,0.8739812 0.157338,0.198656 0.416328,0.637288 0.575531,0.974739 0.258862,0.548689 0.289579,0.698794 0.290585,1.419997 9.75e-4,0.697119 -0.03315,0.88061 -0.25168,1.353457 -0.609281,1.318327 -2.086659,2.188451 -3.520358,2.073367 -1.550209,-0.124436 -2.892009,-1.466185 -3.18709,-3.186972 -0.135286,-0.788923 0.0496,-1.627146 0.512754,-2.324709 L 20.210623,10.07658 20.185955,8.679632 20.161288,7.2826848 19.472007,7.743833 c -2.613721,1.7486535 -3.483439,4.873495 -2.109906,7.580761 0.769362,1.516433 2.053638,2.565145 3.682883,3.007365 0.857636,0.232786 2.330451,0.187815 3.238168,-0.09887 z M 42.249103,13.172043 V 12.051971 H 39.471325 36.693547 V 7.5268813 3.001792 h -1.388889 -1.388889 v 5.645161 5.645161 h 4.166667 4.166667 z"
     id="path1137" />
</svg>
