<svg class="main-svg" xmlns="http://www.w3.org/2000/svg" xmlns:xlink="http://www.w3.org/1999/xlink" width="2000" height="800" style="" viewBox="0 0 1000 400"><rect x="0" y="0" width="1000" height="400" style="fill: rgb(0, 0, 0); fill-opacity: 0;"/><defs id="defs-b458cd"><g class="clips"/><g class="gradients"/><g class="patterns"><pattern id="pb458cd-db5603-0" width="11.313708498984761px" height="11.313708498984761px" patternUnits="userSpaceOnUse" patternTransform=""><rect width="11.313708498984761px" height="11.313708498984761px" fill="rgb(254, 203, 82)" fill-opacity="1"/><path d="M-2.8284271247461903,2.8284271247461903l5.656854249492381,-5.656854249492381M0,11.313708498984761L11.313708498984761,0M8.485281374238571,14.142135623730951l5.656854249492381,-5.656854249492381" opacity="0" stroke="rgb(0, 0, 0)" stroke-width="2.4px"/></pattern><pattern id="pb458cd-db5603-1" width="11.313708498984761px" height="11.313708498984761px" patternUnits="userSpaceOnUse" patternTransform=""><rect width="11.313708498984761px" height="11.313708498984761px" fill="rgb(254, 203, 82)" fill-opacity="1"/><path d="M-2.8284271247461903,2.8284271247461903l5.656854249492381,-5.656854249492381M0,11.313708498984761L11.313708498984761,0M8.485281374238571,14.142135623730951l5.656854249492381,-5.656854249492381" opacity="0" stroke="rgb(0, 0, 0)" stroke-width="2.4px"/></pattern><pattern id="pb458cd-db5603-2" width="11.313708498984761px" height="11.313708498984761px" patternUnits="userSpaceOnUse" patternTransform=""><rect width="11.313708498984761px" height="11.313708498984761px" fill="rgb(254, 203, 82)" fill-opacity="1"/><path d="M-2.8284271247461903,2.8284271247461903l5.656854249492381,-5.656854249492381M0,11.313708498984761L11.313708498984761,0M8.485281374238571,14.142135623730951l5.656854249492381,-5.656854249492381" opacity="0" stroke="rgb(0, 0, 0)" stroke-width="2.4px"/></pattern><pattern id="pb458cd-db5603-3" width="11.313708498984761px" height="11.313708498984761px" patternUnits="userSpaceOnUse" patternTransform=""><rect width="11.313708498984761px" height="11.313708498984761px" fill="rgb(90, 169, 162)" fill-opacity="1"/><path d="M-2.8284271247461903,2.8284271247461903l5.656854249492381,-5.656854249492381M0,11.313708498984761L11.313708498984761,0M8.485281374238571,14.142135623730951l5.656854249492381,-5.656854249492381" opacity="0" stroke="rgb(0, 0, 0)" stroke-width="2.4px"/></pattern><pattern id="pb458cd-db5603-4" width="11.313708498984761px" height="11.313708498984761px" patternUnits="userSpaceOnUse" patternTransform=""><rect width="11.313708498984761px" height="11.313708498984761px" fill="rgb(90, 169, 162)" fill-opacity="1"/><path d="M-2.8284271247461903,2.8284271247461903l5.656854249492381,-5.656854249492381M0,11.313708498984761L11.313708498984761,0M8.485281374238571,14.142135623730951l5.656854249492381,-5.656854249492381" opacity="0" stroke="rgb(0, 0, 0)" stroke-width="2.4px"/></pattern><pattern id="pb458cd-f8deda-0" width="11.313708498984761px" height="11.313708498984761px" patternUnits="userSpaceOnUse" patternTransform=""><rect width="11.313708498984761px" height="11.313708498984761px" fill="rgb(131, 179, 102)" fill-opacity="1"/><path d="M-2.8284271247461903,2.8284271247461903l5.656854249492381,-5.656854249492381M0,11.313708498984761L11.313708498984761,0M8.485281374238571,14.142135623730951l5.656854249492381,-5.656854249492381" opacity="0" stroke="rgb(0, 0, 0)" stroke-width="2.4px"/></pattern><pattern id="pb458cd-f8deda-1" width="11.313708498984761px" height="11.313708498984761px" patternUnits="userSpaceOnUse" patternTransform=""><rect width="11.313708498984761px" height="11.313708498984761px" fill="rgb(149, 115, 166)" fill-opacity="1"/><path d="M-2.8284271247461903,2.8284271247461903l5.656854249492381,-5.656854249492381M0,11.313708498984761L11.313708498984761,0M8.485281374238571,14.142135623730951l5.656854249492381,-5.656854249492381" opacity="0" stroke="rgb(0, 0, 0)" stroke-width="2.4px"/></pattern><pattern id="pb458cd-dc2d41-0" width="11.313708498984761px" height="11.313708498984761px" patternUnits="userSpaceOnUse" patternTransform=""><rect width="11.313708498984761px" height="11.313708498984761px" fill="rgb(131, 179, 102)" fill-opacity="1"/><path d="M-2.8284271247461903,2.8284271247461903l5.656854249492381,-5.656854249492381M0,11.313708498984761L11.313708498984761,0M8.485281374238571,14.142135623730951l5.656854249492381,-5.656854249492381" opacity="0" stroke="rgb(0, 0, 0)" stroke-width="2.4px"/></pattern><pattern id="pb458cd-dc2d41-1" width="11.313708498984761px" height="11.313708498984761px" patternUnits="userSpaceOnUse" patternTransform=""><rect width="11.313708498984761px" height="11.313708498984761px" fill="rgb(131, 179, 102)" fill-opacity="1"/><path d="M-2.8284271247461903,2.8284271247461903l5.656854249492381,-5.656854249492381M0,11.313708498984761L11.313708498984761,0M8.485281374238571,14.142135623730951l5.656854249492381,-5.656854249492381" opacity="1" stroke="rgb(149, 115, 166)" stroke-width="2.4px"/></pattern><pattern id="pb458cd-dc2d41-2" width="11.313708498984761px" height="11.313708498984761px" patternUnits="userSpaceOnUse" patternTransform=""><rect width="11.313708498984761px" height="11.313708498984761px" fill="rgb(149, 115, 166)" fill-opacity="1"/><path d="M-2.8284271247461903,2.8284271247461903l5.656854249492381,-5.656854249492381M0,11.313708498984761L11.313708498984761,0M8.485281374238571,14.142135623730951l5.656854249492381,-5.656854249492381" opacity="0" stroke="rgb(0, 0, 0)" stroke-width="2.4px"/></pattern></g></defs><g class="bglayer"/><g class="layer-below"><g class="imagelayer"/><g class="shapelayer"/></g><g class="cartesianlayer"/><g class="polarlayer"/><g class="smithlayer"/><g class="ternarylayer"/><g class="geolayer"/><g class="funnelarealayer"/><g class="pielayer"><g class="trace" stroke-linejoin="round" style="opacity: 1;"><g class="slice"><path class="surface pattern_filled" d="M359.2802718978543,229.29838739120103a62.75,62.75 0 0 0 -61.98027189785434,-72.54838739120103l0,-62.75a125.5,125.5 0 0 1 123.96054379570867,145.09677478240206Z" style="pointer-events: none; stroke-width: 3; fill: url('#pb458cd-db5603-0'); stroke: rgb(204, 204, 204); stroke-opacity: 1;"/><g class="slicetext"><text data-notex="1" class="slicetext" transform="translate(448.4301316780883,123.40932622923333)" text-anchor="middle" x="0" y="0" style="font-family: 'Open Sans', verdana, arial, sans-serif; font-size: 18px; fill: rgb(51, 51, 51); fill-opacity: 1; white-space: pre;"><tspan class="line" dy="0em" x="0" y="0"><tspan style="font-weight:bold">pumping</tspan></tspan><tspan class="line" dy="1.3em" x="0" y="0">27.5 %</tspan><tspan class="line" dy="2.6em" x="0" y="0"></tspan></text></g></g><g class="slice"><path class="surface pattern_filled" d="M297.29999999999995,156.75a62.75,62.75 0 0 0 -57.5711984421511,37.78763613087777l-57.5711984421511,-24.962363869122225a125.5,125.5 0 0 1 115.1423968843022,-75.57527226175554Z" style="pointer-events: none; stroke-width: 3; fill: url('#pb458cd-db5603-1'); stroke: rgb(131, 179, 102); stroke-opacity: 1;"/><g class="slicetext"><text data-notex="1" class="slicetext" transform="translate(185.8806021294106,93.8604899496958)" text-anchor="middle" x="0" y="0" style="font-family: 'Open Sans', verdana, arial, sans-serif; font-size: 18px; fill: rgb(51, 51, 51); fill-opacity: 1; white-space: pre;"><tspan class="line" dy="0em" x="0" y="0"><tspan style="font-weight:bold">DC</tspan></tspan><tspan class="line" dy="1.3em" x="0" y="0">18.5 %</tspan><tspan class="line" dy="2.6em" x="0" y="0"></tspan></text></g></g><g class="slice"><path class="surface pattern_filled" d="M239.72880155784884,194.5376361308778a62.75,62.75 0 0 0 -1.1173207681987378,47.17092557168185l-58.68851921034984,22.208561702559624a125.5,125.5 0 0 1 2.2346415363974756,-94.3418511433637Z" style="pointer-events: none; stroke-width: 3; fill: url('#pb458cd-db5603-2'); stroke: rgb(149, 115, 166); stroke-opacity: 1;"/><g class="slicetext"><text data-notex="1" class="slicetext" transform="translate(129.28050401599364,211.31258492146304)" text-anchor="middle" x="0" y="0" style="font-family: 'Open Sans', verdana, arial, sans-serif; font-size: 18px; fill: rgb(51, 51, 51); fill-opacity: 1; white-space: pre;"><tspan class="line" dy="0em" x="0" y="0"><tspan style="font-weight:bold">WCT</tspan></tspan><tspan class="line" dy="1.3em" x="0" y="0">12.3 %</tspan><tspan class="line" dy="2.6em" x="0" y="0"></tspan></text></g></g><g class="slice"><path class="surface pattern_filled" d="M238.6114807896501,241.70856170255962a62.75,62.75 0 0 0 0.11283250296299485,0.29591400246545874l-58.57568670738684,22.504475705025083a125.5,125.5 0 0 1 -0.2256650059259897,-0.5918280049309175Z" style="pointer-events: none; stroke-width: 3; fill: url('#pb458cd-db5603-3'); stroke: rgb(54, 215, 243); stroke-opacity: 1;"/><g class="slicetext"><text data-notex="1" class="slicetext" transform="translate(93.34010821616761,261.82842319234146)" text-anchor="middle" x="0" y="0" style="font-family: 'Open Sans', verdana, arial, sans-serif; font-size: 18px; fill: rgb(51, 51, 51); fill-opacity: 1; white-space: pre;"><tspan class="line" dy="0em" x="0" y="0"><tspan style="font-weight:bold">water source 1</tspan></tspan><tspan class="line" dy="1.3em" x="0" y="0">0.1 %</tspan><tspan class="line" dy="2.6em" x="0" y="0"></tspan></text></g></g><g class="slice"><path class="surface pattern_filled" d="M238.72431329261312,242.00447570502507a62.75,62.75 0 0 0 120.55595860524119,-12.706088313824061l61.980271897854344,9.798387391201022a125.5,125.5 0 0 1 -241.11191721048237,25.412176627648122Z" style="pointer-events: none; stroke-width: 3; fill: url('#pb458cd-db5603-4'); stroke: rgb(108, 142, 191); stroke-opacity: 1;"/><g class="slicetext"><text data-notex="1" class="slicetext" transform="translate(397.1496228413994,361.0647814563005)" text-anchor="middle" x="0" y="0" style="font-family: 'Open Sans', verdana, arial, sans-serif; font-size: 18px; fill: rgb(51, 51, 51); fill-opacity: 1; white-space: pre;"><tspan class="line" dy="0em" x="0" y="0"><tspan style="font-weight:bold">water source 2</tspan></tspan><tspan class="line" dy="1.3em" x="0" y="0">41.7 %</tspan><tspan class="line" dy="2.6em" x="0" y="0"></tspan></text></g></g><g class="titletext"><text data-notex="1" class="titletext" transform="translate(297.29999999999995,219.5)translate(0,8)" text-anchor="middle" x="0" y="0" style="font-family: 'Open Sans', verdana, arial, sans-serif; font-size: 20px; fill: rgb(51, 51, 51); fill-opacity: 1; white-space: pre;"><tspan style="font-weight:bold">Costs</tspan></text></g></g><g class="trace" stroke-linejoin="round" style="opacity: 1;"><g class="slice"><path class="surface pattern_filled" d="M629.6667281601394,255.64370661442425a37.79999999999999,37.79999999999999 0 0 0 -11.066728160139506,-73.94370661442423l0,-37.79999999999999a75.59999999999998,75.59999999999998 0 0 1 22.133456320279013,147.88741322884846Z" style="pointer-events: none; stroke-width: 3; fill: url('#pb458cd-f8deda-0'); stroke: rgb(0, 0, 0); stroke-opacity: 0;"/><g class="slicetext"><text data-notex="1" class="slicetext" transform="translate(735.9219545361199,202.620448969044)" text-anchor="middle" x="0" y="0" style="font-family: 'Open Sans', verdana, arial, sans-serif; font-size: 18px; fill: rgb(51, 51, 51); fill-opacity: 1; white-space: pre;"><tspan class="line" dy="0em" x="0" y="0"><tspan style="font-weight:bold">DC</tspan></tspan><tspan class="line" dy="1.3em" x="0" y="0">46.2 %</tspan><tspan class="line" dy="2.6em" x="0" y="0"></tspan></text></g></g><g class="slice"><path class="surface pattern_filled" d="M618.5999999999999,181.70000000000002a37.79999999999999,37.79999999999999 0 1 0 11.066728160139498,73.94370661442423l11.066728160139498,36.14370661442424a75.59999999999998,75.59999999999998 0 1 1 -22.133456320278995,-147.88741322884846Z" style="pointer-events: none; stroke-width: 3; fill: url('#pb458cd-f8deda-1'); stroke: rgb(0, 0, 0); stroke-opacity: 0;"/><g class="slicetext"><text data-notex="1" class="slicetext" transform="translate(501.27804546387995,225.97330103095598)" text-anchor="middle" x="0" y="0" style="font-family: 'Open Sans', verdana, arial, sans-serif; font-size: 18px; fill: rgb(51, 51, 51); fill-opacity: 1; white-space: pre;"><tspan class="line" dy="0em" x="0" y="0"><tspan style="font-weight:bold">WCT</tspan></tspan><tspan class="line" dy="1.3em" x="0" y="0">55.8 %</tspan><tspan class="line" dy="2.6em" x="0" y="0"></tspan></text></g></g><g class="titletext"><text data-notex="1" class="titletext" transform="translate(618.5999999999999,219.5)scale(0.5215035599936683)translate(0,-19.1015625)" text-anchor="middle" x="0" y="0" style="font-family: 'Open Sans', verdana, arial, sans-serif; font-size: 20px; fill: rgb(51, 51, 51); fill-opacity: 1; white-space: pre;"><tspan class="line" dy="0em" x="0" y="0"><tspan style="font-weight:bold">Cooling</tspan></tspan><tspan class="line" dy="1.3em" x="0" y="0"><tspan style="font-weight:bold">power</tspan></tspan><tspan class="line" dy="2.6em" x="0" y="0">134.79 kW​<tspan style="font-size:70%" dy="0.3em">th</tspan><tspan dy="-0.21em">​</tspan></tspan></text></g></g><g class="trace" stroke-linejoin="round" style="opacity: 1;"><g class="slice"><path class="surface pattern_filled" d="M850.7587789471645,256.9182240117757a37.79999999999999,37.79999999999999 0 0 0 -5.358778947164535,-75.21822401177566l0,-37.79999999999999a75.59999999999998,75.59999999999998 0 0 1 10.71755789432907,150.43644802355132Z" style="pointer-events: none; stroke-width: 3; fill: url('#pb458cd-dc2d41-0'); stroke: rgb(0, 0, 0); stroke-opacity: 0;"/><g class="slicetext"><text data-notex="1" class="slicetext" transform="translate(963.3635579018979,208.81238921126368)" text-anchor="middle" x="0" y="0" style="font-family: 'Open Sans', verdana, arial, sans-serif; font-size: 18px; fill: rgb(51, 51, 51); fill-opacity: 1; white-space: pre;"><tspan class="line" dy="0em" x="0" y="0"><tspan style="font-weight:bold">DC</tspan></tspan><tspan class="line" dy="1.3em" x="0" y="0">47.7 %</tspan><tspan class="line" dy="2.6em" x="0" y="0"></tspan></text></g></g><g class="slice"><path class="surface pattern_filled" d="M845.4,181.70000000000002a37.79999999999999,37.79999999999999 0 0 0 -22.834366015299324,7.676392502236009l-22.834366015299324,-30.12360749776398a75.59999999999998,75.59999999999998 0 0 1 45.66873203059865,-15.352785004472018Z" style="pointer-events: none; stroke-width: 3; fill: url('#pb458cd-dc2d41-1'); stroke: rgb(0, 0, 0); stroke-opacity: 0;"/><g class="slicetext"><text data-notex="1" class="slicetext" transform="translate(767.3332886177485,122.68915922123855)" text-anchor="middle" x="0" y="0" style="font-family: 'Open Sans', verdana, arial, sans-serif; font-size: 18px; fill: rgb(51, 51, 51); fill-opacity: 1; white-space: pre;"><tspan class="line" dy="0em" x="0" y="0"><tspan style="font-weight:bold">DC🠒WCT</tspan></tspan><tspan class="line" dy="1.3em" x="0" y="0">10.3 %</tspan><tspan class="line" dy="2.6em" x="0" y="0"></tspan></text></g></g><g class="slice"><path class="surface pattern_filled" d="M822.5656339847006,189.37639250223603a37.79999999999999,37.79999999999999 0 0 0 28.1931449624639,67.54183150953965l5.358778947164576,37.41822401177566a75.59999999999998,75.59999999999998 0 0 1 -56.3862899249278,-135.0836630190793Z" style="pointer-events: none; stroke-width: 3; fill: url('#pb458cd-dc2d41-2'); stroke: rgb(0, 0, 0); stroke-opacity: 0;"/><g class="slicetext"><text data-notex="1" class="slicetext" transform="translate(733.0793096974959,246.71300442460935)" text-anchor="middle" x="0" y="0" style="font-family: 'Open Sans', verdana, arial, sans-serif; font-size: 18px; fill: rgb(51, 51, 51); fill-opacity: 1; white-space: pre;"><tspan class="line" dy="0em" x="0" y="0"><tspan style="font-weight:bold">WCT</tspan></tspan><tspan class="line" dy="1.3em" x="0" y="0">41.9 %</tspan><tspan class="line" dy="2.6em" x="0" y="0"></tspan></text></g></g><g class="titletext"><text data-notex="1" class="titletext" transform="translate(845.4,219.5)scale(0.5344845752088817)translate(0,-5)" text-anchor="middle" x="0" y="0" style="font-family: 'Open Sans', verdana, arial, sans-serif; font-size: 20px; fill: rgb(51, 51, 51); fill-opacity: 1; white-space: pre;"><tspan class="line" dy="0em" x="0" y="0"><tspan style="font-weight:bold">Hydraulic</tspan></tspan><tspan class="line" dy="1.3em" x="0" y="0"><tspan style="font-weight:bold">distribution</tspan></tspan></text></g></g></g><g class="iciclelayer"/><g class="treemaplayer"/><g class="sunburstlayer"/><g class="glimages"/><defs id="topdefs-b458cd"><g class="clips"/></defs><g class="layer-above"><g class="imagelayer"/><g class="shapelayer"/></g><g class="infolayer"><g class="g-gtitle"><text class="gtitle" x="500" y="47" text-anchor="middle" dy="0em" style="opacity: 1; font-family: 'Open Sans', verdana, arial, sans-serif; font-size: 17px; fill: rgb(51, 51, 51); fill-opacity: 1; white-space: pre;">Year averages</text></g></g></svg>