<svg class="main-svg" xmlns="http://www.w3.org/2000/svg" xmlns:xlink="http://www.w3.org/1999/xlink" width="2000" height="800" style="" viewBox="0 0 1000 400"><rect x="0" y="0" width="1000" height="400" style="fill: rgb(0, 0, 0); fill-opacity: 0;"/><defs id="defs-885b66"><g class="clips"/><g class="gradients"/><g class="patterns"><pattern id="p885b66-eb207f-0" width="11.313708498984761px" height="11.313708498984761px" patternUnits="userSpaceOnUse" patternTransform=""><rect width="11.313708498984761px" height="11.313708498984761px" fill="rgb(254, 203, 82)" fill-opacity="1"/><path d="M-2.8284271247461903,2.8284271247461903l5.656854249492381,-5.656854249492381M0,11.313708498984761L11.313708498984761,0M8.485281374238571,14.142135623730951l5.656854249492381,-5.656854249492381" opacity="0" stroke="rgb(0, 0, 0)" stroke-width="2.4px"/></pattern><pattern id="p885b66-eb207f-1" width="11.313708498984761px" height="11.313708498984761px" patternUnits="userSpaceOnUse" patternTransform=""><rect width="11.313708498984761px" height="11.313708498984761px" fill="rgb(254, 203, 82)" fill-opacity="1"/><path d="M-2.8284271247461903,2.8284271247461903l5.656854249492381,-5.656854249492381M0,11.313708498984761L11.313708498984761,0M8.485281374238571,14.142135623730951l5.656854249492381,-5.656854249492381" opacity="0" stroke="rgb(0, 0, 0)" stroke-width="2.4px"/></pattern><pattern id="p885b66-eb207f-2" width="11.313708498984761px" height="11.313708498984761px" patternUnits="userSpaceOnUse" patternTransform=""><rect width="11.313708498984761px" height="11.313708498984761px" fill="rgb(254, 203, 82)" fill-opacity="1"/><path d="M-2.8284271247461903,2.8284271247461903l5.656854249492381,-5.656854249492381M0,11.313708498984761L11.313708498984761,0M8.485281374238571,14.142135623730951l5.656854249492381,-5.656854249492381" opacity="0" stroke="rgb(0, 0, 0)" stroke-width="2.4px"/></pattern><pattern id="p885b66-eb207f-3" width="11.313708498984761px" height="11.313708498984761px" patternUnits="userSpaceOnUse" patternTransform=""><rect width="11.313708498984761px" height="11.313708498984761px" fill="rgb(90, 169, 162)" fill-opacity="1"/><path d="M-2.8284271247461903,2.8284271247461903l5.656854249492381,-5.656854249492381M0,11.313708498984761L11.313708498984761,0M8.485281374238571,14.142135623730951l5.656854249492381,-5.656854249492381" opacity="0" stroke="rgb(0, 0, 0)" stroke-width="2.4px"/></pattern><pattern id="p885b66-eb207f-4" width="11.313708498984761px" height="11.313708498984761px" patternUnits="userSpaceOnUse" patternTransform=""><rect width="11.313708498984761px" height="11.313708498984761px" fill="rgb(90, 169, 162)" fill-opacity="1"/><path d="M-2.8284271247461903,2.8284271247461903l5.656854249492381,-5.656854249492381M0,11.313708498984761L11.313708498984761,0M8.485281374238571,14.142135623730951l5.656854249492381,-5.656854249492381" opacity="0" stroke="rgb(0, 0, 0)" stroke-width="2.4px"/></pattern><pattern id="p885b66-84a89f-0" width="11.313708498984761px" height="11.313708498984761px" patternUnits="userSpaceOnUse" patternTransform=""><rect width="11.313708498984761px" height="11.313708498984761px" fill="rgb(131, 179, 102)" fill-opacity="1"/><path d="M-2.8284271247461903,2.8284271247461903l5.656854249492381,-5.656854249492381M0,11.313708498984761L11.313708498984761,0M8.485281374238571,14.142135623730951l5.656854249492381,-5.656854249492381" opacity="0" stroke="rgb(0, 0, 0)" stroke-width="2.4px"/></pattern><pattern id="p885b66-84a89f-1" width="11.313708498984761px" height="11.313708498984761px" patternUnits="userSpaceOnUse" patternTransform=""><rect width="11.313708498984761px" height="11.313708498984761px" fill="rgb(149, 115, 166)" fill-opacity="1"/><path d="M-2.8284271247461903,2.8284271247461903l5.656854249492381,-5.656854249492381M0,11.313708498984761L11.313708498984761,0M8.485281374238571,14.142135623730951l5.656854249492381,-5.656854249492381" opacity="0" stroke="rgb(0, 0, 0)" stroke-width="2.4px"/></pattern><pattern id="p885b66-75215e-0" width="11.313708498984761px" height="11.313708498984761px" patternUnits="userSpaceOnUse" patternTransform=""><rect width="11.313708498984761px" height="11.313708498984761px" fill="rgb(131, 179, 102)" fill-opacity="1"/><path d="M-2.8284271247461903,2.8284271247461903l5.656854249492381,-5.656854249492381M0,11.313708498984761L11.313708498984761,0M8.485281374238571,14.142135623730951l5.656854249492381,-5.656854249492381" opacity="0" stroke="rgb(0, 0, 0)" stroke-width="2.4px"/></pattern><pattern id="p885b66-75215e-1" width="11.313708498984761px" height="11.313708498984761px" patternUnits="userSpaceOnUse" patternTransform=""><rect width="11.313708498984761px" height="11.313708498984761px" fill="rgb(131, 179, 102)" fill-opacity="1"/><path d="M-2.8284271247461903,2.8284271247461903l5.656854249492381,-5.656854249492381M0,11.313708498984761L11.313708498984761,0M8.485281374238571,14.142135623730951l5.656854249492381,-5.656854249492381" opacity="1" stroke="rgb(149, 115, 166)" stroke-width="2.4px"/></pattern><pattern id="p885b66-75215e-2" width="11.313708498984761px" height="11.313708498984761px" patternUnits="userSpaceOnUse" patternTransform=""><rect width="11.313708498984761px" height="11.313708498984761px" fill="rgb(149, 115, 166)" fill-opacity="1"/><path d="M-2.8284271247461903,2.8284271247461903l5.656854249492381,-5.656854249492381M0,11.313708498984761L11.313708498984761,0M8.485281374238571,14.142135623730951l5.656854249492381,-5.656854249492381" opacity="0" stroke="rgb(0, 0, 0)" stroke-width="2.4px"/></pattern></g></defs><g class="bglayer"/><g class="layer-below"><g class="imagelayer"/><g class="shapelayer"/></g><g class="cartesianlayer"/><g class="polarlayer"/><g class="smithlayer"/><g class="ternarylayer"/><g class="geolayer"/><g class="funnelarealayer"/><g class="pielayer"><g class="trace" stroke-linejoin="round" style="opacity: 1;"><g class="slice"><path class="surface pattern_filled" d="M367.3378613397405,221.69913259869205a59.75,59.75 0 0 0 -55.86286133974048,-80.94913259869205l0,-59.75a119.5,119.5 0 0 1 111.72572267948097,161.8982651973841Z" style="pointer-events: none; stroke-width: 3; fill: url('#p885b66-eb207f-0'); stroke: rgb(204, 204, 204); stroke-opacity: 1;"/><g class="slicetext"><text data-notex="1" class="slicetext" transform="translate(465.539490285569,120.2604931010155)" text-anchor="middle" x="0" y="0" style="font-family: 'Open Sans', verdana, arial, sans-serif; font-size: 18px; fill: rgb(51, 51, 51); fill-opacity: 1; white-space: pre;"><tspan class="line" dy="0em" x="0" y="0"><tspan style="font-weight:bold">pumping</tspan></tspan><tspan class="line" dy="1.3em" x="0" y="0">30.8 %</tspan><tspan class="line" dy="2.6em" x="0" y="0"></tspan></text></g></g><g class="slice"><path class="surface pattern_filled" d="M311.475,140.75a59.75,59.75 0 0 0 -43.34120869068522,18.62090896663929l-43.34120869068522,-41.12909103336071a119.5,119.5 0 0 1 86.68241738137044,-37.24181793327858Z" style="pointer-events: none; stroke-width: 3; fill: url('#p885b66-eb207f-1'); stroke: rgb(131, 179, 102); stroke-opacity: 1;"/><g class="slicetext"><text data-notex="1" class="slicetext" transform="translate(221.7483015028696,66.75802079334473)" text-anchor="middle" x="0" y="0" style="font-family: 'Open Sans', verdana, arial, sans-serif; font-size: 18px; fill: rgb(51, 51, 51); fill-opacity: 1; white-space: pre;"><tspan class="line" dy="0em" x="0" y="0"><tspan style="font-weight:bold">DC</tspan></tspan><tspan class="line" dy="1.3em" x="0" y="0">12.9 %</tspan><tspan class="line" dy="2.6em" x="0" y="0"></tspan></text></g></g><g class="slice"><path class="surface pattern_filled" d="M268.1337913093148,159.3709089666393a59.75,59.75 0 0 0 -16.1239912645746,46.955967922481236l-59.46519995525982,5.826876889120528a119.5,119.5 0 0 1 32.2479825291492,-93.91193584496247Z" style="pointer-events: none; stroke-width: 3; fill: url('#p885b66-eb207f-2'); stroke: rgb(149, 115, 166); stroke-opacity: 1;"/><g class="slicetext"><text data-notex="1" class="slicetext" transform="translate(155.89809971767068,154.1447976417622)" text-anchor="middle" x="0" y="0" style="font-family: 'Open Sans', verdana, arial, sans-serif; font-size: 18px; fill: rgb(51, 51, 51); fill-opacity: 1; white-space: pre;"><tspan class="line" dy="0em" x="0" y="0"><tspan style="font-weight:bold">WCT</tspan></tspan><tspan class="line" dy="1.3em" x="0" y="0">13.6 %</tspan><tspan class="line" dy="2.6em" x="0" y="0"></tspan></text></g></g><g class="slice"><path class="surface pattern_filled" d="M252.0098000447402,206.32687688912054a59.75,59.75 0 0 0 0.0734243169822193,0.7060770011572419l-59.3917756382776,6.53295389027777a119.5,119.5 0 0 1 -0.1468486339644386,-1.4121540023144838Z" style="pointer-events: none; stroke-width: 3; fill: url('#p885b66-eb207f-3'); stroke: rgb(54, 215, 243); stroke-opacity: 1;"/><g class="slicetext"><text data-notex="1" class="slicetext" transform="translate(105.92061467855189,207.89445397780943)" text-anchor="middle" x="0" y="0" style="font-family: 'Open Sans', verdana, arial, sans-serif; font-size: 18px; fill: rgb(51, 51, 51); fill-opacity: 1; white-space: pre;"><tspan class="line" dy="0em" x="0" y="0"><tspan style="font-weight:bold">water source 1</tspan></tspan><tspan class="line" dy="1.3em" x="0" y="0">0.2 %</tspan><tspan class="line" dy="2.6em" x="0" y="0"></tspan></text></g></g><g class="slice"><path class="surface pattern_filled" d="M252.08322436172242,207.03295389027778a59.75,59.75 0 0 0 115.25463697801808,14.666178708414282l55.86286133974048,21.199132598692053a119.5,119.5 0 0 1 -230.50927395603617,-29.332357416828565Z" style="pointer-events: none; stroke-width: 3; fill: url('#p885b66-eb207f-4'); stroke: rgb(108, 142, 191); stroke-opacity: 1;"/><g class="slicetext"><text data-notex="1" class="slicetext" transform="translate(209.69492585012426,335.6902866260885)" text-anchor="middle" x="0" y="0" style="font-family: 'Open Sans', verdana, arial, sans-serif; font-size: 18px; fill: rgb(51, 51, 51); fill-opacity: 1; white-space: pre;"><tspan class="line" dy="0em" x="0" y="0"><tspan style="font-weight:bold">water source 2</tspan></tspan><tspan class="line" dy="1.3em" x="0" y="0">42.5 %</tspan><tspan class="line" dy="2.6em" x="0" y="0"></tspan></text></g></g><g class="titletext"><text data-notex="1" class="titletext" transform="translate(311.475,200.5)translate(0,-5)" text-anchor="middle" x="0" y="0" style="font-family: 'Open Sans', verdana, arial, sans-serif; font-size: 20px; fill: rgb(51, 51, 51); fill-opacity: 1; white-space: pre;"><tspan class="line" dy="0em" x="0" y="0"><tspan style="font-weight:bold">Costs</tspan></tspan><tspan class="line" dy="1.3em" x="0" y="0">0.29 €/h</tspan></text></g></g><g class="trace" stroke-linejoin="round" style="opacity: 1;"><g class="slice"><path class="surface pattern_filled" d="M668.8431724133791,213.23525658595608a37.849999999999994,37.849999999999994 0 0 0 -35.643172413379006,-50.58525658595607l0,-37.849999999999994a75.69999999999999,75.69999999999999 0 0 1 71.28634482675801,101.17051317191213Z" style="pointer-events: none; stroke-width: 3; fill: url('#p885b66-84a89f-0'); stroke: rgb(0, 0, 0); stroke-opacity: 0;"/><g class="slicetext"><text data-notex="1" class="slicetext" transform="translate(737.636057261479,144.32802370745108)" text-anchor="middle" x="0" y="0" style="font-family: 'Open Sans', verdana, arial, sans-serif; font-size: 18px; fill: rgb(51, 51, 51); fill-opacity: 1; white-space: pre;"><tspan class="line" dy="0em" x="0" y="0"><tspan style="font-weight:bold">DC</tspan></tspan><tspan class="line" dy="1.3em" x="0" y="0">30.8 %</tspan><tspan class="line" dy="2.6em" x="0" y="0"></tspan></text></g></g><g class="slice"><path class="surface pattern_filled" d="M633.2,162.65a37.849999999999994,37.849999999999994 0 1 0 35.643172413379,50.58525658595609l35.643172413379,12.735256585956096a75.69999999999999,75.69999999999999 0 1 1 -71.286344826758,-101.17051317191218Z" style="pointer-events: none; stroke-width: 3; fill: url('#p885b66-84a89f-1'); stroke: rgb(0, 0, 0); stroke-opacity: 0;"/><g class="slicetext"><text data-notex="1" class="slicetext" transform="translate(528.7639427385211,246.26572629254886)" text-anchor="middle" x="0" y="0" style="font-family: 'Open Sans', verdana, arial, sans-serif; font-size: 18px; fill: rgb(51, 51, 51); fill-opacity: 1; white-space: pre;"><tspan class="line" dy="0em" x="0" y="0"><tspan style="font-weight:bold">WCT</tspan></tspan><tspan class="line" dy="1.3em" x="0" y="0">70.2 %</tspan><tspan class="line" dy="2.6em" x="0" y="0"></tspan></text></g></g><g class="titletext"><text data-notex="1" class="titletext" transform="translate(633.2,200.5)scale(0.5631127501339234)translate(0,-19.1015625)" text-anchor="middle" x="0" y="0" style="font-family: 'Open Sans', verdana, arial, sans-serif; font-size: 20px; fill: rgb(51, 51, 51); fill-opacity: 1; white-space: pre;"><tspan class="line" dy="0em" x="0" y="0"><tspan style="font-weight:bold">Cooling</tspan></tspan><tspan class="line" dy="1.3em" x="0" y="0"><tspan style="font-weight:bold">power</tspan></tspan><tspan class="line" dy="2.6em" x="0" y="0">74.03 kW​<tspan style="font-size:70%" dy="0.3em">th</tspan><tspan dy="-0.21em">​</tspan></tspan></text></g></g><g class="trace" stroke-linejoin="round" style="opacity: 1;"><g class="slice"><path class="surface pattern_filled" d="M896.5628152216825,211.3457702445754a37.849999999999994,37.849999999999994 0 0 0 -36.26281522168243,-48.69577024457538l0,-37.849999999999994a75.69999999999999,75.69999999999999 0 0 1 72.52563044336486,97.39154048915076Z" style="pointer-events: none; stroke-width: 3; fill: url('#p885b66-75215e-0'); stroke: rgb(0, 0, 0); stroke-opacity: 0;"/><g class="slicetext"><text data-notex="1" class="slicetext" transform="translate(963.5693464178788,142.16336870197728)" text-anchor="middle" x="0" y="0" style="font-family: 'Open Sans', verdana, arial, sans-serif; font-size: 18px; fill: rgb(51, 51, 51); fill-opacity: 1; white-space: pre;"><tspan class="line" dy="0em" x="0" y="0"><tspan style="font-weight:bold">DC</tspan></tspan><tspan class="line" dy="1.3em" x="0" y="0">29.6 %</tspan><tspan class="line" dy="2.6em" x="0" y="0"></tspan></text></g></g><g class="slice"><path class="surface pattern_filled" d="M860.3000000000001,162.65a37.849999999999994,37.849999999999994 0 0 0 -29.853510912191204,14.582202806976326l-29.853510912191204,-23.267797193023668a75.69999999999999,75.69999999999999 0 0 1 59.70702182438241,-29.164405613952653Z" style="pointer-events: none; stroke-width: 3; fill: url('#p885b66-75215e-1'); stroke: rgb(0, 0, 0); stroke-opacity: 0;"/><g class="slicetext"><text data-notex="1" class="slicetext" transform="translate(773.0988569535416,109.35152901758997)" text-anchor="middle" x="0" y="0" style="font-family: 'Open Sans', verdana, arial, sans-serif; font-size: 18px; fill: rgb(51, 51, 51); fill-opacity: 1; white-space: pre;"><tspan class="line" dy="0em" x="0" y="0"><tspan style="font-weight:bold">DC🠒WCT</tspan></tspan><tspan class="line" dy="1.3em" x="0" y="0">14.5 %</tspan><tspan class="line" dy="2.6em" x="0" y="0"></tspan></text></g></g><g class="slice"><path class="surface pattern_filled" d="M830.4464890878089,177.23220280697632a37.849999999999994,37.849999999999994 0 1 0 66.11632613387363,34.11356743759905l36.26281522168243,10.845770244575382a75.69999999999999,75.69999999999999 0 1 1 -132.23265226774726,-68.2271348751981Z" style="pointer-events: none; stroke-width: 3; fill: url('#p885b66-75215e-2'); stroke: rgb(0, 0, 0); stroke-opacity: 0;"/><g class="slicetext"><text data-notex="1" class="slicetext" transform="translate(783.0348722110714,280.10501355540936)" text-anchor="middle" x="0" y="0" style="font-family: 'Open Sans', verdana, arial, sans-serif; font-size: 18px; fill: rgb(51, 51, 51); fill-opacity: 1; white-space: pre;"><tspan class="line" dy="0em" x="0" y="0"><tspan style="font-weight:bold">WCT</tspan></tspan><tspan class="line" dy="1.3em" x="0" y="0">55.9 %</tspan><tspan class="line" dy="2.6em" x="0" y="0"></tspan></text></g></g><g class="titletext"><text data-notex="1" class="titletext" transform="translate(860.3000000000001,200.5)scale(0.5351915653877295)translate(0,-5)" text-anchor="middle" x="0" y="0" style="font-family: 'Open Sans', verdana, arial, sans-serif; font-size: 20px; fill: rgb(51, 51, 51); fill-opacity: 1; white-space: pre;"><tspan class="line" dy="0em" x="0" y="0"><tspan style="font-weight:bold">Hydraulic</tspan></tspan><tspan class="line" dy="1.3em" x="0" y="0"><tspan style="font-weight:bold">distribution</tspan></tspan></text></g></g></g><g class="iciclelayer"/><g class="treemaplayer"/><g class="sunburstlayer"/><g class="glimages"/><defs id="topdefs-885b66"><g class="clips"/></defs><g class="layer-above"><g class="imagelayer"/><g class="shapelayer"/></g><g class="infolayer"><g class="g-gtitle"><text class="gtitle" x="500" y="40.5" text-anchor="middle" dy="0em" style="opacity: 1; font-family: 'Open Sans', verdana, arial, sans-serif; font-size: 17px; fill: rgb(51, 51, 51); fill-opacity: 1; white-space: pre;">Year averages</text></g></g></svg>