<svg class="main-svg" xmlns="http://www.w3.org/2000/svg" xmlns:xlink="http://www.w3.org/1999/xlink" width="2800" height="800" style="" viewBox="0 0 1400 400"><rect x="0" y="0" width="1400" height="400" style="fill: rgb(0, 0, 0); fill-opacity: 0;"/><defs id="defs-f1bdf2"><g class="clips"/><g class="gradients"/><g class="patterns"><pattern id="pf1bdf2-f51e96-0" width="11.313708498984761px" height="11.313708498984761px" patternUnits="userSpaceOnUse" patternTransform=""><rect width="11.313708498984761px" height="11.313708498984761px" fill="rgb(254, 203, 82)" fill-opacity="1"/><path d="M-2.8284271247461903,2.8284271247461903l5.656854249492381,-5.656854249492381M0,11.313708498984761L11.313708498984761,0M8.485281374238571,14.142135623730951l5.656854249492381,-5.656854249492381" opacity="0" stroke="rgb(0, 0, 0)" stroke-width="2.4px"/></pattern><pattern id="pf1bdf2-f51e96-1" width="11.313708498984761px" height="11.313708498984761px" patternUnits="userSpaceOnUse" patternTransform=""><rect width="11.313708498984761px" height="11.313708498984761px" fill="rgb(254, 203, 82)" fill-opacity="1"/><path d="M-2.8284271247461903,2.8284271247461903l5.656854249492381,-5.656854249492381M0,11.313708498984761L11.313708498984761,0M8.485281374238571,14.142135623730951l5.656854249492381,-5.656854249492381" opacity="0" stroke="rgb(0, 0, 0)" stroke-width="2.4px"/></pattern><pattern id="pf1bdf2-f51e96-2" width="11.313708498984761px" height="11.313708498984761px" patternUnits="userSpaceOnUse" patternTransform=""><rect width="11.313708498984761px" height="11.313708498984761px" fill="rgb(254, 203, 82)" fill-opacity="1"/><path d="M-2.8284271247461903,2.8284271247461903l5.656854249492381,-5.656854249492381M0,11.313708498984761L11.313708498984761,0M8.485281374238571,14.142135623730951l5.656854249492381,-5.656854249492381" opacity="0" stroke="rgb(0, 0, 0)" stroke-width="2.4px"/></pattern><pattern id="pf1bdf2-f51e96-3" width="11.313708498984761px" height="11.313708498984761px" patternUnits="userSpaceOnUse" patternTransform=""><rect width="11.313708498984761px" height="11.313708498984761px" fill="rgb(90, 169, 162)" fill-opacity="1"/><path d="M-2.8284271247461903,2.8284271247461903l5.656854249492381,-5.656854249492381M0,11.313708498984761L11.313708498984761,0M8.485281374238571,14.142135623730951l5.656854249492381,-5.656854249492381" opacity="0" stroke="rgb(0, 0, 0)" stroke-width="2.4px"/></pattern><pattern id="pf1bdf2-f51e96-4" width="11.313708498984761px" height="11.313708498984761px" patternUnits="userSpaceOnUse" patternTransform=""><rect width="11.313708498984761px" height="11.313708498984761px" fill="rgb(90, 169, 162)" fill-opacity="1"/><path d="M-2.8284271247461903,2.8284271247461903l5.656854249492381,-5.656854249492381M0,11.313708498984761L11.313708498984761,0M8.485281374238571,14.142135623730951l5.656854249492381,-5.656854249492381" opacity="0" stroke="rgb(0, 0, 0)" stroke-width="2.4px"/></pattern><pattern id="pf1bdf2-8944e8-0" width="11.313708498984761px" height="11.313708498984761px" patternUnits="userSpaceOnUse" patternTransform=""><rect width="11.313708498984761px" height="11.313708498984761px" fill="rgb(131, 179, 102)" fill-opacity="1"/><path d="M-2.8284271247461903,2.8284271247461903l5.656854249492381,-5.656854249492381M0,11.313708498984761L11.313708498984761,0M8.485281374238571,14.142135623730951l5.656854249492381,-5.656854249492381" opacity="0" stroke="rgb(0, 0, 0)" stroke-width="2.4px"/></pattern><pattern id="pf1bdf2-8944e8-1" width="11.313708498984761px" height="11.313708498984761px" patternUnits="userSpaceOnUse" patternTransform=""><rect width="11.313708498984761px" height="11.313708498984761px" fill="rgb(149, 115, 166)" fill-opacity="1"/><path d="M-2.8284271247461903,2.8284271247461903l5.656854249492381,-5.656854249492381M0,11.313708498984761L11.313708498984761,0M8.485281374238571,14.142135623730951l5.656854249492381,-5.656854249492381" opacity="0" stroke="rgb(0, 0, 0)" stroke-width="2.4px"/></pattern><pattern id="pf1bdf2-02e04d-0" width="11.313708498984761px" height="11.313708498984761px" patternUnits="userSpaceOnUse" patternTransform=""><rect width="11.313708498984761px" height="11.313708498984761px" fill="rgb(131, 179, 102)" fill-opacity="1"/><path d="M-2.8284271247461903,2.8284271247461903l5.656854249492381,-5.656854249492381M0,11.313708498984761L11.313708498984761,0M8.485281374238571,14.142135623730951l5.656854249492381,-5.656854249492381" opacity="0" stroke="rgb(0, 0, 0)" stroke-width="2.4px"/></pattern><pattern id="pf1bdf2-02e04d-1" width="11.313708498984761px" height="11.313708498984761px" patternUnits="userSpaceOnUse" patternTransform=""><rect width="11.313708498984761px" height="11.313708498984761px" fill="rgb(131, 179, 102)" fill-opacity="1"/><path d="M-2.8284271247461903,2.8284271247461903l5.656854249492381,-5.656854249492381M0,11.313708498984761L11.313708498984761,0M8.485281374238571,14.142135623730951l5.656854249492381,-5.656854249492381" opacity="1" stroke="rgb(149, 115, 166)" stroke-width="2.4px"/></pattern><pattern id="pf1bdf2-02e04d-2" width="11.313708498984761px" height="11.313708498984761px" patternUnits="userSpaceOnUse" patternTransform=""><rect width="11.313708498984761px" height="11.313708498984761px" fill="rgb(149, 115, 166)" fill-opacity="1"/><path d="M-2.8284271247461903,2.8284271247461903l5.656854249492381,-5.656854249492381M0,11.313708498984761L11.313708498984761,0M8.485281374238571,14.142135623730951l5.656854249492381,-5.656854249492381" opacity="0" stroke="rgb(0, 0, 0)" stroke-width="2.4px"/></pattern></g></defs><g class="bglayer"/><g class="layer-below"><g class="imagelayer"/><g class="shapelayer"/></g><g class="cartesianlayer"/><g class="polarlayer"/><g class="smithlayer"/><g class="ternarylayer"/><g class="geolayer"/><g class="funnelarealayer"/><g class="pielayer"><g class="trace" stroke-linejoin="round" style="opacity: 1;"><g class="slice"><path class="surface pattern_filled" d="M360.20766482610503,116.2501328299904a66.25,66.25 0 0 0 -0.13266482610506647,-0.00013282999040598042l0,-66.25a132.5,132.5 0 0 1 0.26532965221013294,0.00026565998081196085Z" style="pointer-events: none; stroke-width: 3; fill: url('#pf1bdf2-f51e96-0'); stroke: rgb(204, 204, 204); stroke-opacity: 1;"/><g class="slicetext"><text data-notex="1" class="slicetext" transform="translate(415.91713754885274,22.599698045496602)" text-anchor="middle" x="0" y="0" style="font-family: 'Open Sans', verdana, arial, sans-serif; font-size: 18px; fill: rgb(51, 51, 51); fill-opacity: 1; white-space: pre;"><tspan class="line" dy="0em" x="0" y="0"><tspan style="font-weight:bold">pumping</tspan></tspan><tspan class="line" dy="1.3em" x="0" y="0">0.0 %</tspan><tspan class="line" dy="2.6em" x="0" y="0"></tspan></text></g></g><g class="slice"><path class="surface pattern_filled" d="M360.075,116.25a66.25,66.25 0 0 0 -28.778529415901055,125.92293142336916l-28.778529415901055,59.67293142336916a132.5,132.5 0 0 1 57.55705883180211,-251.84586284673833Z" style="pointer-events: none; stroke-width: 3; fill: url('#pf1bdf2-f51e96-1'); stroke: rgb(131, 179, 102); stroke-opacity: 1;"/><g class="slicetext"><text data-notex="1" class="slicetext" transform="translate(188.3521663139245,146.67729754659203)" text-anchor="middle" x="0" y="0" style="font-family: 'Open Sans', verdana, arial, sans-serif; font-size: 18px; fill: rgb(51, 51, 51); fill-opacity: 1; white-space: pre;"><tspan class="line" dy="0em" x="0" y="0"><tspan style="font-weight:bold">DC</tspan></tspan><tspan class="line" dy="1.3em" x="0" y="0">42.8 %</tspan><tspan class="line" dy="2.6em" x="0" y="0"></tspan></text></g></g><g class="slice"><path class="surface pattern_filled" d="M331.2964705840989,242.17293142336916a66.25,66.25 0 0 0 16.01040719749333,5.335049279124611l-12.768122218407726,65.00798070249377a132.5,132.5 0 0 1 -32.02081439498666,-10.670098558249222Z" style="pointer-events: none; stroke-width: 3; fill: url('#pf1bdf2-f51e96-2'); stroke: rgb(149, 115, 166); stroke-opacity: 1;"/><g class="slicetext"><text data-notex="1" class="slicetext" transform="translate(281.3605491066712,322.98595875575853)" text-anchor="middle" x="0" y="0" style="font-family: 'Open Sans', verdana, arial, sans-serif; font-size: 18px; fill: rgb(51, 51, 51); fill-opacity: 1; white-space: pre;"><tspan class="line" dy="0em" x="0" y="0"><tspan style="font-weight:bold">WCT</tspan></tspan><tspan class="line" dy="1.3em" x="0" y="0">4.1 %</tspan><tspan class="line" dy="2.6em" x="0" y="0"></tspan></text></g></g><g class="slice"><path class="surface pattern_filled" d="M347.3068777815923,247.50798070249377a66.25,66.25 0 0 0 1.0531076327356317,0.19800777446661755l-11.715014585672094,65.20598847696039a132.5,132.5 0 0 1 -2.1062152654712634,-0.3960155489332351Z" style="pointer-events: none; stroke-width: 3; fill: url('#pf1bdf2-f51e96-3'); stroke: rgb(54, 215, 243); stroke-opacity: 1;"/><g class="slicetext"><text data-notex="1" class="slicetext" transform="translate(248.90502735718468,367.38634938075853)" text-anchor="middle" x="0" y="0" style="font-family: 'Open Sans', verdana, arial, sans-serif; font-size: 18px; fill: rgb(51, 51, 51); fill-opacity: 1; white-space: pre;"><tspan class="line" dy="0em" x="0" y="0"><tspan style="font-weight:bold">water source 1</tspan></tspan><tspan class="line" dy="1.3em" x="0" y="0">0.3 %</tspan><tspan class="line" dy="2.6em" x="0" y="0"></tspan></text></g><path class="textline" stroke-width="2" d="M335.5910625134347,312.71822762253356V372.58654469325853h-11.10009765625" fill="none" style="stroke: rgb(51, 51, 51); stroke-opacity: 1;"/></g><g class="slice"><path class="surface pattern_filled" d="M348.35998541432787,247.70598847696039a66.25,66.25 0 1 0 11.847679411777289,-131.45585564696998l0.13266482610519464,-66.2498671700096a132.5,132.5 0 1 1 -23.695358823554578,262.91171129393996Z" style="pointer-events: none; stroke-width: 3; fill: url('#pf1bdf2-f51e96-4'); stroke: rgb(108, 142, 191); stroke-opacity: 1;"/><g class="slicetext"><text data-notex="1" class="slicetext" transform="translate(578.7261548274341,189.37225754604646)" text-anchor="middle" x="0" y="0" style="font-family: 'Open Sans', verdana, arial, sans-serif; font-size: 18px; fill: rgb(51, 51, 51); fill-opacity: 1; white-space: pre;"><tspan class="line" dy="0em" x="0" y="0"><tspan style="font-weight:bold">water source 2</tspan></tspan><tspan class="line" dy="1.3em" x="0" y="0">52.8 %</tspan><tspan class="line" dy="2.6em" x="0" y="0"></tspan></text></g></g><g class="titletext"><text data-notex="1" class="titletext" transform="translate(360.075,182.5)translate(0,8)" text-anchor="middle" x="0" y="0" style="font-family: 'Open Sans', verdana, arial, sans-serif; font-size: 20px; fill: rgb(51, 51, 51); fill-opacity: 1; white-space: pre;"><tspan style="font-weight:bold">Costs</tspan></text></g></g><g class="trace" stroke-linejoin="round" style="opacity: 1;"><g class="slice"><path class="surface pattern_filled" d="M842.7080013887053,237.44884620285487a59.44999999999999,59.44999999999999 0 1 0 22.691998611294704,-114.39884620285486l0,-59.44999999999999a118.89999999999998,118.89999999999998 0 1 1 -45.38399722258941,228.7976924057097Z" style="pointer-events: none; stroke-width: 3; fill: url('#pf1bdf2-8944e8-0'); stroke: rgb(0, 0, 0); stroke-opacity: 0;"/><g class="slicetext"><text data-notex="1" class="slicetext" transform="translate(1024.580932972107,201.27434240608798)" text-anchor="middle" x="0" y="0" style="font-family: 'Open Sans', verdana, arial, sans-serif; font-size: 18px; fill: rgb(51, 51, 51); fill-opacity: 1; white-space: pre;"><tspan class="line" dy="0em" x="0" y="0"><tspan style="font-weight:bold">DC</tspan></tspan><tspan class="line" dy="1.3em" x="0" y="0">54.6 %</tspan><tspan class="line" dy="2.6em" x="0" y="0"></tspan></text></g></g><g class="slice"><path class="surface pattern_filled" d="M865.4,123.05000000000001a59.44999999999999,59.44999999999999 0 0 0 -22.691998611294768,114.39884620285483l-22.691998611294768,54.948846202854845a118.89999999999998,118.89999999999998 0 0 1 45.383997222589535,-228.79769240570965Z" style="pointer-events: none; stroke-width: 3; fill: url('#pf1bdf2-8944e8-1'); stroke: rgb(0, 0, 0); stroke-opacity: 0;"/><g class="slicetext"><text data-notex="1" class="slicetext" transform="translate(706.2190670278931,153.32526696891193)" text-anchor="middle" x="0" y="0" style="font-family: 'Open Sans', verdana, arial, sans-serif; font-size: 18px; fill: rgb(51, 51, 51); fill-opacity: 1; white-space: pre;"><tspan class="line" dy="0em" x="0" y="0"><tspan style="font-weight:bold">WCT</tspan></tspan><tspan class="line" dy="1.3em" x="0" y="0">42.5 %</tspan><tspan class="line" dy="2.6em" x="0" y="0"></tspan></text></g></g><g class="titletext"><text data-notex="1" class="titletext" transform="translate(865.4,182.5)scale(0.8201299213974556)translate(0,-19.10009765625)" text-anchor="middle" x="0" y="0" style="font-family: 'Open Sans', verdana, arial, sans-serif; font-size: 20px; fill: rgb(51, 51, 51); fill-opacity: 1; white-space: pre;"><tspan class="line" dy="0em" x="0" y="0"><tspan style="font-weight:bold">Cooling</tspan></tspan><tspan class="line" dy="1.3em" x="0" y="0"><tspan style="font-weight:bold">power</tspan></tspan><tspan class="line" dy="2.6em" x="0" y="0">184.87 kW​<tspan style="font-size:70%" dy="0.3em">th</tspan><tspan dy="-0.21em">​</tspan></tspan></text></g></g><g class="trace" stroke-linejoin="round" style="opacity: 1;"><g class="slice"><path class="surface pattern_filled" d="M1277.0614419373576,205.16147391866815a59.44999999999999,59.44999999999999 0 0 0 -54.96144193735753,-82.11147391866812l0,-59.44999999999999a118.89999999999998,118.89999999999998 0 0 1 109.92288387471505,164.22294783733625Z" style="pointer-events: none; stroke-width: 3; fill: url('#pf1bdf2-02e04d-0'); stroke: rgb(0, 0, 0); stroke-opacity: 0;"/><g class="slicetext"><text data-notex="1" class="slicetext" transform="translate(1363.4613915944997,104.29350200235827)" text-anchor="middle" x="0" y="0" style="font-family: 'Open Sans', verdana, arial, sans-serif; font-size: 18px; fill: rgb(51, 51, 51); fill-opacity: 1; white-space: pre;"><tspan class="line" dy="0em" x="0" y="0"><tspan style="font-weight:bold">DC</tspan></tspan><tspan class="line" dy="1.3em" x="0" y="0">31.2 %</tspan><tspan class="line" dy="2.6em" x="0" y="0"></tspan></text></g></g><g class="slice"><path class="surface pattern_filled" d="M1222.1000000000001,123.05000000000001a59.44999999999999,59.44999999999999 0 1 0 32.12110184064012,109.47536673072196l32.12110184064012,50.02536673072197a118.89999999999998,118.89999999999998 0 1 1 -64.24220368128024,-218.95073346144392Z" style="pointer-events: none; stroke-width: 3; fill: url('#pf1bdf2-02e04d-1'); stroke: rgb(0, 0, 0); stroke-opacity: 0;"/><g class="slicetext"><text data-notex="1" class="slicetext" transform="translate(1054.0403541277399,212.5347060114382)" text-anchor="middle" x="0" y="0" style="font-family: 'Open Sans', verdana, arial, sans-serif; font-size: 18px; fill: rgb(51, 51, 51); fill-opacity: 1; white-space: pre;"><tspan class="line" dy="0em" x="0" y="0"><tspan style="font-weight:bold">DC🠒WCT</tspan></tspan><tspan class="line" dy="1.3em" x="0" y="0">59.1 %</tspan><tspan class="line" dy="2.6em" x="0" y="0"></tspan></text></g></g><g class="slice"><path class="surface pattern_filled" d="M1254.2211018406404,232.52536673072197a59.44999999999999,59.44999999999999 0 0 0 22.840340096717384,-27.363892812053795l54.961441937357506,22.661473918668175a118.89999999999998,118.89999999999998 0 0 1 -45.68068019343477,54.72778562410759Z" style="pointer-events: none; stroke-width: 3; fill: url('#pf1bdf2-02e04d-2'); stroke: rgb(0, 0, 0); stroke-opacity: 0;"/><g class="slicetext"><text data-notex="1" class="slicetext" transform="translate(1350.2072827476657,262.606637447356)" text-anchor="middle" x="0" y="0" style="font-family: 'Open Sans', verdana, arial, sans-serif; font-size: 18px; fill: rgb(51, 51, 51); fill-opacity: 1; white-space: pre;"><tspan class="line" dy="0em" x="0" y="0"><tspan style="font-weight:bold">WCT</tspan></tspan><tspan class="line" dy="1.3em" x="0" y="0">9.7 %</tspan><tspan class="line" dy="2.6em" x="0" y="0"></tspan></text></g></g><g class="titletext"><text data-notex="1" class="titletext" transform="translate(1222.1000000000001,182.5)scale(0.8406113226499476)translate(0,-5)" text-anchor="middle" x="0" y="0" style="font-family: 'Open Sans', verdana, arial, sans-serif; font-size: 20px; fill: rgb(51, 51, 51); fill-opacity: 1; white-space: pre;"><tspan class="line" dy="0em" x="0" y="0"><tspan style="font-weight:bold">Hydraulic</tspan></tspan><tspan class="line" dy="1.3em" x="0" y="0"><tspan style="font-weight:bold">distribution</tspan></tspan></text></g></g></g><g class="iciclelayer"/><g class="treemaplayer"/><g class="sunburstlayer"/><g class="glimages"/><defs id="topdefs-f1bdf2"><g class="clips"/></defs><g class="layer-above"><g class="imagelayer"/><g class="shapelayer"/></g><g class="infolayer"><g class="g-gtitle"><text class="gtitle" x="700" y="25" text-anchor="middle" dy="0em" style="opacity: 1; font-family: 'Open Sans', verdana, arial, sans-serif; font-size: 17px; fill: rgb(51, 51, 51); fill-opacity: 1; white-space: pre;"><tspan style="font-weight:bold">Year averages</tspan> combined cooler - WCT 100% - DC 100%</text></g></g></svg>